<svg xmlns="http://www.w3.org/2000/svg" xmlns:xlink="http://www.w3.org/1999/xlink" xmlns:inkscape="http://www.inkscape.org/namespaces/inkscape" version="1.1" width="257.04" height="392.88" viewBox="0 0 257.04 392.88">
<defs>
<clipPath id="clip_0">
<path transform="matrix(.24,0,0,.24,0,0)" d="M0 0H1070.8334V1635.9086H0Z" clip-rule="evenodd"/>
</clipPath>
<clipPath id="clip_1">
<path transform="matrix(.24,0,0,.24,0,0)" d="M0 0H1070.8334V1635.9086H0Z" clip-rule="evenodd"/>
</clipPath>
<clipPath id="clip_2">
<path transform="matrix(.24,0,0,.24,0,0)" d="M.062439268 .93658897H1070.8334V1635.9086H.062439268Z" clip-rule="evenodd"/>
</clipPath>
<clipPath id="clip_3">
<path transform="matrix(.24,0,0,.24,0,0)" d="M0 0H1070.8334V1635.9086H0Z" clip-rule="evenodd"/>
</clipPath>
<clipPath id="clip_4">
<path transform="matrix(.24,0,0,.24,0,0)" d="M0 0H1070.8334V1635.9086H0Z"/>
</clipPath>
<clipPath id="clip_5">
<path transform="matrix(.24,0,0,.24,0,0)" d="M0 0H1070.8334V1639.0307H0Z"/>
</clipPath>
<clipPath id="clip_6">
<path transform="matrix(.24,0,0,.24,0,0)" d="M280.3201 1120.6901H797.4828V1910.6748H280.3201Z"/>
</clipPath>
<clipPath id="clip_7">
<path transform="matrix(.24,0,0,.24,0,0)" d="M391.13175 1120.6901H488.56819V1142.9613H391.13175M280.3201 1120.6901H797.4828V1910.6748H280.3201" clip-rule="evenodd"/>
</clipPath>
<clipPath id="clip_8">
<path transform="matrix(.24,0,0,.24,0,0)" d="M0 0H1070.8334V1635.9086H0Z" clip-rule="evenodd"/>
</clipPath>
<clipPath id="clip_9">
<path transform="matrix(.24,0,0,.24,0,0)" d="M0 0H1070.8334V1635.9086H0Z"/>
</clipPath>
<clipPath id="clip_10">
<path transform="matrix(.24,0,0,.24,0,0)" d="M0 0H1070.8334V1639.0307H0Z"/>
</clipPath>
<clipPath id="clip_11">
<path transform="matrix(.24,0,0,.24,0,0)" d="M720.8915 1239.6681H1238.0542V2029.6528H720.8915Z"/>
</clipPath>
<clipPath id="clip_12">
<path transform="matrix(.24,0,0,.24,0,0)" d="M720.8915 1292.9447H770.1451V1334.489H720.8915M720.8915 1239.6681H1238.0542V2029.6528H720.8915" clip-rule="evenodd"/>
</clipPath>
<clipPath id="clip_13">
<path transform="matrix(.24,0,0,.24,0,0)" d="M0 0H1070.8334V1635.9086H0Z" clip-rule="evenodd"/>
</clipPath>
</defs>
<g clip-path="url(#clip_0)">
<path transform="matrix(.7492711,0,0,.7492711,0,0)" d="M0 0H343V525H0Z" fill="#ffffff"/>
</g>
<g clip-path="url(#clip_1)">
<path transform="matrix(.7492711,0,0,.7492711,0,0)" d="M0 0H343V525H0Z" fill="#f2f2f2"/>
</g>
<g clip-path="url(#clip_2)">
<path transform="matrix(.35976336,0,0,.3597654,.014985424,.22478134)" d="M0 0H714.35397V1093.3998H0Z" fill="#ffffff"/>
</g>
<g clip-path="url(#clip_3)">
<path transform="matrix(.35976536,0,0,.35976536,144.38455,96.67096)" d="M8 0H155.16292C156.22379 0 157.24427 .20298788 158.22438 .60896369 159.2045 1.0149394 160.06963 1.593 160.81977 2.3431457 161.5699 3.0932909 162.14797 3.9584196 162.55394 4.938532 162.95993 5.9186446 163.16292 6.9391338 163.16292 8V108.54494C163.16292 109.6058 162.95993 110.62628 162.55394 111.60639 162.14797 112.5865 161.5699 113.45163 160.81977 114.20178 160.06963 114.95193 159.2045 115.52998 158.22438 115.93596 157.24427 116.341938 156.22379 116.54493 155.16292 116.54494H8C6.9391338 116.54493 5.9186446 116.341938 4.938532 115.93596 3.9584196 115.52998 3.0932909 114.95193 2.3431457 114.20178 1.593 113.45163 1.0149394 112.586498 .60896369 111.606388 .20298788 110.62628 0 109.6058 0 108.54494V8C0 6.9391338 .20298788 5.9186446 .60896369 4.938532 1.0149394 3.9584196 1.593 3.0932909 2.3431457 2.3431457 3.0932909 1.593 3.9584196 1.0149394 4.938532 .60896369 5.9186446 .20298788 6.9391338 0 8 0Z" fill="#ffdd33"/>
<text fill="#1a1a1a" xml:space="preserve" transform="matrix(.36046777 0 0 .35976536 150.13649 102.427219)" font-size="14" font-family="Unnamed"><tspan y="40.27247" x="6.116528 9.672512 17.792477">Ini</tspan></text>
<text fill="#1a1a1a" xml:space="preserve" transform="matrix(.36046777 0 0 .35976536 150.13649 102.427219)" font-size="14" font-family="Unnamed"><tspan y="40.27247" x="21.05447">t</tspan></text>
<text fill="#1a1a1a" xml:space="preserve" transform="matrix(.36046777 0 0 .35976536 150.13649 102.427219)" font-size="14" font-family="Unnamed"><tspan y="40.27247" x="26.332455 29.594449 38.10641 41.368406">iali</tspan></text>
<text fill="#1a1a1a" xml:space="preserve" transform="matrix(.36046777 0 0 .35976536 150.13649 102.427219)" font-size="14" font-family="Unnamed"><tspan y="40.27247" x="44.630399">z</tspan></text>
<text fill="#1a1a1a" xml:space="preserve" transform="matrix(.36046777 0 0 .35976536 150.13649 102.427219)" font-size="14" font-family="Unnamed"><tspan y="40.27247" x="51.29437 59.148344 62.508329">e K</tspan></text>
<text fill="#1a1a1a" xml:space="preserve" transform="matrix(.36046777 0 0 .35976536 150.13649 102.427219)" font-size="14" font-family="Unnamed"><tspan y="40.27247" x="70.964298">u</tspan></text>
<text fill="#1a1a1a" xml:space="preserve" transform="matrix(.36046777 0 0 .35976536 150.13649 102.427219)" font-size="14" font-family="Unnamed"><tspan y="40.27247" x="79.08426 87.59622 95.366199 102.96817 106.23016">beFlo</tspan></text>
<text fill="#1a1a1a" xml:space="preserve" transform="matrix(.36046777 0 0 .35976536 150.13649 102.427219)" font-size="14" font-family="Unnamed"><tspan y="40.27247" x="114.476139">w</tspan></text>
<text fill="#1a1a1a" xml:space="preserve" transform="matrix(.36046777 0 0 .35976536 150.13649 102.427219)" font-size="14" font-family="Unnamed"><tspan y="40.27247" x="124.80809"> </tspan></text>
<text fill="#1a1a1a" xml:space="preserve" transform="matrix(.36153246 0 0 .35976536 150.09073 102.427219)" font-size="14" font-family="Unnamed"><tspan y="56.27247" x="28.327504 34.739477 39.68146 48.193426 51.455419 59.575384 67.42935 72.25934 75.61932 84.061298 93.67926">Trainer SDK</tspan></text>
<path transform="matrix(.35976536,0,0,.35976536,144.38455,172.85684)" d="M81.58146 0H152.9167C153.52457-.000000056578 154.12464 .0683938 154.71692 .2051816 155.3092 .3419694 155.8785 .5436428 156.4248 .81020197 156.9711 1.076761 157.48041 1.401369 157.95272 1.7840262 158.42504 2.1666833 158.84824 2.5975753 159.22234 3.0767019 159.59642 3.5558284 159.9118 4.070901 160.16849 4.6219198 160.42516 5.1729385 160.61655 5.7457716 160.74266 6.3404185 160.86875 6.9350645 160.92633 7.5362737 160.91539 8.144046 160.90444 8.751817 160.82526 9.350563 160.67784 9.940285L135.54161 110.48522C135.32526 111.35065 134.97397 112.15732 134.48775 112.905239 134.00156 113.65315 133.4069 114.3016 132.70377 114.850589 132.00064 115.39957 131.22733 115.8192 130.38382 116.10949 129.54032 116.39979 128.67253 116.54494 127.780467 116.54494H10.246211C9.63834 116.54493 9.038265 116.47653 8.445986 116.33974 7.853706 116.20295 7.2844126 116.00128 6.7381045 115.734729 6.1917965 115.46816 5.6824858 115.14355 5.210172 114.760898 4.7378594 114.37824 4.3146579 113.94736 3.9405673 113.46823 3.5664764 112.9891 3.2510913 112.47402 2.994412 111.923 2.737733 111.37198 2.5463429 110.79915 2.4202419 110.204509 2.2941406 109.60986 2.2365626 109.00865 2.2475079 108.40087 2.258453 107.793109 2.3376408 107.19437 2.4850713 106.60465L27.621306 6.059715C27.837662 5.194289 28.188944 4.3876197 28.675152 3.6397055 29.161358 2.891791 29.756024 2.2433415 30.459149 1.6943566 31.162276 1.1453717 31.935593 .72573277 32.7791 .43543966 33.622606 .14514655 34.490388 0 35.382448 0H81.58146Z" fill="#8fd14f"/>
<text fill="#1a1a1a" xml:space="preserve" transform="matrix(.36211816 0 0 .35976536 154.80533 175.73497)" font-size="14" font-family="Unnamed"><tspan y="48.27247" x="26.104256 35.63822 42.162195 50.016168 54.846155 58.20614 61.762125 69.88209">User Ini</tspan></text>
<text fill="#1a1a1a" xml:space="preserve" transform="matrix(.36211816 0 0 .35976536 154.80533 175.73497)" font-size="14" font-family="Unnamed"><tspan y="48.27247" x="73.14408">t</tspan></text>
<text fill="#1a1a1a" xml:space="preserve" transform="matrix(.36211816 0 0 .35976536 154.80533 175.73497)" font-size="14" font-family="Unnamed"><tspan y="48.27247" x="78.422069"> </tspan></text>
<text fill="#1a1a1a" xml:space="preserve" transform="matrix(.35976625 0 0 .35976536 154.86673 175.73497)" font-size="14" font-family="Unnamed"><tspan y="64.27247" x="15.037278 23.17125 31.683213 36.6252 45.13716 57.485109">Parame</tspan></text>
<text fill="#1a1a1a" xml:space="preserve" transform="matrix(.35976625 0 0 .35976536 154.86673 175.73497)" font-size="14" font-family="Unnamed"><tspan y="64.27247" x="65.24107">t</tspan></text>
<text fill="#1a1a1a" xml:space="preserve" transform="matrix(.35976625 0 0 .35976536 154.86673 175.73497)" font-size="14" font-family="Unnamed"><tspan y="64.27247" x="70.43506 78.28903 83.32901">ers</tspan></text>
<path transform="matrix(.35976536,0,0,.35976536,173.73349,138.60018)" stroke-width="2" stroke-linecap="butt" stroke-miterlimit="4" stroke-linejoin="miter" fill="none" stroke="#333333" d="M0 0V85.03257"/>
<path transform="matrix(.000000000000000022029274,.35976536,-.35976536,.000000000000000022029274,173.73349,172.855)" d="M-12.727273-7.5454547 0 0-12.727273 7.5454547V-7.5454547Z" fill="#333333"/>
<path transform="matrix(.35976536,0,0,.35976536,140.18863,241.13043)" d="M46.617975 39.688016 88.05 4.4150326C88.773548 3.799049 89.5812 3.3269642 90.47296 2.9987777 91.364719 2.6705909 92.28571 2.5064975 93.235958 2.5064975 94.18619 2.5064975 95.10719 2.6705907 95.998958 2.9987775 96.89072 3.3269642 97.698368 3.799049 98.4219 4.4150326L179.31679 73.28457C179.75788 73.66008 180.15349 74.07856 180.50365 74.540019 180.85384 75.00147 181.15039 75.49514 181.39333 76.02101 181.63626 76.54688 181.8199 77.0927 181.94426 77.65847 182.06864 78.22423 182.13083 78.79675 182.13083 79.37603 182.13083 79.95531 182.06864 80.527828 181.94426 81.09359 181.81989 81.659358 181.63625 82.20518 181.39331 82.73105 181.15038 83.25692 180.85382 83.75059 180.50365 84.21204 180.15349 84.6735 179.75788 85.09199 179.31679 85.4675L98.4219 154.33704C97.698368 154.95302 96.89072 155.42511 95.998958 155.7533 95.10719 156.08148 94.186199 156.24558 93.23596 156.24558 92.28573 156.24558 91.36473 156.08148 90.47296 155.7533 89.5812 155.42511 88.77355 154.95302 88.05 154.33704L7.1551039 85.4675C6.714024 85.09199 6.318397 84.67351 5.9682238 84.21206 5.6180498 83.7506 5.3214948 83.256938 5.078559 82.73106 4.8356235 82.205188 4.651971 81.65937 4.5276029 81.0936 4.4032347 80.527828 4.34105 79.95531 4.3410508 79.37603 4.34105 78.79675 4.4032347 78.224239 4.5276029 77.65847 4.651971 77.092708 4.835623 76.54688 5.0785586 76.02101 5.3214948 75.49514 5.6180498 75.00147 5.9682238 74.540019 6.318397 74.07856 6.714024 73.66008 7.1551039 73.28457L46.617975 39.688016Z" fill="#2c2e33"/>
<path transform="matrix(.35976536,0,0,.35976536,140.18863,241.13043)" stroke-width="2" stroke-linecap="round" stroke-linejoin="round" fill="none" stroke="#1a1a1a" d="M46.617975 39.688016 88.05 4.4150326C88.773548 3.799049 89.5812 3.3269642 90.47296 2.9987777 91.364719 2.6705909 92.28571 2.5064975 93.235958 2.5064975 94.18619 2.5064975 95.10719 2.6705907 95.998958 2.9987775 96.89072 3.3269642 97.698368 3.799049 98.4219 4.4150326L179.31679 73.28457C179.75788 73.66008 180.15349 74.07856 180.50365 74.540019 180.85384 75.00147 181.15039 75.49514 181.39333 76.02101 181.63626 76.54688 181.8199 77.0927 181.94426 77.65847 182.06864 78.22423 182.13083 78.79675 182.13083 79.37603 182.13083 79.95531 182.06864 80.527828 181.94426 81.09359 181.81989 81.659358 181.63625 82.20518 181.39331 82.73105 181.15038 83.25692 180.85382 83.75059 180.50365 84.21204 180.15349 84.6735 179.75788 85.09199 179.31679 85.4675L98.4219 154.33704C97.698368 154.95302 96.89072 155.42511 95.998958 155.7533 95.10719 156.08148 94.186199 156.24558 93.23596 156.24558 92.28573 156.24558 91.36473 156.08148 90.47296 155.7533 89.5812 155.42511 88.77355 154.95302 88.05 154.33704L7.1551039 85.4675C6.714024 85.09199 6.318397 84.67351 5.9682238 84.21206 5.6180498 83.7506 5.3214948 83.256938 5.078559 82.73106 4.8356235 82.205188 4.651971 81.65937 4.5276029 81.0936 4.4032347 80.527828 4.34105 79.95531 4.3410508 79.37603 4.34105 78.79675 4.4032347 78.224239 4.5276029 77.65847 4.651971 77.092708 4.835623 76.54688 5.0785586 76.02101 5.3214948 75.49514 5.6180498 75.00147 5.9682238 74.540019 6.318397 74.07856 6.714024 73.66008 7.1551039 73.28457L46.617975 39.688016Z"/>
<text fill="#ffffff" xml:space="preserve" transform="matrix(.35976625 0 0 .35976536 156.96015 255.4088)" font-size="14" font-family="Unnamed"><tspan y="37.688016" x="15.118005">E</tspan></text>
<text fill="#ffffff" xml:space="preserve" transform="matrix(.35976625 0 0 .35976536 156.96015 255.4088)" font-size="14" font-family="Unnamed"><tspan y="37.688016" x="23.125969">x</tspan></text>
<text fill="#ffffff" xml:space="preserve" transform="matrix(.35976625 0 0 .35976536 156.96015 255.4088)" font-size="14" font-family="Unnamed"><tspan y="37.688016" x="29.439949 37.293924">ec</tspan></text>
<text fill="#ffffff" xml:space="preserve" transform="matrix(.35976625 0 0 .35976536 156.96015 255.4088)" font-size="14" font-family="Unnamed"><tspan y="37.688016" x="45.007898 53.12786">ut</tspan></text>
<text fill="#ffffff" xml:space="preserve" transform="matrix(.35976625 0 0 .35976536 156.96015 255.4088)" font-size="14" font-family="Unnamed"><tspan y="37.688016" x="58.405847 61.66784 69.99781">ion</tspan></text>
<text fill="#ffffff" xml:space="preserve" transform="matrix(.35976625 0 0 .35976536 156.96015 255.4088)" font-size="14" font-family="Unnamed"><tspan y="37.688016" x="78.117778"> </tspan></text>
<text fill="#ffffff" xml:space="preserve" transform="matrix(.3597664 0 0 .35976536 156.96013 255.4088)" font-size="14" font-family="Unnamed"><tspan y="53.688016" x="25.177004 37.034944 45.364915 53.876878">Mode</tspan></text>
<text fill="#ffffff" xml:space="preserve" transform="matrix(.3597664 0 0 .35976536 156.96013 255.4088)" font-size="14" font-family="Unnamed"><tspan y="53.688016" x="61.128847">?</tspan></text>
<path transform="matrix(.35976536,0,0,.35976536,173.73349,214.78607)" stroke-width="2" stroke-linecap="butt" stroke-miterlimit="4" stroke-linejoin="miter" fill="none" stroke="#333333" d="M0 0V63.040609"/>
<path transform="matrix(.000000000000000022029274,.35976536,-.35976536,.000000000000000022029274,173.73349,241.12895)" d="M-12.727273-7.5454547 0 0-12.727273 7.5454547V-7.5454547Z" fill="#333333"/>
<path transform="matrix(.35976536,0,0,.35976536,9.298454,248.72057)" d="M8 0H155.16292C156.22379 0 157.24427 .20298788 158.22438 .60896369 159.2045 1.0149394 160.06963 1.593 160.81977 2.3431457 161.5699 3.0932909 162.14797 3.9584196 162.55394 4.938532 162.95993 5.9186446 163.16292 6.9391338 163.16292 8V108.54494C163.16292 109.6058 162.95993 110.62628 162.55394 111.60639 162.14797 112.5865 161.5699 113.45163 160.81977 114.20178 160.06963 114.95193 159.2045 115.52998 158.22438 115.93596 157.24427 116.341938 156.22379 116.54493 155.16292 116.54494H8C6.9391338 116.54493 5.9186446 116.341938 4.938532 115.93596 3.9584196 115.52998 3.0932909 114.95193 2.3431457 114.20178 1.593 113.45163 1.0149394 112.586498 .60896369 111.606388 .20298788 110.62628 0 109.6058 0 108.54494V8C0 6.9391338 .20298788 5.9186446 .60896369 4.938532 1.0149394 3.9584196 1.593 3.0932909 2.3431457 2.3431457 3.0932909 1.593 3.9584196 1.0149394 4.938532 .60896369 5.9186446 .20298788 6.9391338 0 8 0Z" fill="#ffdd33"/>
<text fill="#333333" xml:space="preserve" transform="matrix(.35976625 0 0 .35976536 15.054665 254.4768)" font-size="14" font-family="Unnamed"><tspan y="32.27247" x="39.233495 48.76746 55.29143 63.145406 66.50539">Use K</tspan></text>
<text fill="#333333" xml:space="preserve" transform="matrix(.35976625 0 0 .35976536 15.054665 254.4768)" font-size="14" font-family="Unnamed"><tspan y="32.27247" x="75.17134">8</tspan></text>
<text fill="#333333" xml:space="preserve" transform="matrix(.35976625 0 0 .35976536 15.054665 254.4768)" font-size="14" font-family="Unnamed"><tspan y="32.27247" x="83.487308">S</tspan></text>
<text fill="#333333" xml:space="preserve" transform="matrix(.35976625 0 0 .35976536 15.054665 254.4768)" font-size="14" font-family="Unnamed"><tspan y="32.27247" x="91.929279"> </tspan></text>
<text fill="#333333" xml:space="preserve" transform="matrix(.3597663 0 0 .35976536 15.054681 254.4768)" font-size="14" font-family="Unnamed"><tspan y="48.27247" x="21.159504 27.571476 32.513463 41.025426 44.28742 52.407384 55.669378 63.78934 72.28729 82.33925 85.60124 88.863239 96.71721">TrainingClien</tspan></text>
<text fill="#333333" xml:space="preserve" transform="matrix(.3597663 0 0 .35976536 15.054681 254.4768)" font-size="14" font-family="Unnamed"><tspan y="48.27247" x="104.725177">t</tspan></text>
<text fill="#333333" xml:space="preserve" transform="matrix(.3597663 0 0 .35976536 15.054681 254.4768)" font-size="14" font-family="Unnamed"><tspan y="48.27247" x="110.00316"> </tspan></text>
<text fill="#333333" xml:space="preserve" transform="matrix(.35976608 0 0 .35976536 15.054672 254.4768)" font-size="14" font-family="Unnamed"><tspan y="64.27247" x="39.72349">(</tspan></text>
<text fill="#333333" xml:space="preserve" transform="matrix(.35976608 0 0 .35976536 15.054672 254.4768)" font-size="14" font-family="Unnamed"><tspan y="64.27247" x="43.657484 50.069456 55.01144 63.523405 66.7854 74.905368 82.75934">Trainer</tspan></text>
<text fill="#333333" xml:space="preserve" transform="matrix(.35976608 0 0 .35976536 15.054672 254.4768)" font-size="14" font-family="Unnamed"><tspan y="64.27247" x="87.505329">)</tspan></text>
</g>
<g clip-path="url(#clip_4)">
<g clip-path="url(#clip_5)">
<g clip-path="url(#clip_6)">
<g clip-path="url(#clip_7)">
<path transform="matrix(.35976536,0,0,.35976536,67.99635,269.68516)" stroke-width="2" stroke-linecap="butt" stroke-miterlimit="4" stroke-linejoin="miter" fill="none" stroke="#333333" d="M200.6634 0H10.181818"/>
</g>
</g>
</g>
</g>
<g clip-path="url(#clip_8)">
<path transform="matrix(-.35976536,.000000000000000044058549,-.000000000000000044058549,-.35976536,67.99635,269.68516)" d="M-12.727273-7.5454547 0 0-12.727273 7.5454547V-7.5454547Z" fill="#333333"/>
<text fill="#333333" xml:space="preserve" transform="matrix(.46255676 0 0 .46255545 94.59115 265.0596)" font-size="14" font-family="NotoSans"><tspan y="14" x=".44802857 10.667984 18.56395 23.379929 31.233902 39.885866 43.49785">Default</tspan></text>
<path transform="matrix(.35976536,0,0,.35976536,144.38455,345.24916)" d="M8 0H155.16292C156.22379 0 157.24427 .20298788 158.22438 .60896369 159.2045 1.0149394 160.06963 1.593 160.81977 2.3431457 161.5699 3.0932909 162.14797 3.9584196 162.55394 4.938532 162.95993 5.9186446 163.16292 6.9391338 163.16292 8V108.54494C163.16292 109.6058 162.95993 110.62628 162.55394 111.60639 162.14797 112.5865 161.5699 113.45163 160.81977 114.20178 160.06963 114.95193 159.2045 115.52998 158.22438 115.93596 157.24427 116.341938 156.22379 116.54493 155.16292 116.54494H8C6.9391338 116.54493 5.9186446 116.341938 4.938532 115.93596 3.9584196 115.52998 3.0932909 114.95193 2.3431457 114.20178 1.593 113.45163 1.0149394 112.586498 .60896369 111.606388 .20298788 110.62628 0 109.6058 0 108.54494V8C0 6.9391338 .20298788 5.9186446 .60896369 4.938532 1.0149394 3.9584196 1.593 3.0932909 2.3431457 2.3431457 3.0932909 1.593 3.9584196 1.0149394 4.938532 .60896369 5.9186446 .20298788 6.9391338 0 8 0Z" fill="#ffdd33"/>
<text fill="#2c2e33" xml:space="preserve" transform="matrix(.3611477 0 0 .35976536 150.11359 351.00538)" font-size="14" font-family="Unnamed"><tspan y="40.27247" x="19.682522 29.216488 35.74046 43.594434 46.95442 56.992368 65.32234">Use Con</tspan></text>
<text fill="#2c2e33" xml:space="preserve" transform="matrix(.3611477 0 0 .35976536 150.11359 351.00538)" font-size="14" font-family="Unnamed"><tspan y="40.27247" x="73.33031">t</tspan></text>
<text fill="#2c2e33" xml:space="preserve" transform="matrix(.3611477 0 0 .35976536 150.11359 351.00538)" font-size="14" font-family="Unnamed"><tspan y="40.27247" x="78.538288 87.05025 90.31224 98.432209 106.28618">ainer</tspan></text>
<text fill="#2c2e33" xml:space="preserve" transform="matrix(.3611477 0 0 .35976536 150.11359 351.00538)" font-size="14" font-family="Unnamed"><tspan y="40.27247" x="111.116168"> </tspan></text>
<text fill="#2c2e33" xml:space="preserve" transform="matrix(.36166898 0 0 .35976536 150.09954 351.00538)" font-size="14" font-family="Unnamed"><tspan y="56.27247" x="21.670514 30.434475 38.946439 45.47041 53.324384 61.836347 64.73433 71.1463 76.08829 84.60025 87.86224 95.98221 103.83618">Based Trainer</tspan></text>
</g>
<g clip-path="url(#clip_9)">
<g clip-path="url(#clip_10)">
<g clip-path="url(#clip_11)">
<g clip-path="url(#clip_12)">
<path transform="matrix(.35976536,0,0,.35976536,173.73349,298.23988)" stroke-width="2" stroke-linecap="butt" stroke-miterlimit="4" stroke-linejoin="miter" fill="none" stroke="#333333" d="M.00000000000011368683 0V65.32567C.00000000000011368683 65.32567 .00000000000009473903 65.32567 .00000000000005684342 65.32567 .000000000000018947806 65.32567 0 65.32567 0 65.32567V120.46951"/>
</g>
</g>
</g>
</g>
<g clip-path="url(#clip_13)">
<path transform="matrix(.000000000000000022029274,.35976536,-.35976536,.000000000000000022029274,173.73349,345.2437)" d="M-12.727273-7.5454547 0 0-12.727273 7.5454547V-7.5454547Z" fill="#333333"/>
<text fill="#333333" xml:space="preserve" transform="matrix(.4625568 0 0 .46255545 162.63216 311.02626)" font-size="14" font-family="NotoSans"><tspan y="14" x=".7180252 10.937981 19.407952 26.127923 33.60389 41.499856">Docker</tspan></text>
<path transform="matrix(.35976536,0,0,.35976536,140.18863,23.040087)" d="M57.27247 0H129.19944C131.07518 0 132.9464 .09192753 134.81311 .2757826 136.67983 .45963765 138.53304 .73453488 140.37273 1.1004744 142.21244 1.466414 144.02977 1.9216335 145.82476 2.4661334 147.61974 3.010633 149.3837 3.6417909 151.11666 4.3596069 152.84961 5.077423 154.54323 5.8784415 156.1975 6.762661 157.85175 7.6468808 159.45868 8.610044 161.0183 9.652151 162.57791 10.694259 164.08272 11.810293 165.53272 13.000253 166.98268 14.190212 168.37084 15.448367 169.69718 16.774718 171.02353 18.10107 172.28168 19.489232 173.47162 20.9392 174.66159 22.38917 175.77764 23.893967 176.81974 25.453589 177.86183 27.013215 178.82501 28.620156 179.70925 30.274413 180.59345 31.928669 181.39446 33.62228 182.11228 35.35524 182.83011 37.088209 183.46128 38.852178 184.00576 40.64715 184.55027 42.44212 185.00548 44.259458 185.37142 46.09916 185.73737 47.938867 186.01226 49.792078 186.1961 51.658788 186.37998 53.525499 186.47191 55.396726 186.4719 57.27247V59.27247C186.47191 61.148214 186.37998 63.019445 186.19612 64.886157 186.01227 66.75286 185.73737 68.606067 185.37142 70.44576 185.00548 72.28547 184.55027 74.102809 184.00577 75.89778 183.46128 77.69276 182.83011 79.456729 182.11228 81.18968 181.39446 82.922649 180.59345 84.61626 179.70923 86.270519 178.825 87.924777 177.86183 89.531719 176.8197 91.09133 175.7776 92.65096 174.66158 94.15576 173.47162 95.605739 172.28168 97.05571 171.02353 98.44387 169.69718 99.77022 168.37084 101.09657 166.98267 102.35473 165.5327 103.544689 164.08272 104.73464 162.57791 105.85067 161.0183 106.89277 159.45868 107.93488 157.85173 108.89805 156.19748 109.782268 154.54323 110.66649 152.84961 111.46751 151.11666 112.18532 149.3837 112.90314 147.61974 113.5343 145.82474 114.078807 144.02977 114.62331 142.21242 115.07852 140.37271 115.44446 138.53302 115.8104 136.67983 116.0853 134.81311 116.26915 132.9464 116.45301 131.07518 116.54494 129.19944 116.54494H57.27247C55.396726 116.54494 53.525499 116.45301 51.658788 116.26916 49.792078 116.0853 47.938867 115.8104 46.09916 115.44446 44.259458 115.07852 42.44212 114.62331 40.64715 114.078807 38.852178 113.5343 37.088209 112.90314 35.355245 112.18532 33.622285 111.46751 31.928673 110.66649 30.274416 109.782268 28.620158 108.89805 27.013216 107.93488 25.45359 106.89277 23.893967 105.85067 22.38917 104.73464 20.939202 103.544689 19.489232 102.35473 18.10107 101.09657 16.774718 99.77022 15.448367 98.44387 14.190212 97.05571 13.000253 95.605739 11.810293 94.15577 10.694259 92.65097 9.652151 91.09135 8.610044 89.53172 7.64688 87.92478 6.7626607 86.270519 5.878441 84.61626 5.077423 82.922649 4.3596069 81.18968 3.6417909 79.456729 3.010633 77.69276 2.4661334 75.89778 1.9216335 74.102809 1.466414 72.28547 1.1004744 70.44576 .73453488 68.606067 .45963765 66.75286 .2757826 64.88615 .09192753 63.01944 0 61.148214 0 59.27247V57.27247C0 55.396726 .09192753 53.525499 .2757826 51.658788 .45963765 49.792078 .73453488 47.938867 1.1004744 46.09916 1.466414 44.259458 1.9216335 42.44212 2.4661334 40.64715 3.010633 38.852178 3.6417909 37.088209 4.3596069 35.355245 5.077423 33.622285 5.8784415 31.928673 6.762661 30.274416 7.6468808 28.620158 8.610044 27.013216 9.652151 25.45359 10.694259 23.893967 11.810293 22.38917 13.000253 20.939202 14.190212 19.489232 15.448367 18.10107 16.774718 16.774718 18.10107 15.448367 19.489232 14.190212 20.9392 13.000253 22.38917 11.810293 23.893967 10.694259 25.453589 9.652151 27.013215 8.610044 28.620156 7.64688 30.274413 6.7626607 31.928669 5.878441 33.62228 5.077423 35.35524 4.3596069 37.088209 3.6417909 38.852178 3.010633 40.64715 2.4661334 42.44212 1.9216335 44.259458 1.466414 46.09916 1.1004744 47.938867 .73453488 49.792078 .45963765 51.658788 .2757826 53.525499 .09192753 55.396726 0 57.27247 0Z" fill="#aba3ff"/>
<text fill="#333333" xml:space="preserve" transform="matrix(.35976643 0 0 .35976536 145.94483 28.796332)" font-size="14" font-family="Unnamed"><tspan y="48.27247" x="61.56297">S</tspan></text>
<text fill="#333333" xml:space="preserve" transform="matrix(.35976643 0 0 .35976536 145.94483 28.796332)" font-size="14" font-family="Unnamed"><tspan y="48.27247" x="69.976947">t</tspan></text>
<text fill="#333333" xml:space="preserve" transform="matrix(.35976643 0 0 .35976536 145.94483 28.796332)" font-size="14" font-family="Unnamed"><tspan y="48.27247" x="75.18492">a</tspan></text>
<text fill="#333333" xml:space="preserve" transform="matrix(.35976643 0 0 .35976536 145.94483 28.796332)" font-size="14" font-family="Unnamed"><tspan y="48.27247" x="83.696887">1</tspan></text>
<path transform="matrix(.35976536,0,0,.35976536,173.73349,64.9693)" stroke-width="2" stroke-linecap="butt" stroke-miterlimit="4" stroke-linejoin="miter" fill="none" stroke="#333333" d="M0 0V44.068384C0 44.068384 .000000000000018947806 44.068384 .00000000000005684342 44.068384 .00000000000009473903 44.068384 .00000000000011368683 44.068384 .00000000000011368683 44.068384V77.95495"/>
<path transform="matrix(.000000000000000022029274,.35976536,-.35976536,.000000000000000022029274,173.73349,96.67786)" d="M-12.727273-7.5454547 0 0-12.727273 7.5454547V-7.5454547Z" fill="#333333"/>
</g>
</svg>
