<svg xmlns="http://www.w3.org/2000/svg" xmlns:xlink="http://www.w3.org/1999/xlink" xmlns:inkscape="http://www.inkscape.org/namespaces/inkscape" version="1.1" width="630.95999" height="570.95999" viewBox="0 0 630.95999 570.95999">
<defs>
<clipPath id="clip_0">
<path transform="matrix(.24,0,0,.24,0,0)" d="M0 0H2629.1666V2376.242H0Z" clip-rule="evenodd"/>
</clipPath>
<clipPath id="clip_1">
<path transform="matrix(.24,0,0,.24,0,0)" d="M0 0H2629.1666V2376.242H0Z" clip-rule="evenodd"/>
</clipPath>
<clipPath id="clip_2">
<path transform="matrix(.24,0,0,.24,0,0)" d="M0 0H2629.1634V2376.242H0Z" clip-rule="evenodd"/>
</clipPath>
<clipPath id="clip_3">
<path transform="matrix(.24,0,0,.24,0,0)" d="M0 0H2629.1666V2376.242H0Z" clip-rule="evenodd"/>
</clipPath>
<clipPath id="clip_4">
<path transform="matrix(.24,0,0,.24,0,0)" d="M0 0H2629.1666V2376.242H0Z"/>
</clipPath>
<clipPath id="clip_5">
<path transform="matrix(.24,0,0,.24,0,0)" d="M0 0H2629.1666V2382.4869H0Z"/>
</clipPath>
<clipPath id="clip_6">
<path transform="matrix(.24,0,0,.24,0,0)" d="M874.715 899.2188H2152.0809V2057.6138H874.715Z"/>
</clipPath>
<clipPath id="clip_7">
<path transform="matrix(.24,0,0,.24,0,0)" d="M874.715 977.127H900.1196V1019.09317H874.715M874.715 899.2188H2152.0809V2057.0233H874.715" clip-rule="evenodd"/>
</clipPath>
<clipPath id="clip_8">
<path transform="matrix(.24,0,0,.24,0,0)" d="M0 0H2629.1666V2376.242H0Z" clip-rule="evenodd"/>
</clipPath>
<clipPath id="clip_9">
<path transform="matrix(.24,0,0,.24,0,0)" d="M0 0H2629.1666V2376.242H0Z"/>
</clipPath>
<clipPath id="clip_10">
<path transform="matrix(.24,0,0,.24,0,0)" d="M0 0H2629.1666V2382.4869H0Z"/>
</clipPath>
<clipPath id="clip_11">
<path transform="matrix(.24,0,0,.24,0,0)" d="M259.1715 779.0337H1536.5374V1937.4287H259.1715Z"/>
</clipPath>
<clipPath id="clip_12">
<path transform="matrix(.24,0,0,.24,0,0)" d="M490.88096 779.0337H532.82559V801.531H490.88096M259.1715 779.0337H1536.5374V1936.8381H259.1715" clip-rule="evenodd"/>
</clipPath>
<clipPath id="clip_13">
<path transform="matrix(.24,0,0,.24,0,0)" d="M0 0H2629.1666V2376.242H0Z" clip-rule="evenodd"/>
</clipPath>
<clipPath id="clip_14">
<path transform="matrix(.24,0,0,.24,0,0)" d="M0 0H2629.1666V2376.242H0Z"/>
</clipPath>
<clipPath id="clip_15">
<path transform="matrix(.24,0,0,.24,0,0)" d="M0 0H2629.1666V2382.4869H0Z"/>
</clipPath>
<clipPath id="clip_16">
<path transform="matrix(.24,0,0,.24,0,0)" d="M1015.82199 315.10118H2293.1878V2213.9605H1015.82199Z"/>
</clipPath>
<clipPath id="clip_17">
<path transform="matrix(.24,0,0,.24,0,0)" d="M1111.6868 1695.9385H1159.4691V1737.9046H1111.6868M1015.82199 315.10118H2293.1878V2212.522H1015.82199" clip-rule="evenodd"/>
</clipPath>
<clipPath id="clip_18">
<path transform="matrix(.24,0,0,.24,0,0)" d="M0 0H2629.1666V2376.242H0Z" clip-rule="evenodd"/>
</clipPath>
<clipPath id="clip_19">
<path transform="matrix(.24,0,0,.24,0,0)" d="M0 0H2629.1666V2376.242H0Z"/>
</clipPath>
<clipPath id="clip_20">
<path transform="matrix(.24,0,0,.24,0,0)" d="M0 0H2629.1666V2382.4869H0Z"/>
</clipPath>
<clipPath id="clip_21">
<path transform="matrix(.24,0,0,.24,0,0)" d="M2060.3692 1954.0797H3337.7349V3112.4747H2060.3692Z"/>
</clipPath>
<clipPath id="clip_22">
<path transform="matrix(.24,0,0,.24,0,0)" d="M2128.4854 1954.0797H2176.2677V1976.577H2128.4854M2060.3692 1954.0797H3337.7349V3111.884H2060.3692" clip-rule="evenodd"/>
</clipPath>
<clipPath id="clip_23">
<path transform="matrix(.24,0,0,.24,0,0)" d="M0 0H2629.1666V2376.242H0Z" clip-rule="evenodd"/>
</clipPath>
<clipPath id="clip_24">
<path transform="matrix(.24,0,0,.24,0,0)" d="M0 0H2629.1666V2376.242H0Z"/>
</clipPath>
<clipPath id="clip_25">
<path transform="matrix(.24,0,0,.24,0,0)" d="M0 0H2629.1666V2382.4869H0Z"/>
</clipPath>
<clipPath id="clip_26">
<path transform="matrix(.24,0,0,.24,0,0)" d="M1909.0204 2044.9293H3186.3863V3203.3243H1909.0204Z"/>
</clipPath>
<clipPath id="clip_27">
<path transform="matrix(.24,0,0,.24,0,0)" d="M1909.0204 2085.949H1931.5062V2127.915H1909.0204M1909.0204 2044.9293H3186.3863V3202.7337H1909.0204" clip-rule="evenodd"/>
</clipPath>
<clipPath id="clip_28">
<path transform="matrix(.24,0,0,.24,0,0)" d="M0 0H2629.1666V2376.242H0Z" clip-rule="evenodd"/>
</clipPath>
<clipPath id="clip_29">
<path transform="matrix(.24,0,0,.24,0,0)" d="M0 0H2629.1666V2376.242H0Z"/>
</clipPath>
<clipPath id="clip_30">
<path transform="matrix(.24,0,0,.24,0,0)" d="M0 0H2629.1666V2382.4869H0Z"/>
</clipPath>
<clipPath id="clip_31">
<path transform="matrix(.24,0,0,.24,0,0)" d="M872.7478 1835.6128H2150.1136V2994.0079H872.7478Z"/>
</clipPath>
<clipPath id="clip_32">
<path transform="matrix(.24,0,0,.24,0,0)" d="M872.7478 1898.2986H897.1782V1940.2648H872.7478M872.7478 1835.6128H2150.1136V2993.417H872.7478" clip-rule="evenodd"/>
</clipPath>
<clipPath id="clip_33">
<path transform="matrix(.24,0,0,.24,0,0)" d="M0 0H2629.1666V2376.242H0Z" clip-rule="evenodd"/>
</clipPath>
</defs>
<g clip-path="url(#clip_0)">
<path transform="matrix(.7494061,0,0,.7494061,0,0)" d="M0 0H842V763H0Z" fill="#ffffff"/>
</g>
<g clip-path="url(#clip_1)">
<path transform="matrix(.7494061,0,0,.74979,0,0)" d="M0 0H842V762.6094H0Z" fill="#f2f2f2"/>
</g>
<g clip-path="url(#clip_2)">
<path transform="matrix(.3632315,0,0,.36341835,0,0)" d="M0 0H1737.1819V1573.3884H0Z" fill="#ffffff"/>
</g>
<g clip-path="url(#clip_3)">
<path transform="matrix(.363232,0,0,.363418,4.8111875,169.52753)" d="M49 0H111C112.60481 0 114.20576 .07864945 115.80284 .23594837 117.399929 .3932473 118.98545 .6284382 120.559429 .9415211 122.1334 1.2546041 123.68824 1.6440714 125.22395 2.1099232 126.75965 2.5757752 128.26883 3.115768 129.75148 3.7299023 131.23415 4.344037 132.68314 5.0293557 134.09845 5.7858579 135.51377 6.5423595 136.8886 7.3664028 138.22295 8.257987 139.5573 9.149572 140.84474 10.104405 142.08527 11.122486 143.32579 12.140568 144.51345 13.216994 145.64823 14.351767 146.783 15.486539 147.85944 16.674193 148.87752 17.914727 149.8956 19.155262 150.85042 20.442706 151.74199 21.777056 152.63358 23.111409 153.45763 24.486243 154.21413 25.901558 154.97064 27.316874 155.65596 28.765858 156.27008 30.248509 156.88422 31.73116 157.42421 33.240339 157.89008 34.776048 158.35591 36.311758 158.74538 37.866598 159.05846 39.44057 159.37155 41.01455 159.60674 42.60008 159.76404 44.197164 159.92136 45.794248 160.00002 47.39519 160 49V51C160.00002 52.60481 159.92136 54.205759 159.76404 55.802839 159.60674 57.399919 159.37155 58.985448 159.05846 60.559419 158.74538 62.133398 158.35591 63.68824 157.89008 65.22395 157.42421 66.75965 156.88422 68.26883 156.27008 69.75148 155.65596 71.23414 154.97064 72.68312 154.21413 74.098438 153.45763 75.51375 152.63358 76.88858 151.74199 78.22293 150.85042 79.55729 149.89559 80.844738 148.8775 82.08527 147.85942 83.325809 146.783 84.51346 145.64823 85.648227 144.51345 86.783 143.32579 87.85943 142.08527 88.8775 140.84473 89.89558 139.55728 90.85041 138.22293 91.74199 136.8886 92.63358 135.51377 93.45763 134.09844 94.21413 132.6831 94.970638 131.23412 95.65596 129.75147 96.27009 128.26882 96.88423 126.75964 97.424228 125.22394 97.89007 123.68823 98.35593 122.13339 98.74539 120.55942 99.05847 118.98545 99.37156 117.399929 99.60675 115.80284 99.76405 114.20576 99.92135 112.60481 100 111 100H49C47.39519 100 45.794248 99.92135 44.197164 99.76405 42.60008 99.60675 41.01455 99.37156 39.44057 99.05847 37.866598 98.74539 36.311758 98.35593 34.776048 97.89007 33.240339 97.42422 31.73116 96.884227 30.248509 96.27008 28.765858 95.65595 27.316874 94.970638 25.901558 94.214138 24.486243 93.45763 23.111409 92.63358 21.777058 91.742 20.442706 90.85042 19.155262 89.895587 17.914729 88.8775 16.674193 87.85943 15.486539 86.783 14.351767 85.648227 13.216994 84.51346 12.140568 83.325809 11.122487 82.08527 10.104406 80.844738 9.149572 79.55729 8.257987 78.22293 7.3664028 76.88858 6.5423595 75.51375 5.7858579 74.098438 5.0293557 72.68312 4.344037 71.23414 3.7299023 69.75148 3.115768 68.26883 2.5757752 66.75965 2.1099232 65.22395 1.6440714 63.68824 1.2546041 62.133398 .9415211 60.55942 .6284382 58.98545 .3932473 57.39992 .23594837 55.80284 .07864945 54.205759 0 52.60481 0 51V49C0 47.39519 .07864945 45.794248 .23594837 44.197164 .3932473 42.60008 .6284382 41.01455 .9415211 39.44057 1.2546041 37.866598 1.6440714 36.311758 2.1099232 34.776048 2.5757752 33.240339 3.115768 31.73116 3.7299023 30.248509 4.344037 28.765858 5.0293557 27.316874 5.7858579 25.901558 6.5423595 24.486243 7.3664028 23.111409 8.257987 21.777058 9.149572 20.442706 10.104405 19.155262 11.122486 17.914729 12.140568 16.674193 13.216994 15.486539 14.351767 14.351767 15.486539 13.216994 16.674193 12.140568 17.914727 11.122487 19.155262 10.104406 20.442706 9.149572 21.777056 8.257987 23.111409 7.3664028 24.486243 6.5423595 25.901558 5.7858579 27.316874 5.0293557 28.765858 4.344037 30.248509 3.7299023 31.73116 3.115768 33.240339 2.5757752 34.776048 2.1099232 36.311758 1.6440714 37.866598 1.2546041 39.44057 .9415211 41.01455 .6284382 42.60008 .3932473 44.197164 .23594837 45.794248 .07864945 47.39519 0 49 0Z" fill="#aba3ff"/>
<text fill="#1a1a1a" xml:space="preserve" transform="matrix(.36476744 0 0 .363418 10.591054 175.34221)" font-size="14" font-family="Unnamed"><tspan y="40" x="20.740067 28.636033 33.830018 38.757997 47.087968 51.917955 55.27794 63.7899 71.90987 80.42183 83.781818">Error and E</tspan></text>
<text fill="#1a1a1a" xml:space="preserve" transform="matrix(.36476744 0 0 .363418 10.591054 175.34221)" font-size="14" font-family="Unnamed"><tspan y="40" x="91.78978">x</tspan></text>
<text fill="#1a1a1a" xml:space="preserve" transform="matrix(.36476744 0 0 .363418 10.591054 175.34221)" font-size="14" font-family="Unnamed"><tspan y="40" x="98.35576">i</tspan></text>
<text fill="#1a1a1a" xml:space="preserve" transform="matrix(.36476744 0 0 .363418 10.591054 175.34221)" font-size="14" font-family="Unnamed"><tspan y="40" x="101.61775">t</tspan></text>
<path transform="matrix(.363232,0,0,.363418,176.7849,158.8505)" d="M46.617975 39.688016 88.05 4.4150326C88.773548 3.799049 89.5812 3.3269642 90.47296 2.9987777 91.364719 2.6705909 92.28571 2.5064975 93.235958 2.5064975 94.18619 2.5064975 95.10719 2.6705907 95.998958 2.9987775 96.89072 3.3269642 97.698368 3.799049 98.4219 4.4150326L179.31679 73.28457C179.75788 73.66008 180.15349 74.07856 180.50365 74.540019 180.85384 75.00147 181.15039 75.49514 181.39333 76.02101 181.63626 76.54688 181.8199 77.0927 181.94426 77.65847 182.06864 78.22423 182.13083 78.79675 182.13083 79.37603 182.13083 79.95531 182.06864 80.527828 181.94426 81.09359 181.81989 81.659358 181.63625 82.20518 181.39331 82.73105 181.15038 83.25692 180.85382 83.75059 180.50365 84.21204 180.15349 84.6735 179.75788 85.09199 179.31679 85.4675L98.4219 154.33704C97.698368 154.95302 96.89072 155.42511 95.998958 155.7533 95.10719 156.08148 94.186199 156.24558 93.23596 156.24558 92.28573 156.24558 91.36473 156.08148 90.47296 155.7533 89.5812 155.42511 88.77355 154.95302 88.05 154.33704L7.1551039 85.4675C6.714024 85.09199 6.318397 84.67351 5.9682238 84.21206 5.6180498 83.7506 5.3214948 83.256938 5.078559 82.73106 4.8356235 82.205188 4.651971 81.65937 4.5276029 81.0936 4.4032347 80.527828 4.34105 79.95531 4.3410508 79.37603 4.34105 78.79675 4.4032347 78.224239 4.5276029 77.65847 4.651971 77.092708 4.835623 76.54688 5.0785586 76.02101 5.3214948 75.49514 5.6180498 75.00147 5.9682238 74.540019 6.318397 74.07856 6.714024 73.66008 7.1551039 73.28457L46.617975 39.688016Z" fill="#2c2e33"/>
<path transform="matrix(.363232,0,0,.363418,176.7849,158.8505)" stroke-width="2" stroke-linecap="round" stroke-linejoin="round" fill="none" stroke="#1a1a1a" d="M46.617975 39.688016 88.05 4.4150326C88.773548 3.799049 89.5812 3.3269642 90.47296 2.9987777 91.364719 2.6705909 92.28571 2.5064975 93.235958 2.5064975 94.18619 2.5064975 95.10719 2.6705907 95.998958 2.9987775 96.89072 3.3269642 97.698368 3.799049 98.4219 4.4150326L179.31679 73.28457C179.75788 73.66008 180.15349 74.07856 180.50365 74.540019 180.85384 75.00147 181.15039 75.49514 181.39333 76.02101 181.63626 76.54688 181.8199 77.0927 181.94426 77.65847 182.06864 78.22423 182.13083 78.79675 182.13083 79.37603 182.13083 79.95531 182.06864 80.527828 181.94426 81.09359 181.81989 81.659358 181.63625 82.20518 181.39331 82.73105 181.15038 83.25692 180.85382 83.75059 180.50365 84.21204 180.15349 84.6735 179.75788 85.09199 179.31679 85.4675L98.4219 154.33704C97.698368 154.95302 96.89072 155.42511 95.998958 155.7533 95.10719 156.08148 94.186199 156.24558 93.23596 156.24558 92.28573 156.24558 91.36473 156.08148 90.47296 155.7533 89.5812 155.42511 88.77355 154.95302 88.05 154.33704L7.1551039 85.4675C6.714024 85.09199 6.318397 84.67351 5.9682238 84.21206 5.6180498 83.7506 5.3214948 83.256938 5.078559 82.73106 4.8356235 82.205188 4.651971 81.65937 4.5276029 81.0936 4.4032347 80.527828 4.34105 79.95531 4.3410508 79.37603 4.34105 78.79675 4.4032347 78.224239 4.5276029 77.65847 4.651971 77.092708 4.835623 76.54688 5.0785586 76.02101 5.3214948 75.49514 5.6180498 75.00147 5.9682238 74.540019 6.318397 74.07856 6.714024 73.66008 7.1551039 73.28457L46.617975 39.688016Z"/>
<text fill="#ffffff" xml:space="preserve" transform="matrix(.36323298 0 0 .363418 193.718 173.27385)" font-size="14" font-family="Unnamed"><tspan y="45.688016" x="18.198008 26.555979 29.817973 37.937936 46.449899 49.809885 60.673837">Ping Ok</tspan></text>
<text fill="#ffffff" xml:space="preserve" transform="matrix(.36323298 0 0 .363418 193.718 173.27385)" font-size="14" font-family="Unnamed"><tspan y="45.688016" x="68.10781">?</tspan></text>
</g>
<g clip-path="url(#clip_4)">
<g clip-path="url(#clip_5)">
<g clip-path="url(#clip_6)">
<g clip-path="url(#clip_7)">
<path transform="matrix(.363232,0,0,.363418,210.65807,216.53936)" stroke-width="2" stroke-linecap="butt" stroke-miterlimit="4" stroke-linejoin="miter" fill="none" stroke="#333333" d="M0 0V144.82598"/>
</g>
</g>
</g>
</g>
<g clip-path="url(#clip_8)">
<path transform="matrix(.000000000000000022241544,.363418,-.363232,.000000000000000022252937,210.65807,272.87199)" d="M-12.727273-7.5454547 0 0-12.727273 7.5454547V-7.5454547Z" fill="#333333"/>
<text fill="#333333" xml:space="preserve" transform="matrix(.46701417 0 0 .46725173 205.28742 235.23729)" font-size="14" font-family="NotoSans"><tspan y="14" x=".5870056 7.810974 15.70694">Yes</tspan></text>
</g>
<g clip-path="url(#clip_9)">
<g clip-path="url(#clip_10)">
<g clip-path="url(#clip_11)">
<g clip-path="url(#clip_12)">
<path transform="matrix(.363232,0,0,.363418,62.927629,187.69492)" stroke-width="2" stroke-linecap="butt" stroke-miterlimit="4" stroke-linejoin="miter" fill="none" stroke="#333333" d="M313.45899 0H10.181818"/>
</g>
</g>
</g>
</g>
<g clip-path="url(#clip_13)">
<path transform="matrix(-.363232,.000000000000000044505875,-.000000000000000044483088,-.363418,62.927629,187.69492)" d="M-12.727273-7.5454547 0 0-12.727273 7.5454547V-7.5454547Z" fill="#333333"/>
<text fill="#333333" xml:space="preserve" transform="matrix(.46701408 0 0 .46725173 118.537899 183.02242)" font-size="14" font-family="NotoSans"><tspan y="14" x=".44500733 11.084961">No</tspan></text>
<path transform="matrix(.363232,0,0,.363418,52.653276,300.81575)" d="M8 0H152C153.06085 0 154.08133 .20298788 155.06145 .60896369 156.04157 1.0149394 156.9067 1.593 157.65685 2.3431457 158.40699 3.0932909 158.98503 3.9584196 159.39102 4.938532 159.797 5.9186446 159.99999 6.9391338 160 8V112C159.99999 113.06086 159.797 114.08135 159.39102 115.06146 158.98503 116.041568 158.40699 116.90669 157.65685 117.656848 156.9067 118.40699 156.04157 118.98505 155.06145 119.39102 154.08133 119.797 153.06085 119.99999 152 120H8C6.9391338 119.99999 5.9186446 119.797 4.938532 119.39102 3.9584196 118.98505 3.0932909 118.40699 2.3431457 117.656848 1.593 116.90669 1.0149394 116.041568 .60896369 115.061458 .20298788 114.081348 0 113.06086 0 112V8C0 6.9391338 .20298788 5.9186446 .60896369 4.938532 1.0149394 3.9584196 1.593 3.0932909 2.3431457 2.3431457 3.0932909 1.593 3.9584196 1.0149394 4.938532 .60896369 5.9186446 .20298788 6.9391338 0 8 0Z" fill="#659df2"/>
<path transform="matrix(.363232,0,0,.363418,52.653276,300.81575)" stroke-width="2" stroke-linecap="round" stroke-linejoin="round" fill="none" stroke="#1a1a1a" d="M8 0H152C153.06085 0 154.08133 .20298788 155.06145 .60896369 156.04157 1.0149394 156.9067 1.593 157.65685 2.3431457 158.40699 3.0932909 158.98503 3.9584196 159.39102 4.938532 159.797 5.9186446 159.99999 6.9391338 160 8V112C159.99999 113.06086 159.797 114.08135 159.39102 115.06146 158.98503 116.041568 158.40699 116.90669 157.65685 117.656848 156.9067 118.40699 156.04157 118.98505 155.06145 119.39102 154.08133 119.797 153.06085 119.99999 152 120H8C6.9391338 119.99999 5.9186446 119.797 4.938532 119.39102 3.9584196 118.98505 3.0932909 118.40699 2.3431457 117.656848 1.593 116.90669 1.0149394 116.041568 .60896369 115.061458 .20298788 114.081348 0 113.06086 0 112V8C0 6.9391338 .20298788 5.9186446 .60896369 4.938532 1.0149394 3.9584196 1.593 3.0932909 2.3431457 2.3431457 3.0932909 1.593 3.9584196 1.0149394 4.938532 .60896369 5.9186446 .20298788 6.9391338 0 8 0Z"/>
<path transform="matrix(.363232,0,0,.363418,52.653276,300.81575)" stroke-width="2" stroke-linecap="round" stroke-linejoin="round" fill="none" stroke="#1a1a1a" d="M20 0V120M140 0V120"/>
<text fill="#ffffff" xml:space="preserve" transform="matrix(.36323307 0 0 .363418 65.72961 303.72309)" font-size="14" font-family="NotoSans"><tspan y="46" x="22.475022 31.322983 36.824968 44.720933 52.574907 57.62889 65.52486">Create&#x00a0;</tspan></text>
<text fill="#ffffff" xml:space="preserve" transform="matrix(.36323319 0 0 .363418 65.72961 303.72309)" font-size="14" font-family="NotoSans"><tspan y="66" x="15.83902 26.478974 34.37494 39.428926 50.432878 58.902849 64.68483 72.1608">Network&#x00a0;</tspan></text>
<path transform="matrix(.363232,0,0,.363418,174.33435,272.87858)" d="M100 0H180C181.06085 0 182.08133 .20298788 183.06145 .60896369 184.04155 1.0149394 184.90668 1.593 185.65685 2.3431457 186.40699 3.0932909 186.98503 3.9584196 187.391 4.938532 187.79698 5.9186446 187.99999 6.9391338 188 8V12H192C193.06085 12 194.08133 12.202988 195.06145 12.608963 196.04155 13.014938 196.90668 13.5929989 197.65685 14.343144 198.40699 15.093289 198.98503 15.958419 199.391 16.938532 199.79698 17.918644 199.99999 18.939133 200 20V120C168.66667 95.4 137.33333 95.4 106 109.2 74.666667 123 43.333333 123 12 98.4V92.4L0 80.4V8C0 6.939134 .20298791 5.9186456 .6089638 4.938533 1.0149397 3.9584203 1.5930003 3.0932916 2.3431459 2.3431459 3.0932916 1.5930003 3.9584203 1.0149397 4.938533 .6089638 5.9186456 .20298791 6.939134 0 8 0H100Z" fill="#659df2"/>
<path transform="matrix(.363232,0,0,.363418,174.33435,272.87858)" stroke-width="2" stroke-linecap="round" stroke-linejoin="round" fill="none" stroke="#1a1a1a" d="M100 0H180C181.06085 0 182.08133 .20298788 183.06145 .60896369 184.04155 1.0149394 184.90668 1.593 185.65685 2.3431457 186.40699 3.0932909 186.98503 3.9584196 187.391 4.938532 187.79698 5.9186446 187.99999 6.9391338 188 8V12H192C193.06085 12 194.08133 12.202988 195.06145 12.608963 196.04155 13.014938 196.90668 13.5929989 197.65685 14.343144 198.40699 15.093289 198.98503 15.958419 199.391 16.938532 199.79698 17.918644 199.99999 18.939133 200 20V120C168.66667 95.4 137.33333 95.4 106 109.2 74.666667 123 43.333333 123 12 98.4V92.4L0 80.4V8C0 6.939134 .20298791 5.9186456 .6089638 4.938533 1.0149397 3.9584203 1.5930003 3.0932916 2.3431459 2.3431459 3.0932916 1.5930003 3.9584203 1.0149397 4.938533 .6089638 5.9186456 .20298791 6.939134 0 8 0H100Z"/>
<path transform="matrix(.363232,0,0,.363418,174.33435,272.87858)" stroke-width="2" stroke-linecap="round" stroke-linejoin="round" fill="none" stroke="#1a1a1a" d="M12 92.4V20C12 18.939135 12.202988 17.918646 12.608964 16.938534 13.014939 15.958421 13.593 15.093292 14.343146 14.343146 15.093292 13.593 15.958421 13.014939 16.938534 12.608964 17.918646 12.202988 18.939135 12 20 12H188"/>
<text fill="#ffffff" xml:space="preserve" transform="matrix(.36323307 0 0 .363418 184.50484 280.14695)" font-size="14" font-family="NotoSans"><tspan y="29.2" x="16.351059 25.19902 30.701004 38.59697 46.450944 51.50493 59.400896 63.04088 71.65085 77.15283 85.0488">Create pre-</tspan></text>
<text fill="#ffffff" xml:space="preserve" transform="matrix(.36323307 0 0 .363418 184.50484 280.14695)" font-size="14" font-family="NotoSans"><tspan y="29.2" x="89.55678"> </tspan></text>
<text fill="#ffffff" xml:space="preserve" transform="matrix(.36323307 0 0 .363418 184.50484 280.14695)" font-size="14" font-family="NotoSans"><tspan y="29.2" x="89.55678 98.16675">de</tspan></text>
<text fill="#ffffff" xml:space="preserve" transform="matrix(.36323307 0 0 .363418 184.50484 280.14695)" font-size="14" font-family="NotoSans"><tspan y="29.2" x="106.06271">&#xfb01;</tspan></text>
<text fill="#ffffff" xml:space="preserve" transform="matrix(.36323307 0 0 .363418 184.50484 280.14695)" font-size="14" font-family="NotoSans"><tspan y="29.2" x="114.49068 123.14264 131.0386 139.64858">ned&#x00a0;</tspan></text>
<text fill="#ffffff" xml:space="preserve" transform="matrix(.363233 0 0 .363418 184.5048 280.14695)" font-size="14" font-family="NotoSans"><tspan y="49.2" x="45.97503 51.477014 59.37298 66.07896 74.54893 83.20089 88.70287 95.422847 103.31881">resources</tspan></text>
<path transform="matrix(.363232,0,0,.363418,110.76971,294.68244)" stroke-width="2" stroke-linecap="butt" stroke-miterlimit="4" stroke-linejoin="miter" fill="none" stroke="#333333" d="M174.99303 0H95.49651C90.16318 0 87.49651 2.6666666 87.49651 8V68.88002C87.49651 74.213359 84.82985 76.88002 79.49651 76.88002H10.181818"/>
<path transform="matrix(-.363232,.000000000000000044505875,-.000000000000000044483088,-.363418,110.76971,322.622)" d="M-12.727273-7.5454547 0 0-12.727273 7.5454547V-7.5454547Z" fill="#333333"/>
<path transform="matrix(.363232,0,0,.363418,52.653276,391.5178)" d="M8 0H152C153.06085 0 154.08133 .20298788 155.06145 .60896369 156.04157 1.0149394 156.9067 1.593 157.65685 2.3431457 158.40699 3.0932909 158.98503 3.9584196 159.39102 4.938532 159.797 5.9186446 159.99999 6.9391338 160 8V112C159.99999 113.06086 159.797 114.08135 159.39102 115.06146 158.98503 116.041568 158.40699 116.90669 157.65685 117.656848 156.9067 118.40699 156.04157 118.98505 155.06145 119.39102 154.08133 119.797 153.06085 119.99999 152 120H8C6.9391338 119.99999 5.9186446 119.797 4.938532 119.39102 3.9584196 118.98505 3.0932909 118.40699 2.3431457 117.656848 1.593 116.90669 1.0149394 116.041568 .60896369 115.061458 .20298788 114.081348 0 113.06086 0 112V8C0 6.9391338 .20298788 5.9186446 .60896369 4.938532 1.0149394 3.9584196 1.593 3.0932909 2.3431457 2.3431457 3.0932909 1.593 3.9584196 1.0149394 4.938532 .60896369 5.9186446 .20298788 6.9391338 0 8 0Z" fill="#659df2"/>
<path transform="matrix(.363232,0,0,.363418,52.653276,391.5178)" stroke-width="2" stroke-linecap="round" stroke-linejoin="round" fill="none" stroke="#1a1a1a" d="M8 0H152C153.06085 0 154.08133 .20298788 155.06145 .60896369 156.04157 1.0149394 156.9067 1.593 157.65685 2.3431457 158.40699 3.0932909 158.98503 3.9584196 159.39102 4.938532 159.797 5.9186446 159.99999 6.9391338 160 8V112C159.99999 113.06086 159.797 114.08135 159.39102 115.06146 158.98503 116.041568 158.40699 116.90669 157.65685 117.656848 156.9067 118.40699 156.04157 118.98505 155.06145 119.39102 154.08133 119.797 153.06085 119.99999 152 120H8C6.9391338 119.99999 5.9186446 119.797 4.938532 119.39102 3.9584196 118.98505 3.0932909 118.40699 2.3431457 117.656848 1.593 116.90669 1.0149394 116.041568 .60896369 115.061458 .20298788 114.081348 0 113.06086 0 112V8C0 6.9391338 .20298788 5.9186446 .60896369 4.938532 1.0149394 3.9584196 1.593 3.0932909 2.3431457 2.3431457 3.0932909 1.593 3.9584196 1.0149394 4.938532 .60896369 5.9186446 .20298788 6.9391338 0 8 0Z"/>
<path transform="matrix(.363232,0,0,.363418,52.653276,391.5178)" stroke-width="2" stroke-linecap="round" stroke-linejoin="round" fill="none" stroke="#1a1a1a" d="M20 0V120M140 0V120"/>
<text fill="#ffffff" xml:space="preserve" transform="matrix(.36323307 0 0 .363418 65.72961 394.42518)" font-size="14" font-family="NotoSans"><tspan y="46" x="22.475022 31.322983 36.824968 44.720933 52.574907 57.62889 65.52486">Create&#x00a0;</tspan></text>
<text fill="#ffffff" xml:space="preserve" transform="matrix(.36323277 0 0 .363418 65.72961 394.42518)" font-size="14" font-family="NotoSans"><tspan y="66" x="18.464035 26.15001 31.203995 39.673967 45.17595 53.029924 61.639894">Storage</tspan></text>
<path transform="matrix(.363232,0,0,.363418,81.70775,344.4235)" stroke-width="2" stroke-linecap="butt" stroke-miterlimit="4" stroke-linejoin="miter" fill="none" stroke="#333333" d="M0 0V119.39242"/>
<path transform="matrix(.000000000000000022241544,.363418,-.363232,.000000000000000022252937,81.70775,391.51316)" d="M-12.727273-7.5454547 0 0-12.727273 7.5454547V-7.5454547Z" fill="#333333"/>
<path transform="matrix(.363232,0,0,.363418,176.7849,383.57756)" d="M46.617975 39.688016 88.05 4.4150326C88.773548 3.799049 89.5812 3.3269642 90.47296 2.9987777 91.364719 2.6705909 92.28571 2.5064975 93.235958 2.5064975 94.18619 2.5064975 95.10719 2.6705907 95.998958 2.9987775 96.89072 3.3269642 97.698368 3.799049 98.4219 4.4150326L179.31679 73.28457C179.75788 73.66008 180.15349 74.07856 180.50365 74.540019 180.85384 75.00147 181.15039 75.49514 181.39333 76.02101 181.63626 76.54688 181.8199 77.0927 181.94426 77.65847 182.06864 78.22423 182.13083 78.79675 182.13083 79.37603 182.13083 79.95531 182.06864 80.527828 181.94426 81.09359 181.81989 81.659358 181.63625 82.20518 181.39331 82.73105 181.15038 83.25692 180.85382 83.75059 180.50365 84.21204 180.15349 84.6735 179.75788 85.09199 179.31679 85.4675L98.4219 154.33704C97.698368 154.95302 96.89072 155.42511 95.998958 155.7533 95.10719 156.08148 94.186199 156.24558 93.23596 156.24558 92.28573 156.24558 91.36473 156.08148 90.47296 155.7533 89.5812 155.42511 88.77355 154.95302 88.05 154.33704L7.1551039 85.4675C6.714024 85.09199 6.318397 84.67351 5.9682238 84.21206 5.6180498 83.7506 5.3214948 83.256938 5.078559 82.73106 4.8356235 82.205188 4.651971 81.65937 4.5276029 81.0936 4.4032347 80.527828 4.34105 79.95531 4.3410508 79.37603 4.34105 78.79675 4.4032347 78.224239 4.5276029 77.65847 4.651971 77.092708 4.835623 76.54688 5.0785586 76.02101 5.3214948 75.49514 5.6180498 75.00147 5.9682238 74.540019 6.318397 74.07856 6.714024 73.66008 7.1551039 73.28457L46.617975 39.688016Z" fill="#2c2e33"/>
<path transform="matrix(.363232,0,0,.363418,176.7849,383.57756)" stroke-width="2" stroke-linecap="round" stroke-linejoin="round" fill="none" stroke="#1a1a1a" d="M46.617975 39.688016 88.05 4.4150326C88.773548 3.799049 89.5812 3.3269642 90.47296 2.9987777 91.364719 2.6705909 92.28571 2.5064975 93.235958 2.5064975 94.18619 2.5064975 95.10719 2.6705907 95.998958 2.9987775 96.89072 3.3269642 97.698368 3.799049 98.4219 4.4150326L179.31679 73.28457C179.75788 73.66008 180.15349 74.07856 180.50365 74.540019 180.85384 75.00147 181.15039 75.49514 181.39333 76.02101 181.63626 76.54688 181.8199 77.0927 181.94426 77.65847 182.06864 78.22423 182.13083 78.79675 182.13083 79.37603 182.13083 79.95531 182.06864 80.527828 181.94426 81.09359 181.81989 81.659358 181.63625 82.20518 181.39331 82.73105 181.15038 83.25692 180.85382 83.75059 180.50365 84.21204 180.15349 84.6735 179.75788 85.09199 179.31679 85.4675L98.4219 154.33704C97.698368 154.95302 96.89072 155.42511 95.998958 155.7533 95.10719 156.08148 94.186199 156.24558 93.23596 156.24558 92.28573 156.24558 91.36473 156.08148 90.47296 155.7533 89.5812 155.42511 88.77355 154.95302 88.05 154.33704L7.1551039 85.4675C6.714024 85.09199 6.318397 84.67351 5.9682238 84.21206 5.6180498 83.7506 5.3214948 83.256938 5.078559 82.73106 4.8356235 82.205188 4.651971 81.65937 4.5276029 81.0936 4.4032347 80.527828 4.34105 79.95531 4.3410508 79.37603 4.34105 78.79675 4.4032347 78.224239 4.5276029 77.65847 4.651971 77.092708 4.835623 76.54688 5.0785586 76.02101 5.3214948 75.49514 5.6180498 75.00147 5.9682238 74.540019 6.318397 74.07856 6.714024 73.66008 7.1551039 73.28457L46.617975 39.688016Z"/>
<text fill="#ffffff" xml:space="preserve" transform="matrix(.363233 0 0 .363418 193.71799 398.0009)" font-size="14" font-family="Unnamed"><tspan y="29.688017" x="21.348002">C</tspan></text>
<text fill="#ffffff" xml:space="preserve" transform="matrix(.363233 0 0 .363418 193.71799 398.0009)" font-size="14" font-family="Unnamed"><tspan y="29.688017" x="31.399958">u</tspan></text>
<text fill="#ffffff" xml:space="preserve" transform="matrix(.363233 0 0 .363418 193.71799 398.0009)" font-size="14" font-family="Unnamed"><tspan y="29.688017" x="39.51992">s</tspan></text>
<text fill="#ffffff" xml:space="preserve" transform="matrix(.363233 0 0 .363418 193.71799 398.0009)" font-size="14" font-family="Unnamed"><tspan y="29.688017" x="46.015893">t</tspan></text>
<text fill="#ffffff" xml:space="preserve" transform="matrix(.363233 0 0 .363418 193.71799 398.0009)" font-size="14" font-family="Unnamed"><tspan y="29.688017" x="51.209878 59.53985">om</tspan></text>
<text fill="#ffffff" xml:space="preserve" transform="matrix(.363233 0 0 .363418 193.71799 398.0009)" font-size="14" font-family="Unnamed"><tspan y="29.688017" x="71.887798"> </tspan></text>
<text fill="#ffffff" xml:space="preserve" transform="matrix(.36323307 0 0 .363418 193.718 398.0009)" font-size="14" font-family="Unnamed"><tspan y="45.688016" x="19.779994">R</tspan></text>
<text fill="#ffffff" xml:space="preserve" transform="matrix(.36323307 0 0 .363418 193.718 398.0009)" font-size="14" font-family="Unnamed"><tspan y="45.688016" x="28.585963">u</tspan></text>
<text fill="#ffffff" xml:space="preserve" transform="matrix(.36323307 0 0 .363418 193.718 398.0009)" font-size="14" font-family="Unnamed"><tspan y="45.688016" x="36.705926">n</tspan></text>
<text fill="#ffffff" xml:space="preserve" transform="matrix(.36323307 0 0 .363418 193.718 398.0009)" font-size="14" font-family="Unnamed"><tspan y="45.688016" x="44.71389">t</tspan></text>
<text fill="#ffffff" xml:space="preserve" transform="matrix(.36323307 0 0 .363418 193.718 398.0009)" font-size="14" font-family="Unnamed"><tspan y="45.688016" x="49.991876 53.25387 65.601818">ime</tspan></text>
<text fill="#ffffff" xml:space="preserve" transform="matrix(.36323307 0 0 .363418 193.718 398.0009)" font-size="14" font-family="Unnamed"><tspan y="45.688016" x="73.45579"> </tspan></text>
<text fill="#ffffff" xml:space="preserve" transform="matrix(.36323277 0 0 .363418 193.718 398.0009)" font-size="14" font-family="Unnamed"><tspan y="61.688016" x="14.929032 23.216996 28.144974">Pro</tspan></text>
<text fill="#ffffff" xml:space="preserve" transform="matrix(.36323277 0 0 .363418 193.718 398.0009)" font-size="14" font-family="Unnamed"><tspan y="61.688016" x="36.32094">v</tspan></text>
<text fill="#ffffff" xml:space="preserve" transform="matrix(.36323277 0 0 .363418 193.718 398.0009)" font-size="14" font-family="Unnamed"><tspan y="61.688016" x="43.236909 46.4989 55.010866 62.864839">ided</tspan></text>
<text fill="#ffffff" xml:space="preserve" transform="matrix(.36323277 0 0 .363418 193.718 398.0009)" font-size="14" font-family="Unnamed"><tspan y="61.688016" x="71.3768">?</tspan></text>
<path transform="matrix(.363232,0,0,.363418,209.75876,313.7871)" stroke-width="2" stroke-linecap="butt" stroke-miterlimit="4" stroke-linejoin="miter" fill="none" stroke="#333333" d="M0 0V98.4992C0 99.3192 .40999998 99.729198 1.23 99.729198 2.0500003 99.729198 2.46 100.1392 2.46 100.9592V181.85936"/>
<path transform="matrix(.000000000000000022241544,.363418,-.363232,.000000000000000022252937,210.65232,383.5783)" d="M-12.727273-7.5454547 0 0-12.727273 7.5454547V-7.5454547Z" fill="#333333"/>
<path transform="matrix(.363232,0,0,.363418,176.7849,7.572879)" d="M57.27247 0H129.19944C131.07518 0 132.9464 .09192753 134.81311 .2757826 136.67983 .45963765 138.53304 .73453488 140.37273 1.1004744 142.21244 1.466414 144.02977 1.9216335 145.82476 2.4661334 147.61974 3.010633 149.3837 3.6417909 151.11666 4.3596069 152.84961 5.077423 154.54323 5.8784415 156.1975 6.762661 157.85175 7.6468808 159.45868 8.610044 161.0183 9.652151 162.57791 10.694259 164.08272 11.810293 165.53272 13.000253 166.98268 14.190212 168.37084 15.448367 169.69718 16.774718 171.02353 18.10107 172.28168 19.489232 173.47162 20.9392 174.66159 22.38917 175.77764 23.893967 176.81974 25.453589 177.86183 27.013215 178.82501 28.620156 179.70925 30.274413 180.59345 31.928669 181.39446 33.62228 182.11228 35.35524 182.83011 37.088209 183.46128 38.852178 184.00576 40.64715 184.55027 42.44212 185.00548 44.259458 185.37142 46.09916 185.73737 47.938867 186.01226 49.792078 186.1961 51.658788 186.37998 53.525499 186.47191 55.396726 186.4719 57.27247V59.27247C186.47191 61.148214 186.37998 63.019445 186.19612 64.886157 186.01227 66.75286 185.73737 68.606067 185.37142 70.44576 185.00548 72.28547 184.55027 74.102809 184.00577 75.89778 183.46128 77.69276 182.83011 79.456729 182.11228 81.18968 181.39446 82.922649 180.59345 84.61626 179.70923 86.270519 178.825 87.924777 177.86183 89.531719 176.8197 91.09133 175.7776 92.65096 174.66158 94.15576 173.47162 95.605739 172.28168 97.05571 171.02353 98.44387 169.69718 99.77022 168.37084 101.09657 166.98267 102.35473 165.5327 103.544689 164.08272 104.73464 162.57791 105.85067 161.0183 106.89277 159.45868 107.93488 157.85173 108.89805 156.19748 109.782268 154.54323 110.66649 152.84961 111.46751 151.11666 112.18532 149.3837 112.90314 147.61974 113.5343 145.82474 114.078807 144.02977 114.62331 142.21242 115.07852 140.37271 115.44446 138.53302 115.8104 136.67983 116.0853 134.81311 116.26915 132.9464 116.45301 131.07518 116.54494 129.19944 116.54494H57.27247C55.396726 116.54494 53.525499 116.45301 51.658788 116.26916 49.792078 116.0853 47.938867 115.8104 46.09916 115.44446 44.259458 115.07852 42.44212 114.62331 40.64715 114.078807 38.852178 113.5343 37.088209 112.90314 35.355245 112.18532 33.622285 111.46751 31.928673 110.66649 30.274416 109.782268 28.620158 108.89805 27.013216 107.93488 25.45359 106.89277 23.893967 105.85067 22.38917 104.73464 20.939202 103.544689 19.489232 102.35473 18.10107 101.09657 16.774718 99.77022 15.448367 98.44387 14.190212 97.05571 13.000253 95.605739 11.810293 94.15577 10.694259 92.65097 9.652151 91.09135 8.610044 89.53172 7.64688 87.92478 6.7626607 86.270519 5.878441 84.61626 5.077423 82.922649 4.3596069 81.18968 3.6417909 79.456729 3.010633 77.69276 2.4661334 75.89778 1.9216335 74.102809 1.466414 72.28547 1.1004744 70.44576 .73453488 68.606067 .45963765 66.75286 .2757826 64.88615 .09192753 63.01944 0 61.148214 0 59.27247V57.27247C0 55.396726 .09192753 53.525499 .2757826 51.658788 .45963765 49.792078 .73453488 47.938867 1.1004744 46.09916 1.466414 44.259458 1.9216335 42.44212 2.4661334 40.64715 3.010633 38.852178 3.6417909 37.088209 4.3596069 35.355245 5.077423 33.622285 5.8784415 31.928673 6.762661 30.274416 7.6468808 28.620158 8.610044 27.013216 9.652151 25.45359 10.694259 23.893967 11.810293 22.38917 13.000253 20.939202 14.190212 19.489232 15.448367 18.10107 16.774718 16.774718 18.10107 15.448367 19.489232 14.190212 20.9392 13.000253 22.38917 11.810293 23.893967 10.694259 25.453589 9.652151 27.013215 8.610044 28.620156 7.64688 30.274413 6.7626607 31.928669 5.878441 33.62228 5.077423 35.35524 4.3596069 37.088209 3.6417909 38.852178 3.010633 40.64715 2.4661334 42.44212 1.9216335 44.259458 1.466414 46.09916 1.1004744 47.938867 .73453488 49.792078 .45963765 51.658788 .2757826 53.525499 .09192753 55.396726 0 57.27247 0Z" fill="#aba3ff"/>
<text fill="#333333" xml:space="preserve" transform="matrix(.36501608 0 0 .363418 182.52527 13.387568)" font-size="14" font-family="Unnamed"><tspan y="48.27247" x="39.982 46.39397 51.335958 59.84792 63.109914 71.22987 79.08385 83.91383 87.27382 95.71579 105.333759">Trainer SDK</tspan></text>
<path transform="matrix(.363232,0,0,.363418,181.01905,74.13924)" d="M8 0H155.16292C156.22379 0 157.24427 .20298788 158.22438 .60896369 159.2045 1.0149394 160.06963 1.593 160.81977 2.3431457 161.5699 3.0932909 162.14797 3.9584196 162.55394 4.938532 162.95993 5.9186446 163.16292 6.9391338 163.16292 8V108.54494C163.16292 109.6058 162.95993 110.62628 162.55394 111.60639 162.14797 112.5865 161.5699 113.45163 160.81977 114.20178 160.06963 114.95193 159.2045 115.52998 158.22438 115.93596 157.24427 116.341938 156.22379 116.54493 155.16292 116.54494H8C6.9391338 116.54493 5.9186446 116.341938 4.938532 115.93596 3.9584196 115.52998 3.0932909 114.95193 2.3431457 114.20178 1.593 113.45163 1.0149394 112.586498 .60896369 111.606388 .20298788 110.62628 0 109.6058 0 108.54494V8C0 6.9391338 .20298788 5.9186446 .60896369 4.938532 1.0149394 3.9584196 1.593 3.0932909 2.3431457 2.3431457 3.0932909 1.593 3.9584196 1.0149394 4.938532 .60896369 5.9186446 .20298788 6.9391338 0 8 0Z" fill="#ffdd33"/>
<text fill="#1a1a1a" xml:space="preserve" transform="matrix(.36429984 0 0 .363418 186.8253 79.953929)" font-size="14" font-family="Unnamed"><tspan y="40.27247" x="5.12254 8.678524 16.798489">Ini</tspan></text>
<text fill="#1a1a1a" xml:space="preserve" transform="matrix(.36429984 0 0 .363418 186.8253 79.953929)" font-size="14" font-family="Unnamed"><tspan y="40.27247" x="20.060482">t</tspan></text>
<text fill="#1a1a1a" xml:space="preserve" transform="matrix(.36429984 0 0 .363418 186.8253 79.953929)" font-size="14" font-family="Unnamed"><tspan y="40.27247" x="25.338467 28.60046 37.112424 40.374418">iali</tspan></text>
<text fill="#1a1a1a" xml:space="preserve" transform="matrix(.36429984 0 0 .363418 186.8253 79.953929)" font-size="14" font-family="Unnamed"><tspan y="40.27247" x="43.63641">z</tspan></text>
<text fill="#1a1a1a" xml:space="preserve" transform="matrix(.36429984 0 0 .363418 186.8253 79.953929)" font-size="14" font-family="Unnamed"><tspan y="40.27247" x="50.30038 58.154356 61.51434 71.55229 79.88226">e Con</tspan></text>
<text fill="#1a1a1a" xml:space="preserve" transform="matrix(.36429984 0 0 .363418 186.8253 79.953929)" font-size="14" font-family="Unnamed"><tspan y="40.27247" x="87.89023">t</tspan></text>
<text fill="#1a1a1a" xml:space="preserve" transform="matrix(.36429984 0 0 .363418 186.8253 79.953929)" font-size="14" font-family="Unnamed"><tspan y="40.27247" x="93.098209 101.61017 104.87216 112.99213 120.8461">ainer</tspan></text>
<text fill="#1a1a1a" xml:space="preserve" transform="matrix(.36429984 0 0 .363418 186.8253 79.953929)" font-size="14" font-family="Unnamed"><tspan y="40.27247" x="125.67609"> </tspan></text>
<text fill="#1a1a1a" xml:space="preserve" transform="matrix(.36557559 0 0 .363418 186.82811 79.953929)" font-size="14" font-family="Unnamed"><tspan y="56.27247" x="1.1325421 9.896503 18.408467 24.932438 32.78641 41.298376 44.196355 50.608327 55.550313 64.06227 67.324268 75.44423 83.2982 88.12819 91.488178 101.54013 104.802127 108.06412 115.91809">Based Trainer Clien</tspan></text>
<text fill="#1a1a1a" xml:space="preserve" transform="matrix(.36557559 0 0 .363418 186.82811 79.953929)" font-size="14" font-family="Unnamed"><tspan y="56.27247" x="123.926059">t</tspan></text>
<path transform="matrix(.363232,0,0,.363418,210.65807,116.494869)" stroke-width="2" stroke-linecap="butt" stroke-miterlimit="4" stroke-linejoin="miter" fill="none" stroke="#333333" d="M0 0V106.371669"/>
<path transform="matrix(.000000000000000022241544,.363418,-.363232,.000000000000000022252937,210.65807,158.85251)" d="M-12.727273-7.5454547 0 0-12.727273 7.5454547V-7.5454547Z" fill="#333333"/>
<path transform="matrix(.363232,0,0,.363418,210.65807,49.928514)" stroke-width="2" stroke-linecap="butt" stroke-miterlimit="4" stroke-linejoin="miter" fill="none" stroke="#333333" d="M0 66.62192V10.181818"/>
<path transform="matrix(.000000000000000022241544,-.363418,.363232,.000000000000000022252937,210.65807,49.928514)" d="M-12.727273-7.5454547 0 0-12.727273 7.5454547V-7.5454547Z" fill="#333333"/>
<path transform="matrix(.363232,0,0,.363418,422.5676,58.701059)" d="M8 0H192C193.06085 0 194.08133 .20298788 195.06145 .60896369 196.04155 1.0149394 196.90668 1.593 197.65685 2.3431457 198.40699 3.0932909 198.98503 3.9584196 199.391 4.938532 199.79698 5.9186446 199.99999 6.9391338 200 8V89.162227C199.99999 90.22308 199.79698 91.24357 199.391 92.22368 198.98503 93.20379 198.40699 94.06892 197.65685 94.81907 196.90668 95.569217 196.04155 96.14728 195.06145 96.553249 194.08133 96.95922 193.06085 97.16222 192 97.162227H8C6.9391338 97.16222 5.9186446 96.95922 4.938532 96.553249 3.9584196 96.14728 3.0932909 95.569217 2.3431457 94.81907 1.593 94.06892 1.0149394 93.20379 .60896369 92.22368 .20298788 91.24357 0 90.22308 0 89.162227V8C0 6.9391338 .20298788 5.9186446 .60896369 4.938532 1.0149394 3.9584196 1.593 3.0932909 2.3431457 2.3431457 3.0932909 1.593 3.9584196 1.0149394 4.938532 .60896369 5.9186446 .20298788 6.9391338 0 8 0Z" fill="#ffdd33"/>
<text fill="#2c2e33" xml:space="preserve" transform="matrix(.363233 0 0 .363418 428.37928 64.51575)" font-size="14" font-family="Unnamed"><tspan y="38.581113" x="16.576073 26.110039 32.63401 40.487985 43.84797">Use C</tspan></text>
<text fill="#2c2e33" xml:space="preserve" transform="matrix(.363233 0 0 .363418 428.37928 64.51575)" font-size="14" font-family="Unnamed"><tspan y="38.581113" x="53.899927">u</tspan></text>
<text fill="#2c2e33" xml:space="preserve" transform="matrix(.363233 0 0 .363418 428.37928 64.51575)" font-size="14" font-family="Unnamed"><tspan y="38.581113" x="62.01989">s</tspan></text>
<text fill="#2c2e33" xml:space="preserve" transform="matrix(.363233 0 0 .363418 428.37928 64.51575)" font-size="14" font-family="Unnamed"><tspan y="38.581113" x="68.51586">t</tspan></text>
<text fill="#2c2e33" xml:space="preserve" transform="matrix(.363233 0 0 .363418 428.37928 64.51575)" font-size="14" font-family="Unnamed"><tspan y="38.581113" x="73.70985 82.03982 94.387767 97.74775">om R</tspan></text>
<text fill="#2c2e33" xml:space="preserve" transform="matrix(.363233 0 0 .363418 428.37928 64.51575)" font-size="14" font-family="Unnamed"><tspan y="38.581113" x="106.55372">u</tspan></text>
<text fill="#2c2e33" xml:space="preserve" transform="matrix(.363233 0 0 .363418 428.37928 64.51575)" font-size="14" font-family="Unnamed"><tspan y="38.581113" x="114.67368">n</tspan></text>
<text fill="#2c2e33" xml:space="preserve" transform="matrix(.363233 0 0 .363418 428.37928 64.51575)" font-size="14" font-family="Unnamed"><tspan y="38.581113" x="122.68165">t</tspan></text>
<text fill="#2c2e33" xml:space="preserve" transform="matrix(.363233 0 0 .363418 428.37928 64.51575)" font-size="14" font-family="Unnamed"><tspan y="38.581113" x="127.95963 131.22162 143.56957">ime</tspan></text>
<path transform="matrix(.363232,0,0,.363418,429.2598,119.38156)" d="M81.58146 0H152.9167C153.52457-.000000056578 154.12464 .0683938 154.71692 .2051816 155.3092 .3419694 155.8785 .5436428 156.4248 .81020197 156.9711 1.076761 157.48041 1.401369 157.95272 1.7840262 158.42504 2.1666833 158.84824 2.5975753 159.22234 3.0767019 159.59642 3.5558284 159.9118 4.070901 160.16849 4.6219198 160.42516 5.1729385 160.61655 5.7457716 160.74266 6.3404185 160.86875 6.9350645 160.92633 7.5362737 160.91539 8.144046 160.90444 8.751817 160.82526 9.350563 160.67784 9.940285L135.54161 110.48522C135.32526 111.35065 134.97397 112.15732 134.48775 112.905239 134.00156 113.65315 133.4069 114.3016 132.70377 114.850589 132.00064 115.39957 131.22733 115.8192 130.38382 116.10949 129.54032 116.39979 128.67253 116.54494 127.780467 116.54494H10.246211C9.63834 116.54493 9.038265 116.47653 8.445986 116.33974 7.853706 116.20295 7.2844126 116.00128 6.7381045 115.734729 6.1917965 115.46816 5.6824858 115.14355 5.210172 114.760898 4.7378594 114.37824 4.3146579 113.94736 3.9405673 113.46823 3.5664764 112.9891 3.2510913 112.47402 2.994412 111.923 2.737733 111.37198 2.5463429 110.79915 2.4202419 110.204509 2.2941406 109.60986 2.2365626 109.00865 2.2475079 108.40087 2.258453 107.793109 2.3376408 107.19437 2.4850713 106.60465L27.621306 6.059715C27.837662 5.194289 28.188944 4.3876197 28.675152 3.6397055 29.161358 2.891791 29.756024 2.2433415 30.459149 1.6943566 31.162276 1.1453717 31.935593 .72573277 32.7791 .43543966 33.622606 .14514655 34.490388 0 35.382448 0H81.58146Z" fill="#8fd14f"/>
<text fill="#333333" xml:space="preserve" transform="matrix(.36645893 0 0 .363418 439.81974 122.2889)" font-size="14" font-family="Unnamed"><tspan y="48.27247" x="7.211289 17.571244">Ge</tspan></text>
<text fill="#333333" xml:space="preserve" transform="matrix(.36645893 0 0 .363418 439.81974 122.2889)" font-size="14" font-family="Unnamed"><tspan y="48.27247" x="25.32721">t</tspan></text>
<text fill="#333333" xml:space="preserve" transform="matrix(.36645893 0 0 .363418 439.81974 122.2889)" font-size="14" font-family="Unnamed"><tspan y="48.27247" x="30.605195 33.96518 43.499147 50.023118 57.87709 62.707078 65.60506 72.01703 76.959018 85.47098 88.73297"> User Train</tspan></text>
<text fill="#333333" xml:space="preserve" transform="matrix(.36645893 0 0 .363418 439.81974 122.2889)" font-size="14" font-family="Unnamed"><tspan y="48.27247" x="96.852939"> </tspan></text>
<text fill="#333333" xml:space="preserve" transform="matrix(.36323289 0 0 .363418 439.84297 122.2889)" font-size="14" font-family="Unnamed"><tspan y="64.27247" x="25.439255">f</tspan></text>
<text fill="#333333" xml:space="preserve" transform="matrix(.36323289 0 0 .363418 439.84297 122.2889)" font-size="14" font-family="Unnamed"><tspan y="64.27247" x="30.52124">u</tspan></text>
<text fill="#333333" xml:space="preserve" transform="matrix(.36323289 0 0 .363418 439.84297 122.2889)" font-size="14" font-family="Unnamed"><tspan y="64.27247" x="38.641206 46.76117">nc</tspan></text>
<text fill="#333333" xml:space="preserve" transform="matrix(.36323289 0 0 .363418 439.84297 122.2889)" font-size="14" font-family="Unnamed"><tspan y="64.27247" x="54.461137">t</tspan></text>
<text fill="#333333" xml:space="preserve" transform="matrix(.36323289 0 0 .363418 439.84297 122.2889)" font-size="14" font-family="Unnamed"><tspan y="64.27247" x="59.73912 63.001115 71.331089">ion</tspan></text>
<path transform="matrix(.363232,0,0,.363418,458.89137,94.00867)" stroke-width="2" stroke-linecap="butt" stroke-miterlimit="4" stroke-linejoin="miter" fill="none" stroke="#333333" d="M0 0V59.623788"/>
<path transform="matrix(.000000000000000022241544,.363418,-.363232,.000000000000000022252937,458.89137,119.37728)" d="M-12.727273-7.5454547 0 0-12.727273 7.5454547V-7.5454547Z" fill="#333333"/>
<path transform="matrix(.363232,0,0,.363418,422.5676,193.65575)" d="M8 0H192C193.06085 0 194.08133 .20298788 195.06145 .60896369 196.04155 1.0149394 196.90668 1.593 197.65685 2.3431457 198.40699 3.0932909 198.98503 3.9584196 199.391 4.938532 199.79698 5.9186446 199.99999 6.9391338 200 8V89.162227C199.99999 90.22308 199.79698 91.24357 199.391 92.22368 198.98503 93.20379 198.40699 94.06892 197.65685 94.81907 196.90668 95.569217 196.04155 96.14728 195.06145 96.553249 194.08133 96.95922 193.06085 97.16222 192 97.162227H8C6.9391338 97.16222 5.9186446 96.95922 4.938532 96.553249 3.9584196 96.14728 3.0932909 95.569217 2.3431457 94.81907 1.593 94.06892 1.0149394 93.20379 .60896369 92.22368 .20298788 91.24357 0 90.22308 0 89.162227V8C0 6.9391338 .20298788 5.9186446 .60896369 4.938532 1.0149394 3.9584196 1.593 3.0932909 2.3431457 2.3431457 3.0932909 1.593 3.9584196 1.0149394 4.938532 .60896369 5.9186446 .20298788 6.9391338 0 8 0Z" fill="#ffdd33"/>
<text fill="#2c2e33" xml:space="preserve" transform="matrix(.36611087 0 0 .363418 428.31465 199.47043)" font-size="14" font-family="Unnamed"><tspan y="22.58111" x="22.456093 30.884057 39.39602 42.658014 50.777978">Spin </tspan></text>
<text fill="#2c2e33" xml:space="preserve" transform="matrix(.36611087 0 0 .363418 428.31465 199.47043)" font-size="14" font-family="Unnamed"><tspan y="22.58111" x="53.885965">t</tspan></text>
<text fill="#2c2e33" xml:space="preserve" transform="matrix(.36611087 0 0 .363418 428.31465 199.47043)" font-size="14" font-family="Unnamed"><tspan y="22.58111" x="59.163949 67.28391 75.137889 78.49787">he n</tspan></text>
<text fill="#2c2e33" xml:space="preserve" transform="matrix(.36611087 0 0 .363418 428.31465 199.47043)" font-size="14" font-family="Unnamed"><tspan y="22.58111" x="86.617839">u</tspan></text>
<text fill="#2c2e33" xml:space="preserve" transform="matrix(.36611087 0 0 .363418 428.31465 199.47043)" font-size="14" font-family="Unnamed"><tspan y="22.58111" x="94.7378 107.08575 115.59771 123.45168 128.28168 131.64167 139.84563">mber of</tspan></text>
<text fill="#2c2e33" xml:space="preserve" transform="matrix(.36611087 0 0 .363418 428.31465 199.47043)" font-size="14" font-family="Unnamed"><tspan y="22.58111" x="144.5496"> </tspan></text>
<text fill="#2c2e33" xml:space="preserve" transform="matrix(.36406163 0 0 .363418 428.35414 199.47043)" font-size="14" font-family="Unnamed"><tspan y="38.581113" x="30.331078 35.259057 43.11303">req</tspan></text>
<text fill="#2c2e33" xml:space="preserve" transform="matrix(.36406163 0 0 .363418 428.35414 199.47043)" font-size="14" font-family="Unnamed"><tspan y="38.581113" x="51.624994">u</tspan></text>
<text fill="#2c2e33" xml:space="preserve" transform="matrix(.36406163 0 0 .363418 428.35414 199.47043)" font-size="14" font-family="Unnamed"><tspan y="38.581113" x="59.744958 63.00695 67.93493 75.7889 84.300868">ired </tspan></text>
<text fill="#2c2e33" xml:space="preserve" transform="matrix(.36406163 0 0 .363418 428.35414 199.47043)" font-size="14" font-family="Unnamed"><tspan y="38.581113" x="87.40885">t</tspan></text>
<text fill="#2c2e33" xml:space="preserve" transform="matrix(.36406163 0 0 .363418 428.35414 199.47043)" font-size="14" font-family="Unnamed"><tspan y="38.581113" x="92.68684 97.62882 106.140789 109.40278 117.52274 120.78474 128.9047">raining</tspan></text>
<text fill="#2c2e33" xml:space="preserve" transform="matrix(.36406163 0 0 .363418 428.35414 199.47043)" font-size="14" font-family="Unnamed"><tspan y="38.581113" x="137.41666"> </tspan></text>
<text fill="#2c2e33" xml:space="preserve" transform="matrix(.3632328 0 0 .363418 428.3793 199.47043)" font-size="14" font-family="Unnamed"><tspan y="54.581113" x="14.889107 23.40107 28.329049 36.65902 44.372995 52.226968 58.75094 65.27491 73.12888">processes</tspan></text>
<text fill="#2c2e33" xml:space="preserve" transform="matrix(.3632328 0 0 .363418 428.3793 199.47043)" font-size="14" font-family="Unnamed"><tspan y="54.581113" x="79.624858">/</tspan></text>
<text fill="#2c2e33" xml:space="preserve" transform="matrix(.3632328 0 0 .363418 428.3793 199.47043)" font-size="14" font-family="Unnamed"><tspan y="54.581113" x="84.53884 92.252819 100.58279">con</tspan></text>
<text fill="#2c2e33" xml:space="preserve" transform="matrix(.3632328 0 0 .363418 428.3793 199.47043)" font-size="14" font-family="Unnamed"><tspan y="54.581113" x="108.59075">t</tspan></text>
<text fill="#2c2e33" xml:space="preserve" transform="matrix(.3632328 0 0 .363418 428.3793 199.47043)" font-size="14" font-family="Unnamed"><tspan y="54.581113" x="113.79873 122.31069 125.572689 133.69266 141.54663 146.58661">ainers</tspan></text>
<path transform="matrix(.363232,0,0,.363418,458.89137,161.72969)" stroke-width="2" stroke-linecap="butt" stroke-miterlimit="4" stroke-linejoin="miter" fill="none" stroke="#333333" d="M0 0V77.65727"/>
<path transform="matrix(.000000000000000022241544,.363418,-.363232,.000000000000000022252937,458.89137,193.65201)" d="M-12.727273-7.5454547 0 0-12.727273 7.5454547V-7.5454547Z" fill="#333333"/>
<path transform="matrix(.363232,0,0,.363418,422.5676,254.34375)" d="M8 0H192C193.06085 0 194.08133 .20298788 195.06145 .60896369 196.04155 1.0149394 196.90668 1.593 197.65685 2.3431457 198.40699 3.0932909 198.98503 3.9584196 199.391 4.938532 199.79698 5.9186446 199.99999 6.9391338 200 8V89.162227C199.99999 90.22308 199.79698 91.24357 199.391 92.22368 198.98503 93.20379 198.40699 94.06892 197.65685 94.81907 196.90668 95.569217 196.04155 96.14728 195.06145 96.553249 194.08133 96.95922 193.06085 97.16222 192 97.162227H8C6.9391338 97.16222 5.9186446 96.95922 4.938532 96.553249 3.9584196 96.14728 3.0932909 95.569217 2.3431457 94.81907 1.593 94.06892 1.0149394 93.20379 .60896369 92.22368 .20298788 91.24357 0 90.22308 0 89.162227V8C0 6.9391338 .20298788 5.9186446 .60896369 4.938532 1.0149394 3.9584196 1.593 3.0932909 2.3431457 2.3431457 3.0932909 1.593 3.9584196 1.0149394 4.938532 .60896369 5.9186446 .20298788 6.9391338 0 8 0Z" fill="#ffdd33"/>
<text fill="#2c2e33" xml:space="preserve" transform="matrix(.3632329 0 0 .363418 428.37925 260.15846)" font-size="14" font-family="Unnamed"><tspan y="38.581113" x="49.09105 56.245027">Fe</tspan></text>
<text fill="#2c2e33" xml:space="preserve" transform="matrix(.3632329 0 0 .363418 428.37925 260.15846)" font-size="14" font-family="Unnamed"><tspan y="38.581113" x="64.00099">t</tspan></text>
<text fill="#2c2e33" xml:space="preserve" transform="matrix(.3632329 0 0 .363418 428.37925 260.15846)" font-size="14" font-family="Unnamed"><tspan y="38.581113" x="69.19498 76.90895 85.028919 88.3889 95.54286 103.87283 112.384799">ch Logs</tspan></text>
<path transform="matrix(.363232,0,0,.363418,458.89137,228.96337)" stroke-width="2" stroke-linecap="butt" stroke-miterlimit="4" stroke-linejoin="miter" fill="none" stroke="#333333" d="M0 0V59.64191"/>
<path transform="matrix(.000000000000000022241544,.363418,-.363232,.000000000000000022252937,458.89137,254.33856)" d="M-12.727273-7.5454547 0 0-12.727273 7.5454547V-7.5454547Z" fill="#333333"/>
<path transform="matrix(.363232,0,0,.363418,422.5676,316.48634)" d="M8 0H192C193.06085 0 194.08133 .20298788 195.06145 .60896369 196.04155 1.0149394 196.90668 1.593 197.65685 2.3431457 198.40699 3.0932909 198.98503 3.9584196 199.391 4.938532 199.79698 5.9186446 199.99999 6.9391338 200 8V89.162227C199.99999 90.22308 199.79698 91.24357 199.391 92.22368 198.98503 93.20379 198.40699 94.06892 197.65685 94.81907 196.90668 95.569217 196.04155 96.14728 195.06145 96.553249 194.08133 96.95922 193.06085 97.16222 192 97.162227H8C6.9391338 97.16222 5.9186446 96.95922 4.938532 96.553249 3.9584196 96.14728 3.0932909 95.569217 2.3431457 94.81907 1.593 94.06892 1.0149394 93.20379 .60896369 92.22368 .20298788 91.24357 0 90.22308 0 89.162227V8C0 6.9391338 .20298788 5.9186446 .60896369 4.938532 1.0149394 3.9584196 1.593 3.0932909 2.3431457 2.3431457 3.0932909 1.593 3.9584196 1.0149394 4.938532 .60896369 5.9186446 .20298788 6.9391338 0 8 0Z" fill="#ffdd33"/>
<text fill="#333333" xml:space="preserve" transform="matrix(.36558143 0 0 .363418 428.37654 322.30104)" font-size="14" font-family="Unnamed"><tspan y="30.58111" x="1.1901169 14.392067 22.90403">Wai</tspan></text>
<text fill="#333333" xml:space="preserve" transform="matrix(.36558143 0 0 .363418 428.37654 322.30104)" font-size="14" font-family="Unnamed"><tspan y="30.58111" x="26.166024">t</tspan></text>
<text fill="#333333" xml:space="preserve" transform="matrix(.36558143 0 0 .363418 428.37654 322.30104)" font-size="14" font-family="Unnamed"><tspan y="30.58111" x="31.444008 34.706 42.825967 51.33793 54.501916 59.373895 67.703868 72.53385">ing for </tspan></text>
<text fill="#333333" xml:space="preserve" transform="matrix(.36558143 0 0 .363418 428.37654 322.30104)" font-size="14" font-family="Unnamed"><tspan y="30.58111" x="75.64184">t</tspan></text>
<text fill="#333333" xml:space="preserve" transform="matrix(.36558143 0 0 .363418 428.37654 322.30104)" font-size="14" font-family="Unnamed"><tspan y="30.58111" x="80.91982 85.86181 94.37377 97.635768 105.75573 109.01772 117.13769 125.64965 129.00965 132.27164 140.60161 149.11357">raining job </tspan></text>
<text fill="#333333" xml:space="preserve" transform="matrix(.36558143 0 0 .363418 428.37654 322.30104)" font-size="14" font-family="Unnamed"><tspan y="30.58111" x="152.22156">t</tspan></text>
<text fill="#333333" xml:space="preserve" transform="matrix(.36558143 0 0 .363418 428.37654 322.30104)" font-size="14" font-family="Unnamed"><tspan y="30.58111" x="157.41555">o</tspan></text>
<text fill="#333333" xml:space="preserve" transform="matrix(.36323289 0 0 .363418 428.37925 322.30104)" font-size="14" font-family="Unnamed"><tspan y="46.581113" x="53.515039 61.22901 69.55898 81.90693 90.41889 93.680889">comple</tspan></text>
<text fill="#333333" xml:space="preserve" transform="matrix(.36323289 0 0 .363418 428.37925 322.30104)" font-size="14" font-family="Unnamed"><tspan y="46.581113" x="101.43685">t</tspan></text>
<text fill="#333333" xml:space="preserve" transform="matrix(.36323289 0 0 .363418 428.37925 322.30104)" font-size="14" font-family="Unnamed"><tspan y="46.581113" x="106.63084">e</tspan></text>
<path transform="matrix(.363232,0,0,.363418,422.5676,383.0827)" d="M8 0H192C193.06085 0 194.08133 .20298788 195.06145 .60896369 196.04155 1.0149394 196.90668 1.593 197.65685 2.3431457 198.40699 3.0932909 198.98503 3.9584196 199.391 4.938532 199.79698 5.9186446 199.99999 6.9391338 200 8V89.162227C199.99999 90.22308 199.79698 91.24357 199.391 92.22368 198.98503 93.20379 198.40699 94.06892 197.65685 94.81907 196.90668 95.569217 196.04155 96.14728 195.06145 96.553249 194.08133 96.95922 193.06085 97.16222 192 97.162227H8C6.9391338 97.16222 5.9186446 96.95922 4.938532 96.553249 3.9584196 96.14728 3.0932909 95.569217 2.3431457 94.81907 1.593 94.06892 1.0149394 93.20379 .60896369 92.22368 .20298788 91.24357 0 90.22308 0 89.162227V8C0 6.9391338 .20298788 5.9186446 .60896369 4.938532 1.0149394 3.9584196 1.593 3.0932909 2.3431457 2.3431457 3.0932909 1.593 3.9584196 1.0149394 4.938532 .60896369 5.9186446 .20298788 6.9391338 0 8 0Z" fill="#ffdd33"/>
<text fill="#333333" xml:space="preserve" transform="matrix(.36534939 0 0 .363418 428.3575 388.8974)" font-size="14" font-family="Unnamed"><tspan y="38.581113" x="10.2901 19.026062 26.880036 35.392">Repo</tspan></text>
<text fill="#333333" xml:space="preserve" transform="matrix(.36534939 0 0 .363418 428.3575 388.8974)" font-size="14" font-family="Unnamed"><tspan y="38.581113" x="43.72197">1</tspan></text>
<text fill="#333333" xml:space="preserve" transform="matrix(.36534939 0 0 .363418 428.3575 388.8974)" font-size="14" font-family="Unnamed"><tspan y="38.581113" x="52.93393 55.83191 62.24388 67.18587 75.69783 78.95982 87.07979 90.047779 94.59776 102.927738 111.4397 114.79968"> Train Job S</tspan></text>
<text fill="#333333" xml:space="preserve" transform="matrix(.36534939 0 0 .363418 428.3575 388.8974)" font-size="14" font-family="Unnamed"><tspan y="38.581113" x="123.21365">t</tspan></text>
<text fill="#333333" xml:space="preserve" transform="matrix(.36534939 0 0 .363418 428.3575 388.8974)" font-size="14" font-family="Unnamed"><tspan y="38.581113" x="128.42163">a</tspan></text>
<text fill="#333333" xml:space="preserve" transform="matrix(.36534939 0 0 .363418 428.3575 388.8974)" font-size="14" font-family="Unnamed"><tspan y="38.581113" x="136.9336 142.21158">tu</tspan></text>
<text fill="#333333" xml:space="preserve" transform="matrix(.36534939 0 0 .363418 428.3575 388.8974)" font-size="14" font-family="Unnamed"><tspan y="38.581113" x="150.33155">s</tspan></text>
<path transform="matrix(.363232,0,0,.363418,458.89137,418.3978)" stroke-width="2" stroke-linecap="butt" stroke-miterlimit="4" stroke-linejoin="miter" fill="none" stroke="#333333" d="M0 0V71.01432"/>
<path transform="matrix(.000000000000000022241544,.363418,-.363232,.000000000000000022252937,458.89137,447.90596)" d="M-12.727273-7.5454547 0 0-12.727273 7.5454547V-7.5454547Z" fill="#333333"/>
<path transform="matrix(.363232,0,0,.363418,458.89137,351.79396)" stroke-width="2" stroke-linecap="butt" stroke-miterlimit="4" stroke-linejoin="miter" fill="none" stroke="#333333" d="M0 0V75.91161"/>
<path transform="matrix(.000000000000000022241544,.363418,-.363232,.000000000000000022252937,458.89137,383.08186)" d="M-12.727273-7.5454547 0 0-12.727273 7.5454547V-7.5454547Z" fill="#333333"/>
<path transform="matrix(.363232,0,0,.363418,458.89137,289.65135)" stroke-width="2" stroke-linecap="butt" stroke-miterlimit="4" stroke-linejoin="miter" fill="none" stroke="#333333" d="M0 0V63.65653"/>
<path transform="matrix(.000000000000000022241544,.363418,-.363232,.000000000000000022252937,458.89137,316.48554)" d="M-12.727273-7.5454547 0 0-12.727273 7.5454547V-7.5454547Z" fill="#333333"/>
</g>
<g clip-path="url(#clip_14)">
<g clip-path="url(#clip_15)">
<g clip-path="url(#clip_16)">
<g clip-path="url(#clip_17)">
<path transform="matrix(.363232,0,0,.363418,244.52373,76.35111)" stroke-width="2" stroke-linecap="butt" stroke-miterlimit="4" stroke-linejoin="miter" fill="none" stroke="#333333" d="M0 924.75729H237.09001C242.42334 924.75729 245.09001 922.0906 245.09001 916.75729V8C245.09001 2.6666666 247.75669 0 253.09001 0H479.9982"/>
</g>
</g>
</g>
</g>
<g clip-path="url(#clip_18)">
<path transform="matrix(.363232,0,0,.363418,422.57279,76.35111)" d="M-12.727273-7.5454547 0 0-12.727273 7.5454547V-7.5454547Z" fill="#333333"/>
<text fill="#333333" xml:space="preserve" transform="matrix(.46701417 0 0 .46725173 267.53126 407.75205)" font-size="14" font-family="NotoSans"><tspan y="14" x=".5870056 7.810974 15.70694">Yes</tspan></text>
<path transform="matrix(.363232,0,0,.363418,173.86222,508.27513)" d="M8 0H192C193.06085 0 194.08133 .20298788 195.06145 .60896369 196.04155 1.0149394 196.90668 1.593 197.65685 2.3431457 198.40699 3.0932909 198.98503 3.9584196 199.391 4.938532 199.79698 5.9186446 199.99999 6.9391338 200 8V89.162227C199.99999 90.22308 199.79698 91.24357 199.391 92.22368 198.98503 93.20379 198.40699 94.06892 197.65685 94.81907 196.90668 95.569217 196.04155 96.14728 195.06145 96.553249 194.08133 96.95922 193.06085 97.16222 192 97.162227H8C6.9391338 97.16222 5.9186446 96.95922 4.938532 96.553249 3.9584196 96.14728 3.0932909 95.569217 2.3431457 94.81907 1.593 94.06892 1.0149394 93.20379 .60896369 92.22368 .20298788 91.24357 0 90.22308 0 89.162227V8C0 6.9391338 .20298788 5.9186446 .60896369 4.938532 1.0149394 3.9584196 1.593 3.0932909 2.3431457 2.3431457 3.0932909 1.593 3.9584196 1.0149394 4.938532 .60896369 5.9186446 .20298788 6.9391338 0 8 0Z" fill="#ffdd33"/>
<text fill="#2c2e33" xml:space="preserve" transform="matrix(.36323298 0 0 .363418 179.67392 514.08987)" font-size="14" font-family="Unnamed"><tspan y="38.581113" x="18.676079 28.210045 34.734018 42.58799 45.947977 54.459939 62.215906 67.11588">Use defa</tspan></text>
<text fill="#2c2e33" xml:space="preserve" transform="matrix(.36323298 0 0 .363418 179.67392 514.08987)" font-size="14" font-family="Unnamed"><tspan y="38.581113" x="75.627849">u</tspan></text>
<text fill="#2c2e33" xml:space="preserve" transform="matrix(.36323298 0 0 .363418 179.67392 514.08987)" font-size="14" font-family="Unnamed"><tspan y="38.581113" x="83.74781">l</tspan></text>
<text fill="#2c2e33" xml:space="preserve" transform="matrix(.36323298 0 0 .363418 179.67392 514.08987)" font-size="14" font-family="Unnamed"><tspan y="38.581113" x="87.0098">t</tspan></text>
<text fill="#2c2e33" xml:space="preserve" transform="matrix(.36323298 0 0 .363418 179.67392 514.08987)" font-size="14" font-family="Unnamed"><tspan y="38.581113" x="92.28779 95.64777"> R</tspan></text>
<text fill="#2c2e33" xml:space="preserve" transform="matrix(.36323298 0 0 .363418 179.67392 514.08987)" font-size="14" font-family="Unnamed"><tspan y="38.581113" x="104.45374">u</tspan></text>
<text fill="#2c2e33" xml:space="preserve" transform="matrix(.36323298 0 0 .363418 179.67392 514.08987)" font-size="14" font-family="Unnamed"><tspan y="38.581113" x="112.57371">n</tspan></text>
<text fill="#2c2e33" xml:space="preserve" transform="matrix(.36323298 0 0 .363418 179.67392 514.08987)" font-size="14" font-family="Unnamed"><tspan y="38.581113" x="120.58167">t</tspan></text>
<text fill="#2c2e33" xml:space="preserve" transform="matrix(.36323298 0 0 .363418 179.67392 514.08987)" font-size="14" font-family="Unnamed"><tspan y="38.581113" x="125.85966 129.12165 141.46959">ime</tspan></text>
<path transform="matrix(.363232,0,0,.363418,429.2598,524.11068)" d="M45.617975 0H117.544948C119.03899 0 120.529438 .073221 122.01629 .219663 123.50314 .366105 124.97923 .5850628 126.44456 .8765364 127.909908 1.1680101 129.35742 1.530596 130.78713 1.9642943 132.21683 2.3979927 133.62184 2.9007149 135.00217 3.472461 136.38249 4.0442078 137.73148 4.6822245 139.04912 5.3865125 140.36675 6.0908005 141.64669 6.857968 142.88892 7.6880147 144.13118 8.518062 145.32976 9.406991 146.48468 10.354803 147.63959 11.302615 148.74527 12.304746 149.80171 13.361195 150.85816 14.417644 151.86029 15.523324 152.8081 16.678236 153.75592 17.833149 154.64485 19.03173 155.47489 20.273983 156.30493 21.516238 157.0721 22.796179 157.7764 24.11381 158.48069 25.431439 159.1187 26.78041 159.69043 28.160729 160.26218 29.541047 160.76491 30.94606 161.19861 32.37577 161.63231 33.805486 161.99489 35.253007 162.28638 36.71834 162.57787 38.183687 162.79683 39.65978 162.94327 41.14663 163.0897 42.63348 163.16294 44.123929 163.16292 45.617975V47.617975C163.16294 49.11202 163.0897 50.60247 162.94327 52.08932 162.79683 53.57617 162.57787 55.052267 162.28638 56.5176 161.99489 57.98294 161.63231 59.430467 161.19861 60.86018 160.76491 62.28989 160.26218 63.694906 159.69043 65.07522 159.1187 66.455539 158.48069 67.804508 157.7764 69.12213 157.0721 70.439769 156.30493 71.7197 155.47489 72.96196 154.64485 74.204219 153.75592 75.402797 152.8081 76.5577 151.86029 77.712619 150.85816 78.8183 149.80171 79.87475 148.74527 80.9312 147.63959 81.93333 146.48468 82.88114 145.32978 83.82895 144.1312 84.71787 142.88893 85.54791 141.64669 86.37796 140.36675 87.145137 139.04912 87.84943 137.73148 88.55372 136.38249 89.191738 135.00217 89.76347 133.62184 90.33522 132.21685 90.837947 130.78714 91.27165 129.35744 91.70535 127.909908 92.06794 126.44456 92.359409 124.97923 92.65089 123.50314 92.86984 122.01629 93.01628 120.529438 93.16273 119.03899 93.23595 117.544948 93.23595H45.617975C44.123929 93.23595 42.63348 93.16273 41.14663 93.01629 39.65978 92.86984 38.183687 92.65089 36.71834 92.359409 35.253007 92.06794 33.80548 91.70535 32.375768 91.27165 30.946059 90.83795 29.541047 90.33523 28.160727 89.76348 26.78041 89.191738 25.431437 88.55372 24.113808 87.84944 22.796179 87.14515 21.516238 86.377979 20.273983 85.54793 19.03173 84.71788 17.833149 83.82895 16.678236 82.88114 15.523324 81.93333 14.417644 80.9312 13.361195 79.87475 12.304746 78.8183 11.302615 77.71262 10.354803 76.55771 9.406991 75.402797 8.518062 74.204219 7.6880147 72.96196 6.857968 71.7197 6.090801 70.439769 5.3865129 69.12214 4.6822249 67.804508 4.0442078 66.455539 3.472461 65.07522 2.9007149 63.694906 2.3979927 62.28989 1.9642943 60.86018 1.530596 59.430467 1.1680101 57.98294 .8765364 56.5176 .5850628 55.052267 .366105 53.57617 .219663 52.08932 .073221 50.60247 0 49.11202 0 47.617975V45.617975C0 44.123929 .073221 42.63348 .219663 41.14663 .366105 39.65978 .5850628 38.183687 .8765364 36.71834 1.1680101 35.253007 1.530596 33.80548 1.9642943 32.375768 2.3979927 30.946059 2.9007149 29.541047 3.472461 28.160727 4.0442078 26.78041 4.6822245 25.431437 5.3865125 24.113808 6.0908005 22.796179 6.857968 21.516238 7.6880147 20.273983 8.518062 19.03173 9.406991 17.833149 10.354803 16.678236 11.302615 15.523324 12.304746 14.417644 13.361195 13.361195 14.417644 12.304746 15.523324 11.302615 16.678236 10.354803 17.833149 9.406991 19.03173 8.518062 20.273983 7.6880147 21.516238 6.857968 22.796179 6.090801 24.11381 5.3865129 25.431439 4.6822249 26.78041 4.0442078 28.160729 3.472461 29.541047 2.9007149 30.94606 2.3979927 32.37577 1.9642943 33.805486 1.530596 35.253007 1.1680101 36.71834 .8765364 38.183687 .5850628 39.65978 .366105 41.14663 .219663 42.63348 .073221 44.123929 0 45.617975 0Z" fill="#aba3ff"/>
<text fill="#333333" xml:space="preserve" transform="matrix(.36323289 0 0 .363418 435.07145 529.92538)" font-size="14" font-family="Unnamed"><tspan y="36.617975" x="50.356473">S</tspan></text>
<text fill="#333333" xml:space="preserve" transform="matrix(.36323289 0 0 .363418 435.07145 529.92538)" font-size="14" font-family="Unnamed"><tspan y="36.617975" x="58.770444">t</tspan></text>
<text fill="#333333" xml:space="preserve" transform="matrix(.36323289 0 0 .363418 435.07145 529.92538)" font-size="14" font-family="Unnamed"><tspan y="36.617975" x="63.964429 72.2944">op</tspan></text>
<path transform="matrix(.363232,0,0,.363418,422.5676,447.902)" d="M50 30 95.88403 2.4695798C97.150768 1.7095413 98.52276 1.3295221 100.00001 1.3295221 101.47726 1.3295221 102.84924 1.7095413 104.11597 2.4695798L188.56676 53.140058C189.15906 53.495439 189.6963 53.920408 190.17853 54.414957 190.66075 54.909505 191.07204 55.45732 191.41239 56.058408 191.7527 56.659486 192.01085 57.294004 192.18683 57.961954 192.3628 58.629907 192.45078 59.309255 192.45079 60 192.45078 60.69074 192.3628 61.370084 192.18683 62.038034 192.01085 62.705984 191.7527 63.3405 191.41239 63.941587 191.07204 64.54266 190.66075 65.09048 190.17853 65.58503 189.6963 66.07958 189.15906 66.504558 188.56676 66.85994L104.11597 117.53042C102.84924 118.29047 101.47726 118.67049 100.00001 118.67049 98.52276 118.67049 97.150768 118.29047 95.88403 117.53042L11.433239 66.85994C10.840932 66.504558 10.303666 66.07958 9.82144 65.58503 9.339211 65.090488 8.927935 64.54267 8.587608 63.94159 8.247281 63.340505 7.989132 62.705984 7.8131625 62.038034 7.6371929 61.37008 7.549208 60.690736 7.5492088 59.999998 7.549208 59.30925 7.6371929 58.6299 7.8131625 57.961954 7.989132 57.294004 8.247281 56.65949 8.587608 56.05841 8.927935 55.457326 9.339211 54.909509 9.82144 54.41496 10.303666 53.920408 10.840932 53.495439 11.433239 53.140058L50 30Z" fill="#2c2e33"/>
<path transform="matrix(.363232,0,0,.363418,422.5676,447.902)" stroke-width="2" stroke-linecap="round" stroke-linejoin="round" fill="none" stroke="#1a1a1a" d="M50 30 95.88403 2.4695798C97.150768 1.7095413 98.52276 1.3295221 100.00001 1.3295221 101.47726 1.3295221 102.84924 1.7095413 104.11597 2.4695798L188.56676 53.140058C189.15906 53.495439 189.6963 53.920408 190.17853 54.414957 190.66075 54.909505 191.07204 55.45732 191.41239 56.058408 191.7527 56.659486 192.01085 57.294004 192.18683 57.961954 192.3628 58.629907 192.45078 59.309255 192.45079 60 192.45078 60.69074 192.3628 61.370084 192.18683 62.038034 192.01085 62.705984 191.7527 63.3405 191.41239 63.941587 191.07204 64.54266 190.66075 65.09048 190.17853 65.58503 189.6963 66.07958 189.15906 66.504558 188.56676 66.85994L104.11597 117.53042C102.84924 118.29047 101.47726 118.67049 100.00001 118.67049 98.52276 118.67049 97.150768 118.29047 95.88403 117.53042L11.433239 66.85994C10.840932 66.504558 10.303666 66.07958 9.82144 65.58503 9.339211 65.090488 8.927935 64.54267 8.587608 63.94159 8.247281 63.340505 7.989132 62.705984 7.8131625 62.038034 7.6371929 61.37008 7.549208 60.690736 7.5492088 59.999998 7.549208 59.30925 7.6371929 58.6299 7.8131625 57.961954 7.989132 57.294004 8.247281 56.65949 8.587608 56.05841 8.927935 55.457326 9.339211 54.909509 9.82144 54.41496 10.303666 53.920408 10.840932 53.495439 11.433239 53.140058L50 30Z"/>
<text fill="#ffffff" xml:space="preserve" transform="matrix(.36323307 0 0 .363418 440.7292 458.80458)" font-size="14" font-family="Unnamed"><tspan y="36" x="19.648034 29.69999 32.961984 40.815958 49.32792">Clean</tspan></text>
<text fill="#ffffff" xml:space="preserve" transform="matrix(.36323307 0 0 .363418 440.7292 458.80458)" font-size="14" font-family="Unnamed"><tspan y="36" x="57.447885">u</tspan></text>
<text fill="#ffffff" xml:space="preserve" transform="matrix(.36323307 0 0 .363418 440.7292 458.80458)" font-size="14" font-family="Unnamed"><tspan y="36" x="65.56785">p</tspan></text>
<text fill="#ffffff" xml:space="preserve" transform="matrix(.36323307 0 0 .363418 440.7292 458.80458)" font-size="14" font-family="Unnamed"><tspan y="36" x="73.42181">?</tspan></text>
<path transform="matrix(.363232,0,0,.363418,548.4603,452.05586)" d="M8 0H192C193.06085 0 194.08133 .20298788 195.06145 .60896369 196.04155 1.0149394 196.90668 1.593 197.65685 2.3431457 198.40699 3.0932909 198.98503 3.9584196 199.391 4.938532 199.79698 5.9186446 199.99999 6.9391338 200 8V89.162227C199.99999 90.22308 199.79698 91.24357 199.391 92.22368 198.98503 93.20379 198.40699 94.06892 197.65685 94.81907 196.90668 95.569217 196.04155 96.14728 195.06145 96.553249 194.08133 96.95922 193.06085 97.16222 192 97.162227H8C6.9391338 97.16222 5.9186446 96.95922 4.938532 96.553249 3.9584196 96.14728 3.0932909 95.569217 2.3431457 94.81907 1.593 94.06892 1.0149394 93.20379 .60896369 92.22368 .20298788 91.24357 0 90.22308 0 89.162227V8C0 6.9391338 .20298788 5.9186446 .60896369 4.938532 1.0149394 3.9584196 1.593 3.0932909 2.3431457 2.3431457 3.0932909 1.593 3.9584196 1.0149394 4.938532 .60896369 5.9186446 .20298788 6.9391338 0 8 0Z" fill="#ffdd33"/>
<text fill="#333333" xml:space="preserve" transform="matrix(.36323274 0 0 .363418 554.27206 457.8705)" font-size="14" font-family="Unnamed"><tspan y="38.581113" x="30.170098 39.774057 47.62803 50.890024">Dele</tspan></text>
<text fill="#333333" xml:space="preserve" transform="matrix(.36323274 0 0 .363418 554.27206 457.8705)" font-size="14" font-family="Unnamed"><tspan y="38.581113" x="58.64599">t</tspan></text>
<text fill="#333333" xml:space="preserve" transform="matrix(.36323274 0 0 .363418 554.27206 457.8705)" font-size="14" font-family="Unnamed"><tspan y="38.581113" x="63.839975 71.69395 75.05393 79.98191 87.835887 94.359859">e reso</tspan></text>
<text fill="#333333" xml:space="preserve" transform="matrix(.36323274 0 0 .363418 554.27206 457.8705)" font-size="14" font-family="Unnamed"><tspan y="38.581113" x="102.68983">u</tspan></text>
<text fill="#333333" xml:space="preserve" transform="matrix(.36323274 0 0 .363418 554.27206 457.8705)" font-size="14" font-family="Unnamed"><tspan y="38.581113" x="110.80979 115.73777 123.451747 131.30573">rces</tspan></text>
</g>
<g clip-path="url(#clip_19)">
<g clip-path="url(#clip_20)">
<g clip-path="url(#clip_21)">
<g clip-path="url(#clip_22)">
<path transform="matrix(.363232,0,0,.363418,495.21504,469.70594)" stroke-width="2" stroke-linecap="butt" stroke-miterlimit="4" stroke-linejoin="miter" fill="none" stroke="#333333" d="M0 0H136.39318"/>
</g>
</g>
</g>
</g>
<g clip-path="url(#clip_23)">
<path transform="matrix(.363232,0,0,.363418,548.45578,469.70594)" d="M-12.727273-7.5454547 0 0-12.727273 7.5454547V-7.5454547Z" fill="#333333"/>
<text fill="#333333" xml:space="preserve" transform="matrix(.46701417 0 0 .46725173 511.56294 465.03343)" font-size="14" font-family="NotoSans"><tspan y="14" x=".5870056 7.810974 15.70694">Yes</tspan></text>
<path transform="matrix(.363232,0,0,.363418,488.52287,487.36347)" stroke-width="2" stroke-linecap="butt" stroke-miterlimit="4" stroke-linejoin="miter" fill="none" stroke="#333333" d="M264.99354 0V139.73467C264.99354 145.068 262.32688 147.73467 256.99354 147.73467H10.181818"/>
<path transform="matrix(-.363232,.000000000000000044505875,-.000000000000000044483088,-.363418,488.52287,541.0529)" d="M-12.727273-7.5454547 0 0-12.727273 7.5454547V-7.5454547Z" fill="#333333"/>
</g>
<g clip-path="url(#clip_24)">
<g clip-path="url(#clip_25)">
<g clip-path="url(#clip_26)">
<g clip-path="url(#clip_27)">
<path transform="matrix(.363232,0,0,.363418,458.89137,491.50987)" stroke-width="2" stroke-linecap="butt" stroke-miterlimit="4" stroke-linejoin="miter" fill="none" stroke="#333333" d="M0 0V79.515979"/>
</g>
</g>
</g>
</g>
<g clip-path="url(#clip_28)">
<path transform="matrix(.000000000000000022241544,.363418,-.363232,.000000000000000022252937,458.89137,524.10769)" d="M-12.727273-7.5454547 0 0-12.727273 7.5454547V-7.5454547Z" fill="#333333"/>
<text fill="#333333" xml:space="preserve" transform="matrix(.46701408 0 0 .46725173 454.22123 501.35456)" font-size="14" font-family="NotoSans"><tspan y="14" x=".44500733 11.084961">No</tspan></text>
</g>
<g clip-path="url(#clip_29)">
<g clip-path="url(#clip_30)">
<g clip-path="url(#clip_31)">
<g clip-path="url(#clip_32)">
<path transform="matrix(.363232,0,0,.363418,210.18593,441.2739)" stroke-width="2" stroke-linecap="butt" stroke-miterlimit="4" stroke-linejoin="miter" fill="none" stroke="#333333" d="M1.2848858 0V91.53979C1.2848858 91.96809 1.0707381 92.182239 .6424429 92.182239 .21414763 92.182239 0 92.396389 0 92.82468V174.18265"/>
</g>
</g>
</g>
</g>
<g clip-path="url(#clip_33)">
<path transform="matrix(.000000000000000022241544,.363418,-.363232,.000000000000000022252937,210.18593,508.27528)" d="M-12.727273-7.5454547 0 0-12.727273 7.5454547V-7.5454547Z" fill="#333333"/>
<text fill="#333333" xml:space="preserve" transform="matrix(.46701408 0 0 .46725173 205.98253 456.3185)" font-size="14" font-family="NotoSans"><tspan y="14" x=".44500733 11.084961">No</tspan></text>
</g>
</svg>
