<svg xmlns="http://www.w3.org/2000/svg" xmlns:xlink="http://www.w3.org/1999/xlink" xmlns:inkscape="http://www.inkscape.org/namespaces/inkscape" version="1.1" width="687.12" height="787.92" viewBox="0 0 687.12 787.92">
<defs>
<clipPath id="clip_0">
<path transform="matrix(.24,0,0,.24,0,0)" d="M0 0H2862.5V3278.1746H0Z" clip-rule="evenodd"/>
</clipPath>
<clipPath id="clip_1">
<path transform="matrix(.24,0,0,.24,0,0)" d="M0 0H2862.5V3278.1746H0Z" clip-rule="evenodd"/>
</clipPath>
<clipPath id="clip_2">
<path transform="matrix(.24,0,0,.24,0,0)" d="M0 0H2862.5V3278.1746H0Z" clip-rule="evenodd"/>
</clipPath>
<g id="font_3_2">
</g>
<g id="font_4_2">
</g>
<clipPath id="clip_5">
<path transform="matrix(.24,0,0,.24,0,0)" d="M0 0H2862.5V3283.3009H0Z"/>
</clipPath>
<clipPath id="clip_6">
<path transform="matrix(.24,0,0,.24,0,0)" d="M0 0H2862.9393V3278.1746H0Z"/>
</clipPath>
<clipPath id="clip_7">
<path transform="matrix(.24,0,0,.24,0,0)" d="M560.6207 2239.5845H3316.3414V5393.6369H560.6207Z"/>
</clipPath>
<clipPath id="clip_8">
<path transform="matrix(.24,0,0,.24,0,0)" d="M782.28567 2239.5845H977.1952V2284.1285H782.28567M560.6207 2239.5845H3315.9517V5393.6369H560.6207" clip-rule="evenodd"/>
</clipPath>
<clipPath id="clip_9">
<path transform="matrix(.24,0,0,.24,0,0)" d="M0 0H2862.5V3278.1746H0Z" clip-rule="evenodd"/>
</clipPath>
<path id="font_10_39" d="M.66900637 .3639984C.66900637 .28400169 .65416976 .21700032 .62449648 .16299439 .5948334 .10899862 .5523326 .068333949 .49699403 .041000368 .44166566 .013666789 .3746694 0 .29600526 0H.09700012V.7140045H.31700135C.38900248 .7140045 .45133464 .70066836 .5039978 .673996 .55666097 .6473338 .5973256 .60816958 .6259918 .5565033 .65466818 .50483706 .66900637 .44066874 .66900637 .3639984M.5740051 .36099244C.5740051 .42432658 .563502 .47632853 .5424957 .5169983 .52149966 .55766806 .49083457 .58783468 .4505005 .60749819 .4101664 .6271617 .36133323 .6369934 .30400086 .6369934H.18699646V.07699585H.28399659C.3806661 .07699585 .45316569 .10083008 .50149539 .14849854 .5498352 .19616699 .5740051 .2669983 .5740051 .36099244Z"/>
<path id="font_10_72" d="M.29200746 .54600527C.33799745 .54600527 .37749229 .53600057 .41049195 .5159912 .4435018 .49599204 .46883647 .4678243 .48649598 .43148805 .50416567 .39516197 .5130005 .35266624 .5130005 .30400086V.25100709H.1459961C.14732869 .19033814 .16282654 .14417012 .19248963 .11250305 .22216289 .080835979 .26366679 .06500244 .31700135 .06500244 .35099793 .06500244 .38116456 .0681661 .40750123 .07449341 .4338379 .080830898 .46100364 .09000143 .4889984 .102005008V.024993897C.46166484 .013000488 .43466188 .004170736 .4079895-.0014953613 .3813273-.0071614587 .3496653-.009994507 .31300355-.009994507 .2623342-.009994507 .21749878 .00033569337 .17849732 .020996094 .13949585 .041666669 .10916138 .072499599 .0874939 .11349487 .065826419 .15450032 .054992677 .20467122 .054992677 .26400758 .054992677 .32267253 .064824428 .3730011 .084487918 .4149933 .10416158 .45699565 .13183086 .489329 .16749573 .5119934 .2031606 .53466799 .2446645 .54600527 .29200746 .54600527M.29100038 .47399903C.248998 .47399903 .21583049 .4605001 .1914978 .4335022 .16716512 .4065043 .15266419 .3690033 .147995 .32099916H.42100526C.42100526 .3516693 .41633607 .37833659 .40699769 .40100099 .39766947 .42366538 .38350425 .4414978 .36450196 .4544983 .34549967 .46749879 .32099916 .47399903 .29100038 .47399903Z"/>
<path id="font_10_73" d="M.33200074 .46800233H.19700623V0H.10899353V.46800233H.01499939V.5090027L.10899353 .53900149V.5700073C.10899353 .6160075 .11582438 .65334066 .12948609 .68200686 .14315796 .71067306 .16299439 .7316691 .18899536 .7449951 .21499634 .7583313 .24633281 .7649994 .28300477 .7649994 .30433656 .7649994 .32383219 .76316329 .3414917 .75949099 .35916139 .75582888 .3743286 .7516632 .3869934 .746994L.3639984 .6779938C.35333763 .6813304 .34100343 .68466189 .32699586 .6879883 .31299845 .6913249 .29866538 .69299319 .28399659 .69299319 .2546692 .69299319 .23283895 .68316146 .21850586 .6634979 .20417278 .6438344 .19700623 .6130015 .19700623 .57099917V.5359955H.33200074V.46800233Z"/>
<path id="font_10_68" d="M.28799439 .54499819C.35333253 .54499819 .40166728 .5306651 .43299867 .5019989 .46433006 .47333274 .47999574 .42766825 .47999574 .3650055V0H.41600038L.39900209 .07600403H.39500428C.3796641 .056666059 .36382548 .040496828 .3474884 .027496338 .3311615 .01449585 .3124949 .0049997966 .29148866-.0009918213 .27049256-.006993612 .24499512-.009994507 .21499634-.009994507 .18300374-.009994507 .15416973-.0043284099 .12849427 .007003784 .10282898 .018335978 .08266195 .03583272 .067993167 .05949402 .053334554 .08316549 .04600525 .1130015 .04600525 .14900208 .04600525 .20233663 .06700134 .24349976 .10899353 .27249146 .1509959 .30149333 .21566265 .31733195 .30299378 .32000733L.3939972 .32299806V.35499574C.3939972 .3996633 .38432823 .43066407 .36499024 .44799806 .34566245 .46533204 .31833396 .47399903 .28300477 .47399903 .2549998 .47399903 .22832744 .46983338 .20298767 .46150209 .17765808 .45317079 .15399678 .44366966 .13200379 .43299867L.10499573 .49899293C.1283315 .5116679 .15599568 .52250167 .18798828 .53149417 .21999105 .5404968 .25332643 .54499819 .28799439 .54499819M.31399537 .2590027C.2473348 .2563375 .2011668 .24567159 .17549134 .227005 .14982605 .20833843 .13699341 .18200176 .13699341 .147995 .13699341 .117996219 .14615886 .09599813 .16448975 .08200073 .18283081 .068003337 .20633443 .06100464 .23500061 .06100464 .28032939 .06100464 .31799317 .07350159 .34799195 .09849548 .3780009 .12349955 .39300538 .16200257 .39300538 .21400452V.2619934L.31399537 .2590027Z"/>
<path id="font_10_88" d="M.53300479 .5359955V0H.46099855L.44799806 .070999149H.44400025C.43266807 .05233256 .41799928 .03699748 .3999939 .024993897 .3819987 .013000488 .3623352 .004170736 .34100343-.0014953613 .31967164-.0071614587 .29733787-.009994507 .27400209-.009994507 .2313385-.009994507 .19550579-.0031636556 .1665039 .010498047 .13750203 .024169922 .11566671 .045338949 .100997928 .07400513 .08632914 .1026713 .07899475 .13966878 .07899475 .18499756V.5359955H.16799927V.19099427C.16799927 .14833069 .17766316 .11633301 .19699097 .09500122 .21632894 .07366943 .24633281 .06300354 .28700257 .06300354 .32700096 .06300354 .35850016 .070500697 .38150025 .085494998 .40450035 .10049947 .4208323 .12250265 .43049623 .15150452 .4401703 .1805064 .44500733 .2156728 .44500733 .25700379V.5359955H.53300479Z"/>
<path id="font_10_79" d="M.17300415 0H.085006717V.7599945H.17300415V0Z"/>
<path id="font_10_87" d="M.26400758 .06199646C.2773336 .06199646 .29099528 .06316122 .30499269 .06549072 .31900025 .067830409 .33033753 .07033285 .33900453 .07299805V.005996704C.32966615 .0013275147 .31632997-.0025024415 .29899598-.005493164 .281662-.00849406 .2649943-.009994507 .24899292-.009994507 .22099813-.009994507 .195165-.005162557 .17149353 .004501343 .14783223 .014165242 .12866719 .030995688 .11399841 .054992677 .09932963 .07899984 .09199524 .1126709 .09199524 .15600586V.46800233H.01600647V.5099945L.09300232 .54499819 .12800598 .6589966H.17999268V.5359955H.3350067V.46800233H.17999268V.15800476C.17999268 .12533061 .18782552 .10116068 .20349121 .085494998 .21916707 .06982931 .23933919 .06199646 .26400758 .06199646Z"/>
<clipPath id="clip_11">
<path transform="matrix(.24,0,0,.24,0,0)" d="M0 0H2862.5V3283.3009H0Z"/>
</clipPath>
<clipPath id="clip_12">
<path transform="matrix(.24,0,0,.24,0,0)" d="M0 0H2862.9393V3278.1746H0Z"/>
</clipPath>
<clipPath id="clip_13">
<path transform="matrix(.24,0,0,.24,0,0)" d="M1441.8981 2477.5799H4197.619V5631.632H1441.8981Z"/>
</clipPath>
<clipPath id="clip_14">
<path transform="matrix(.24,0,0,.24,0,0)" d="M1441.8981 2584.1368H1690.7825V2667.2283H1441.8981M1441.8981 2477.5799H4197.229V5631.632H1441.8981" clip-rule="evenodd"/>
</clipPath>
<clipPath id="clip_15">
<path transform="matrix(.24,0,0,.24,0,0)" d="M0 0H2862.5V3278.1746H0Z" clip-rule="evenodd"/>
</clipPath>
<path id="font_10_38" d="M.40299989 .6450043C.36499534 .6450043 .33065797 .638504 .2999878 .62550356 .2693278 .61250308 .24333191 .5935008 .22200012 .5684967 .20066834 .5435028 .18433635 .51316836 .17300415 .4774933 .16167195 .4418284 .15600586 .4016622 .15600586 .35699464 .15600586 .29832969 .16517131 .24732971 .1835022 .20399475 .20183309 .16066997 .22916667 .12733968 .26550294 .104003909 .3018392 .08066813 .34733583 .069000247 .4019928 .069000247 .43333436 .069000247 .46300254 .07166544 .4909973 .07699585 .51900228 .082336429 .5463359 .08900452 .57299807 .09700012V.018997193C.5463359 .0089976 .5188344 .0016682943 .49049378-.0029907227 .4621633-.007659912 .42833457-.009994507 .38900758-.009994507 .31633506-.009994507 .2556661 .005004883 .20700073 .035003663 .15833538 .06500244 .12183634 .107666019 .09750366 .16299439 .07317098 .21833293 .06100464 .28333537 .06100464 .3580017 .06100464 .41199748 .06850179 .46132914 .083496097 .5059967 .09850057 .55066427 .12049866 .58933 .14949036 .621994 .17849224 .65466818 .21432495 .679835 .25698854 .6974945 .29966227 .7151642 .34866844 .723999 .40400697 .723999 .44066874 .723999 .47599793 .72033187 .5099945 .71299746 .5440013 .705663 .57433578 .6953328 .6009979 .68200686L.56500247 .6060028C.54299929 .6160024 .5184987 .625 .49150086 .6329956 .46450297 .6410014 .43500266 .6450043 .40299989 .6450043Z"/>
<path id="font_10_82" d="M.5509949 .2689972C.5509949 .22432964 .54516097 .18482971 .53349307 .15049744 .5218353 .11616516 .5051727 .086995448 .48350526 .06298828 .46183778 .03899129 .4355011 .020828248 .40449525 .0084991459 .37349955-.003829956 .33899943-.009994507 .30099488-.009994507 .26566569-.009994507 .23300171-.003829956 .20300293 .0084991459 .17300415 .020828248 .14700318 .03899129 .125 .06298828 .102996829 .086995448 .0858256 .11616516 .07348633 .15049744 .061157228 .18482971 .054992677 .22432964 .054992677 .2689972 .054992677 .32833354 .06499227 .37849937 .084991458 .41949464 .10500082 .4605001 .13367208 .49183656 .17100525 .513504 .20833843 .5351715 .2526703 .54600527 .30400086 .54600527 .35266624 .54600527 .39549766 .5351715 .43249513 .513504 .46950279 .49183656 .49850465 .4605001 .51950076 .41949464 .5404968 .37849937 .5509949 .32833354 .5509949 .2689972M.1459961 .2689972C.1459961 .22699483 .15149434 .1904958 .16249085 .15950012 .17349752 .12850444 .19066365 .104670207 .21398926 .08799744 .23732503 .07133484 .2669932 .06300354 .30299378 .06300354 .33899436 .06300354 .3686625 .07133484 .3919983 .08799744 .41533409 .104670207 .4325002 .12850444 .4434967 .15950012 .4545034 .1904958 .4600067 .22699483 .4600067 .2689972 .4600067 .31166078 .45433555 .34799195 .44299317 .37799073 .43166099 .40799967 .41449485 .4311676 .39149476 .4474945 .36849467 .46383158 .33866374 .47200013 .30200196 .47200013 .2473348 .47200013 .20766704 .45399986 .18299866 .41799928 .15833028 .3819987 .1459961 .33233134 .1459961 .2689972Z"/>
<path id="font_10_81" d="M.34300233 .54600527C.40699769 .54600527 .45532737 .5305023 .48799134 .49949647 .52066549 .46850077 .53700259 .41833497 .53700259 .34899903V0H.44999696V.34300233C.44999696 .38633729 .44032798 .41867066 .42099 .44000245 .4016622 .46133424 .3713328 .47200013 .33000184 .47200013 .2706655 .47200013 .22966512 .45533244 .20700073 .42199708 .18433635 .3886617 .17300415 .34066264 .17300415 .27799989V0H.085006717V.5359955H.15600586L.16900635 .46299745H.17399597C.18599956 .48166404 .2008311 .49716188 .2184906 .50949099 .23616028 .52183029 .255661 .5310008 .2769928 .53700259 .29833476 .54300436 .32033793 .54600527 .34300233 .54600527Z"/>
<path id="font_10_76" d="M.17300415 .5359955V0H.085006717V.5359955H.17300415M.13000489 .7369995C.14333089 .7369995 .15516155 .73249819 .16549683 .7234955 .17583211 .714503 .18099976 .7003377 .18099976 .68099978 .18099976 .6623332 .17583211 .6483307 .16549683 .6389923 .15516155 .6296641 .14333089 .625 .13000489 .625 .1153361 .625 .103001918 .6296641 .09300232 .6389923 .083002727 .6483307 .07800293 .6623332 .07800293 .68099978 .07800293 .7003377 .083002727 .714503 .09300232 .7234955 .103001918 .73249819 .1153361 .7369995 .13000489 .7369995Z"/>
<path id="font_10_85" d="M.3350067 .54600527C.34500633 .54600527 .35583497 .5455017 .36749269 .5444946 .37916056 .54349777 .389328 .54199728 .397995 .5399933L.3869934 .45899964C.37832643 .46100364 .3688253 .4626719 .35849 .46400453 .3481649 .46533714 .33833314 .46600343 .32899476 .46600343 .30833436 .46600343 .28867088 .46166993 .27000428 .45300294 .25133769 .44433595 .23467 .4321696 .22000122 .4165039 .20533245 .40083824 .1938324 .38200379 .1855011 .3600006 .1771698 .33799745 .17300415 .31332908 .17300415 .28599549V0H.085006717V.5359955H.15699768L.16700745 .43800355H.17100525C.18233745 .45800273 .19599915 .47616578 .21199036 .49249269 .22799175 .5088298 .24632772 .52183029 .2669983 .53149417 .28766886 .5411682 .31033836 .54600527 .3350067 .54600527Z"/>
<path id="font_10_3" d="M0 0Z"/>
<path id="font_10_37" d="M.30099488 .7140045C.39033 .7140045 .4578298 .7008362 .50349429 .6744995 .5491689 .64816287 .5720062 .6023305 .5720062 .53700259 .5720062 .5089976 .56683859 .48416139 .5565033 .4624939 .546168 .44082643 .53083297 .42282615 .51049807 .40849305 .49016319 .39415995 .46533204 .38432823 .43600465 .3789978V.37399293C.46600343 .3693339 .49316917 .3606669 .51750186 .34799195 .54183456 .33532716 .5609996 .31732688 .57499697 .2939911 .5889943 .2706655 .59599307 .2403361 .59599307 .20300293 .59599307 .15966797 .58599349 .12283325 .56599429 .09249878 .54599508 .062164308 .51749679 .039164228 .48049928 .023498536 .4435018 .007832845 .39933778 0 .3480072 0H.09700012V.7140045H.30099488M.31900025 .41000367C.3803304 .41000367 .42232768 .41983543 .44499208 .4394989 .46766664 .45916239 .4790039 .48832704 .4790039 .5269928 .4790039 .56632998 .46516929 .5944977 .4375 .611496 .40983073 .62849429 .36566163 .6369934 .30499269 .6369934H.18699646V.41000367H.31900025M.18699646 .3350067V.07600403H.33099366C.3943278 .07600403 .43832908 .08833313 .46299745 .11299133 .4876658 .13765972 .5 .16999817 .5 .21000672 .5 .2353363 .49449668 .25733439 .48349 .27600099 .4724935 .29466758 .4541626 .3091685 .4284973 .31950379 .40283204 .32983909 .3680013 .3350067 .32400514 .3350067H.18699646Z"/>
<path id="font_10_70" d="M.30000306-.009994507C.2526703-.009994507 .21050008-.0003306071 .17349243 .018997193 .13649495 .038335165 .10749308 .068333949 .08648682 .10899353 .06549072 .14966329 .054992677 .20166524 .054992677 .2649994 .054992677 .33099876 .06599426 .3846639 .08799744 .42599488 .11000061 .46733604 .13983155 .4976705 .17749024 .5169983 .2151591 .53633627 .2579956 .54600527 .30599977 .54600527 .33333335 .54600527 .35966493 .5431722 .3849945 .5375061 .41033427 .53184 .43100486 .5250041 .44700624 .5169983L.41999818 .44400025C.4039968 .45000205 .3853302 .45566813 .3639984 .46099855 .34266664 .46632896 .32266746 .46899415 .30400086 .46899415 .26800028 .46899415 .23833211 .46132914 .21499634 .44599916 .19166057 .43066917 .17432659 .40799967 .16299439 .37799073 .15166219 .34799195 .1459961 .31066386 .1459961 .26600648 .1459961 .22333272 .15166219 .18699646 .16299439 .15699768 .17432659 .1269989 .19132488 .10432943 .21398926 .08898926 .23666382 .07365926 .2649994 .06599426 .29899598 .06599426 .32833354 .06599426 .35416667 .068995159 .37649537 .07499695 .39883424 .08099874 .41933695 .08833313 .43800355 .09700012V.018997193C.41999818 .009668986 .40016175 .0025075277 .37849427-.0024871827 .35682679-.0074920656 .33066307-.009994507 .30000306-.009994507Z"/>
<path id="font_10_78" d="M.17199707 .3630066C.17199707 .3523356 .17149861 .33833314 .17050171 .32099916 .1695048 .30366517 .16867066 .28866578 .16799927 .27600099H.17199707C.17599488 .2813314 .18199158 .28899638 .18998719 .29899598 .19799297 .30899558 .2061615 .319163 .2144928 .3294983 .22283428 .3398336 .23000081 .34833274 .23599243 .35499574L.40699769 .5359955H.5099945L.29299928 .30700685 .5249939 0H.41900636L.23300171 .25 .17199707 .19700623V0H.085006717V.7599945H.17199707V.3630066Z"/>
<path id="font_10_71" d="M.2749939-.009994507C.20833333-.009994507 .15499878 .013168335 .114990238 .05949402 .07499186 .10582987 .054992677 .17499797 .054992677 .2669983 .054992677 .35899864 .075159709 .4284973 .115493778 .47549439 .15582784 .52250167 .20933025 .54600527 .27600099 .54600527 .30399577 .54600527 .32832847 .5425008 .34899903 .53549197 .3696696 .5284932 .3876699 .5189921 .40299989 .5069885 .41832987 .49499513 .43133036 .48166404 .44200135 .46699525H.44799806C.44733683 .47566224 .4461721 .48849488 .44450379 .50549319 .44283549 .52250167 .44200135 .5360057 .44200135 .54600527V.7599945H.5299988V0H.45899964L.44599916 .072006229H.44200135C.43133036 .056666059 .41832987 .042826337 .40299989 .03048706 .3876699 .018157959 .36950175 .008326213 .34849549 .0009918213 .3274994-.0063323976 .30299888-.009994507 .2749939-.009994507M.28900147 .06300354C.34566245 .06300354 .38549296 .07850138 .40849305 .10949707 .43149314 .14050293 .44299317 .18733724 .44299317 .25V.26600648C.44299317 .33266703 .43199159 .38382975 .4099884 .41949464 .3879954 .45516969 .34733073 .4730072 .28799439 .4730072 .24066162 .4730072 .2051595 .45417277 .18148804 .4165039 .15782674 .37883506 .1459961 .32833354 .1459961 .2649994 .1459961 .20100403 .15782674 .15133667 .18148804 .115997318 .2051595 .08066813 .24099732 .06300354 .28900147 .06300354Z"/>
<g id="font_16_2">
</g>
<clipPath id="clip_17">
<path transform="matrix(.24,0,0,.24,0,0)" d="M0 0H2862.5V3283.3009H0Z"/>
</clipPath>
<clipPath id="clip_18">
<path transform="matrix(.24,0,0,.24,0,0)" d="M0 0H2862.9393V3278.1746H0Z"/>
</clipPath>
<clipPath id="clip_19">
<path transform="matrix(.24,0,0,.24,0,0)" d="M1721.4912 2239.5845H4477.212V5393.6369H1721.4912Z"/>
</clipPath>
<clipPath id="clip_20">
<path transform="matrix(.24,0,0,.24,0,0)" d="M1799.7449 2239.5845H2072.6182V2275.5623H1799.7449M1721.4912 2239.5845H4476.8225V5393.6369H1721.4912" clip-rule="evenodd"/>
</clipPath>
<clipPath id="clip_21">
<path transform="matrix(.24,0,0,.24,0,0)" d="M0 0H2862.5V3278.1746H0Z" clip-rule="evenodd"/>
</clipPath>
<path id="font_10_47" d="M.09700012 0V.7140045H.18699646V.08000183H.49899293V0H.09700012Z"/>
<path id="font_10_51" d="M.28599549 .7140045C.3793284 .7140045 .44732667 .6956685 .48999024 .6589966 .532664 .6223348 .55400088 .5706685 .55400088 .5039978 .55400088 .4746704 .5491638 .4465027 .53948977 .41949464 .52982589 .39249674 .5139923 .3683319 .49198915 .34700013 .46999613 .32566834 .44066368 .3088328 .4039917 .29649354 .36732994 .28416444 .32233177 .27799989 .2689972 .27799989H.18699646V0H.09700012V.7140045H.28599549M.27799989 .6369934H.18699646V.35499574H.2590027C.30433146 .35499574 .34199525 .35982768 .37199403 .36949159 .40200297 .37916566 .42433677 .39466859 .43899537 .41600038 .45366416 .43733216 .46099855 .46533204 .46099855 .5 .46099855 .5460002 .44632975 .58033248 .4169922 .6029968 .3876648 .6256612 .34133403 .6369934 .27799989 .6369934Z"/>
<path id="font_10_86" d="M.43400575 .147995C.43400575 .11332703 .42533876 .08432516 .40800477 .06098938 .39067079 .037663778 .3660024 .019999186 .33399964 .0079956059 .30199687-.0039978029 .2639974-.009994507 .22000122-.009994507 .18266805-.009994507 .15049744-.006993612 .12348938-.0009918213 .09649149 .0049997966 .07266235 .013331096 .052001954 .024002076V.104003909C.07333374 .093332927 .09916687 .083496097 .12950135 .07449341 .15983582 .06550089 .19066875 .06100464 .22200012 .06100464 .2666677 .06100464 .29900108 .06817118 .31900025 .08250427 .33899943 .096837367 .34899903 .1160024 .34899903 .13999939 .34899903 .15333557 .34533183 .16533406 .33799745 .17599488 .33066307 .18666585 .31749473 .19733174 .29849244 .20799256 .27950035 .21866353 .2523346 .23066712 .21699524 .2440033 .18232727 .25733949 .1526591 .27067057 .12799073 .28399659 .10333252 .29733277 .08433533 .31333415 .070999149 .33200074 .057662965 .35066734 .050994874 .3746694 .050994874 .40400697 .050994874 .44933573 .069493617 .48433433 .10649109 .5090027 .14349874 .5336711 .19200135 .54600527 .2519989 .54600527 .28466288 .54600527 .31516014 .5428365 .3434906 .536499 .37183128 .53016158 .39833579 .5213267 .42300416 .5099945L.39300538 .44000245C.3703308 .44933067 .34665934 .45732627 .32199098 .46398927 .29733277 .47066245 .27200318 .47399903 .2460022 .47399903 .21000164 .47399903 .1825002 .46816508 .16349793 .4564972 .14449565 .44482932 .1349945 .42899577 .1349945 .40899659 .1349945 .3943278 .139328 .38182578 .147995 .37149049 .15666199 .36116538 .17116292 .35116578 .1914978 .3414917 .21183269 .3318278 .23899842 .32033286 .272995 .30700685 .30700175 .29433189 .33600364 .2813263 .3600006 .2679901 .3839976 .2546641 .4023285 .23849996 .4149933 .21949768 .42766825 .2004954 .43400575 .17666118 .43400575 .147995Z"/>
</defs>
<g clip-path="url(#clip_0)">
<path transform="matrix(.749412,0,0,.749297,0,0)" d="M0 0H916.8594V1050H0Z" fill="#f2f2f2"/>
</g>
<g clip-path="url(#clip_1)">
<path transform="matrix(.71966937,0,0,.7195558,0,0)" d="M0 0H954.76547V1093.3998H0Z" fill="#ffffff"/>
</g>
<g clip-path="url(#clip_2)">
<path transform="matrix(.71966597,0,0,.71955558,288.78593,192.90653)" d="M8 0H155.16292C155.6882 0 156.20845 .051239246 156.72364 .15371774 157.23883 .25619624 157.73908 .40794487 158.22438 .60896369 158.70969 .8099825 159.17072 1.0564089 159.60747 1.348243 160.04424 1.6400771 160.44834 1.9717112 160.81977 2.3431457 161.1912 2.7145799 161.52283 3.1186772 161.81467 3.5554376 162.10649 3.9921983 162.35292 4.4532296 162.55394 4.938532 162.75496 5.4238345 162.90671 5.9240829 163.00919 6.439277 163.11168 6.954471 163.16292 7.474712 163.16292 8V108.54494C163.16292 109.07023 163.11168 109.59046 163.0092 110.10565 162.90671 110.62084 162.75496 111.12109 162.55394 111.60639 162.35292 112.09169 162.10649 112.55272 161.81467 112.98948 161.52283 113.42624 161.1912 113.830348 160.81977 114.20178 160.44834 114.57322 160.04424 114.904857 159.60747 115.196689 159.17072 115.48852 158.70969 115.73494 158.22438 115.93596 157.73908 116.13698 157.23883 116.28873 156.72364 116.391208 156.20845 116.49369 155.6882 116.54494 155.16292 116.54494H8C7.474712 116.54494 6.954471 116.49369 6.4392769 116.391208 5.9240825 116.28873 5.4238345 116.13698 4.938532 115.93596 4.4532296 115.73494 3.9921983 115.48852 3.5554376 115.196689 3.1186772 114.904857 2.7145799 114.57322 2.3431457 114.20178 1.9717112 113.830348 1.640077 113.42624 1.3482429 112.98948 1.0564089 112.55272 .8099825 112.09168 .60896369 111.606388 .40794487 111.121089 .25619624 110.620838 .15371774 110.105648 .051239246 109.59046 0 109.07023 0 108.54494V8C0 7.474712 .051239246 6.954471 .15371774 6.4392769 .25619624 5.9240825 .40794487 5.4238345 .60896369 4.938532 .8099825 4.4532296 1.0564089 3.9921983 1.348243 3.5554376 1.6400771 3.1186772 1.9717112 2.7145799 2.3431457 2.3431457 2.7145799 1.9717112 3.1186772 1.640077 3.5554376 1.3482429 3.9921983 1.0564089 4.4532296 .8099825 4.938532 .60896369 5.4238345 .40794487 5.9240829 .25619624 6.439277 .15371774 6.954471 .051239246 7.474712 0 8 0Z" fill="#ffdd33"/>
<path transform="matrix(.012951892,0,0,.012952,322.95878,225.11789)" d="M85 0H171V-700H85V0Z" fill="#1a1a1a"/>
<path transform="matrix(.012951892,0,0,.012952,326.24855,225.11789)" d="M76 0H156V-272C156-370 218-439 305-439 381-439 431-381 431-295V0H511V-308C511-431 437-512 323-512 245-512 183-477 156-407V-504H76V0Z" fill="#1a1a1a"/>
<path transform="matrix(.012951892,0,0,.012952,333.7606,225.11789)" d="M76 0H156V-504H76V0ZM70-711V-599H162V-711H70Z" fill="#1a1a1a"/>
<path transform="matrix(.012951892,0,0,.012952,336.77836,225.11789)" d="M275 0H352V-71H278C229-71 197-104 197-160V-433H352V-504H197V-665H117V-531C117-512 108-504 90-504H12V-433H117V-158C117-60 178 0 275 0Z" fill="#1a1a1a"/>
<path transform="matrix(.012951892,0,0,.012952,341.6612,225.11789)" d="M76 0H156V-504H76V0ZM70-711V-599H162V-711H70Z" fill="#1a1a1a"/>
<path transform="matrix(.012951892,0,0,.012952,344.67897,225.11789)" d="M285 8C361 8 429-28 452-75V0H532V-504H452V-430C420-478 352-512 285-512 128-512 42-399 42-252 42-105 128 8 285 8ZM292-64C191-64 125-138 125-252 125-366 191-440 292-440 393-440 459-366 459-252 459-138 393-64 292-64Z" fill="#1a1a1a"/>
<path transform="matrix(.012951892,0,0,.012952,352.55366,225.11789)" d="M76 0H156V-711H76V0Z" fill="#1a1a1a"/>
<path transform="matrix(.012951892,0,0,.012952,355.57145,225.11789)" d="M76 0H156V-504H76V0ZM70-711V-599H162V-711H70Z" fill="#1a1a1a"/>
<path transform="matrix(.012951892,0,0,.012952,358.5892,225.11789)" d="M33 0H452V-71H129L438-433V-504H48V-433H345L33-71V0Z" fill="#1a1a1a"/>
<path transform="matrix(.012951892,0,0,.012952,364.75428,225.11789)" d="M290 8C415 8 504-59 521-162H440C424-99 372-63 290-63 195-63 126-137 120-241H514C515-248 516-265 516-276 516-410 428-512 281-512 133-512 41-403 41-255 41-111 141 8 290 8ZM124-305C139-394 196-444 281-444 371-444 428-390 434-305H124Z" fill="#1a1a1a"/>
<use data-text=" " xlink:href="#font_3_2" transform="matrix(12.951891,0,0,-12.952,372.02024,225.11789)" fill="#1a1a1a"/>
<path transform="matrix(.013000638,0,0,.012952,318.56208,240.22855)" d="M172 0V-253L274-358 532 0H635L333-419 605-700H496L172-368V-700H85V0H172Z" fill="#1a1a1a"/>
<path transform="matrix(.013000638,0,0,.012952,326.4144,240.22855)" d="M504-504H424V-232C424-134 362-65 276-65 200-65 150-123 150-209V-504H70V-196C70-73 144 8 258 8 335 8 397-27 424-97V0H504V-504Z" fill="#1a1a1a"/>
<path transform="matrix(.013000638,0,0,.012952,333.9547,240.22855)" d="M323 8C481 8 567-105 567-252 567-399 481-512 324-512 252-512 187-476 156-422V-711H76V0H156V-83C187-28 253 8 323 8ZM317-64C215-64 149-138 149-252 149-366 215-440 317-440 418-440 484-366 484-252 484-138 418-64 317-64Z" fill="#1a1a1a"/>
<path transform="matrix(.013000638,0,0,.012952,341.85908,240.22855)" d="M290 8C415 8 504-59 521-162H440C424-99 372-63 290-63 195-63 126-137 120-241H514C515-248 516-265 516-276 516-410 428-512 281-512 133-512 41-403 41-255 41-111 141 8 290 8ZM124-305C139-394 196-444 281-444 371-444 428-390 434-305H124Z" fill="#1a1a1a"/>
<path transform="matrix(.013000638,0,0,.012952,349.07438,240.22855)" d="M85 0H171V-315H458V-392H171V-623H523V-700H85V0Z" fill="#1a1a1a"/>
<path transform="matrix(.013000638,0,0,.012952,356.13368,240.22855)" d="M76 0H156V-711H76V0Z" fill="#1a1a1a"/>
<path transform="matrix(.013000638,0,0,.012952,359.16279,240.22855)" d="M297 8C447 8 554-101 554-252 554-404 447-512 297-512 148-512 41-404 41-252 41-101 148 8 297 8ZM297-64C194-64 123-142 123-252 123-362 194-440 297-440 401-440 472-362 472-252 472-142 401-64 297-64Z" fill="#1a1a1a"/>
<path transform="matrix(.013000638,0,0,.012952,366.82014,240.22855)" d="M177 0H254L377-401 501 0H578L731-504H650L540-104 417-504H339L215-104 104-504H24L177 0Z" fill="#1a1a1a"/>
<use data-text=" " xlink:href="#font_3_2" transform="matrix(13.000638,0,0,-12.952,376.41453,240.22855)" fill="#1a1a1a"/>
<path transform="matrix(.013017554,0,0,.012952,313.01835,255.33922)" d="M236 0H321V-623H544V-700H11V-623H236V0Z" fill="#1a1a1a"/>
<path transform="matrix(.013017554,0,0,.012952,318.98036,255.33922)" d="M288-433H357V-504H293C219-504 178-471 156-402V-504H76V0H156V-222C156-341 186-433 288-433Z" fill="#1a1a1a"/>
<path transform="matrix(.013017554,0,0,.012952,323.5755,255.33922)" d="M285 8C361 8 429-28 452-75V0H532V-504H452V-430C420-478 352-512 285-512 128-512 42-399 42-252 42-105 128 8 285 8ZM292-64C191-64 125-138 125-252 125-366 191-440 292-440 393-440 459-366 459-252 459-138 393-64 292-64Z" fill="#1a1a1a"/>
<path transform="matrix(.013017554,0,0,.012952,331.49015,255.33922)" d="M76 0H156V-504H76V0ZM70-711V-599H162V-711H70Z" fill="#1a1a1a"/>
<path transform="matrix(.013017554,0,0,.012952,334.52323,255.33922)" d="M76 0H156V-272C156-370 218-439 305-439 381-439 431-381 431-295V0H511V-308C511-431 437-512 323-512 245-512 183-477 156-407V-504H76V0Z" fill="#1a1a1a"/>
<path transform="matrix(.013017554,0,0,.012952,342.07337,255.33922)" d="M290 8C415 8 504-59 521-162H440C424-99 372-63 290-63 195-63 126-137 120-241H514C515-248 516-265 516-276 516-410 428-512 281-512 133-512 41-403 41-255 41-111 141 8 290 8ZM124-305C139-394 196-444 281-444 371-444 428-390 434-305H124Z" fill="#1a1a1a"/>
<path transform="matrix(.013017554,0,0,.012952,349.37617,255.33922)" d="M288-433H357V-504H293C219-504 178-471 156-402V-504H76V0H156V-222C156-341 186-433 288-433Z" fill="#1a1a1a"/>
<use data-text=" " xlink:href="#font_3_2" transform="matrix(13.017553,0,0,-12.952,353.8672,255.33922)" fill="#1a1a1a"/>
<path transform="matrix(.013017554,0,0,.012952,356.99137,255.33922)" d="M303 8C450 8 559-64 559-191 559-454 147-343 147-522 147-589 204-631 298-631 392-631 453-580 461-501H545C535-627 438-708 298-708 158-708 61-633 61-522 61-272 471-371 471-191 471-106 400-69 303-69 194-69 130-132 121-229H37C46-86 146 8 303 8Z" fill="#1a1a1a"/>
<path transform="matrix(.013017554,0,0,.012952,364.8409,255.33922)" d="M85 0H291C487 0 641-127 641-350 641-573 487-700 291-700H85V0ZM290-77H171V-623H290C426-623 552-543 552-350 552-157 426-77 290-77Z" fill="#1a1a1a"/>
<path transform="matrix(.013017554,0,0,.012952,373.7839,255.33922)" d="M172 0V-253L274-358 532 0H635L333-419 605-700H496L172-368V-700H85V0H172Z" fill="#1a1a1a"/>
<path transform="matrix(.71966597,0,0,.71955558,288.78593,345.27604)" d="M81.58146 0H152.9167C153.52457-.000000056578 154.12464 .0683938 154.71692 .2051816 155.3092 .3419694 155.8785 .5436428 156.4248 .81020197 156.9711 1.076761 157.48041 1.401369 157.95272 1.7840262 158.42504 2.1666833 158.84824 2.5975753 159.22234 3.0767019 159.59642 3.5558284 159.9118 4.070901 160.16849 4.6219198 160.42516 5.1729385 160.61655 5.7457716 160.74266 6.3404185 160.86875 6.9350645 160.92633 7.5362737 160.91539 8.144046 160.90444 8.751817 160.82526 9.350563 160.67784 9.940285L135.54161 110.48522C135.32526 111.35065 134.97397 112.15732 134.48775 112.905239 134.00156 113.65315 133.4069 114.3016 132.70377 114.850589 132.00064 115.39957 131.22733 115.8192 130.38382 116.10949 129.54032 116.39979 128.67253 116.54494 127.780467 116.54494H10.246211C9.63834 116.54493 9.038265 116.47653 8.445986 116.33974 7.853706 116.20295 7.2844126 116.00128 6.7381045 115.734729 6.1917965 115.46816 5.6824858 115.14355 5.210172 114.760898 4.7378594 114.37824 4.3146579 113.94736 3.9405673 113.46823 3.5664764 112.9891 3.2510913 112.47402 2.994412 111.923 2.737733 111.37198 2.5463429 110.79915 2.4202419 110.204509 2.2941406 109.60986 2.2365626 109.00865 2.2475079 108.40087 2.258453 107.793109 2.3376408 107.19437 2.4850713 106.60465L27.621306 6.059715C27.837662 5.194289 28.188944 4.3876197 28.675152 3.6397055 29.161358 2.891791 29.756024 2.2433415 30.459149 1.6943566 31.162276 1.1453717 31.935593 .72573277 32.7791 .43543966 33.622606 .14514655 34.490388 0 35.382448 0H81.58146Z" fill="#8fd14f"/>
<path transform="matrix(.013037248,0,0,.012952,323.12434,385.04273)" d="M343 8C502 8 608-87 608-240V-700H524V-236C524-133 452-69 343-69 235-69 163-133 163-236V-700H79V-240C79-87 185 8 343 8Z" fill="#1a1a1a"/>
<path transform="matrix(.013037248,0,0,.012952,332.00263,385.04273)" d="M238 8C349 8 424-50 424-140 424-371 129-236 129-372 129-416 168-444 227-444 272-444 335-422 343-358H420C414-451 339-512 229-512 122-512 50-456 50-371 50-153 344-288 344-138 344-97 302-62 238-62 165-62 121-97 114-162H37C45-57 122 8 238 8Z" fill="#1a1a1a"/>
<path transform="matrix(.013037248,0,0,.012952,338.07795,385.04273)" d="M290 8C415 8 504-59 521-162H440C424-99 372-63 290-63 195-63 126-137 120-241H514C515-248 516-265 516-276 516-410 428-512 281-512 133-512 41-403 41-255 41-111 141 8 290 8ZM124-305C139-394 196-444 281-444 371-444 428-390 434-305H124Z" fill="#1a1a1a"/>
<path transform="matrix(.013037248,0,0,.012952,345.39179,385.04273)" d="M288-433H357V-504H293C219-504 178-471 156-402V-504H76V0H156V-222C156-341 186-433 288-433Z" fill="#1a1a1a"/>
<use data-text=" " xlink:href="#font_3_2" transform="matrix(13.037247,0,0,-12.952,349.88963,385.04273)" fill="#1a1a1a"/>
<path transform="matrix(.013037248,0,0,.012952,353.01853,385.04273)" d="M85 0H171V-700H85V0Z" fill="#1a1a1a"/>
<path transform="matrix(.013037248,0,0,.012952,356.33,385.04273)" d="M76 0H156V-272C156-370 218-439 305-439 381-439 431-381 431-295V0H511V-308C511-431 437-512 323-512 245-512 183-477 156-407V-504H76V0Z" fill="#1a1a1a"/>
<path transform="matrix(.013037248,0,0,.012952,363.89155,385.04273)" d="M76 0H156V-504H76V0ZM70-711V-599H162V-711H70Z" fill="#1a1a1a"/>
<path transform="matrix(.013037248,0,0,.012952,366.9292,385.04273)" d="M275 0H352V-71H278C229-71 197-104 197-160V-433H352V-504H197V-665H117V-531C117-512 108-504 90-504H12V-433H117V-158C117-60 178 0 275 0Z" fill="#1a1a1a"/>
<use data-text=" " xlink:href="#font_3_2" transform="matrix(13.037247,0,0,-12.952,371.8442,385.04273)" fill="#1a1a1a"/>
<path transform="matrix(.012952479,0,0,.012952,312.88029,400.15339)" d="M85 0H171V-286H349C487-286 572-370 572-493 572-616 487-700 349-700H85V0ZM349-362H171V-624H349C447-624 484-562 484-493 484-424 447-362 349-362Z" fill="#1a1a1a"/>
<path transform="matrix(.012952479,0,0,.012952,320.40565,400.15339)" d="M285 8C361 8 429-28 452-75V0H532V-504H452V-430C420-478 352-512 285-512 128-512 42-399 42-252 42-105 128 8 285 8ZM292-64C191-64 125-138 125-252 125-366 191-440 292-440 393-440 459-366 459-252 459-138 393-64 292-64Z" fill="#1a1a1a"/>
<path transform="matrix(.012952479,0,0,.012952,328.2807,400.15339)" d="M288-433H357V-504H293C219-504 178-471 156-402V-504H76V0H156V-222C156-341 186-433 288-433Z" fill="#1a1a1a"/>
<path transform="matrix(.012952479,0,0,.012952,332.8529,400.15339)" d="M285 8C361 8 429-28 452-75V0H532V-504H452V-430C420-478 352-512 285-512 128-512 42-399 42-252 42-105 128 8 285 8ZM292-64C191-64 125-138 125-252 125-366 191-440 292-440 393-440 459-366 459-252 459-138 393-64 292-64Z" fill="#1a1a1a"/>
<path transform="matrix(.012952479,0,0,.012952,340.72798,400.15339)" d="M76 0H156V-296C156-382 207-441 291-441 361-441 404-382 404-296V0H484V-296C484-382 534-441 619-441 690-441 733-382 733-296V0H813V-317C813-439 746-512 637-512 561-512 493-465 474-405 457-474 392-512 309-512 231-512 176-468 156-407V-504H76V0Z" fill="#1a1a1a"/>
<path transform="matrix(.012952479,0,0,.012952,352.15199,400.15339)" d="M290 8C415 8 504-59 521-162H440C424-99 372-63 290-63 195-63 126-137 120-241H514C515-248 516-265 516-276 516-410 428-512 281-512 133-512 41-403 41-255 41-111 141 8 290 8ZM124-305C139-394 196-444 281-444 371-444 428-390 434-305H124Z" fill="#1a1a1a"/>
<path transform="matrix(.012952479,0,0,.012952,359.32759,400.15339)" d="M275 0H352V-71H278C229-71 197-104 197-160V-433H352V-504H197V-665H117V-531C117-512 108-504 90-504H12V-433H117V-158C117-60 178 0 275 0Z" fill="#1a1a1a"/>
<path transform="matrix(.012952479,0,0,.012952,364.13294,400.15339)" d="M290 8C415 8 504-59 521-162H440C424-99 372-63 290-63 195-63 126-137 120-241H514C515-248 516-265 516-276 516-410 428-512 281-512 133-512 41-403 41-255 41-111 141 8 290 8ZM124-305C139-394 196-444 281-444 371-444 428-390 434-305H124Z" fill="#1a1a1a"/>
<path transform="matrix(.012952479,0,0,.012952,371.39924,400.15339)" d="M288-433H357V-504H293C219-504 178-471 156-402V-504H76V0H156V-222C156-341 186-433 288-433Z" fill="#1a1a1a"/>
<path transform="matrix(.012952479,0,0,.012952,376.06208,400.15339)" d="M238 8C349 8 424-50 424-140 424-371 129-236 129-372 129-416 168-444 227-444 272-444 335-422 343-358H420C414-451 339-512 229-512 122-512 50-456 50-371 50-153 344-288 344-138 344-97 302-62 238-62 165-62 121-97 114-162H37C45-57 122 8 238 8Z" fill="#1a1a1a"/>
<path transform="matrix(.71966597,0,0,.71955558,347.49485,276.76783)" stroke-width="2" stroke-linecap="butt" stroke-miterlimit="4" stroke-linejoin="miter" fill="none" stroke="#333333" d="M0 0V85.03257"/>
<path transform="matrix(0,.71955558,-.71966597,0,347.49485,345.2799)" d="M-12.727273-7.5454547 0 0-12.727273 7.5454547V-7.5454547Z" fill="#333333"/>
<path transform="matrix(.71966597,0,0,.71955558,280.4,481.82795)" d="M46.617975 39.688016 88.05 4.4150326C88.773548 3.799049 89.5812 3.3269642 90.47296 2.9987777 91.364719 2.6705909 92.28571 2.5064975 93.235958 2.5064975 94.18619 2.5064975 95.10719 2.6705907 95.998958 2.9987775 96.89072 3.3269642 97.698368 3.799049 98.4219 4.4150326L179.31679 73.28457C179.75788 73.66008 180.15349 74.07856 180.50365 74.540019 180.85384 75.00147 181.15039 75.49514 181.39333 76.02101 181.63626 76.54688 181.8199 77.0927 181.94426 77.65847 182.06864 78.22423 182.13083 78.79675 182.13083 79.37603 182.13083 79.95531 182.06864 80.527828 181.94426 81.09359 181.81989 81.659358 181.63625 82.20518 181.39331 82.73105 181.15038 83.25692 180.85382 83.75059 180.50365 84.21204 180.15349 84.6735 179.75788 85.09199 179.31679 85.4675L98.4219 154.33704C97.698368 154.95302 96.89072 155.42511 95.998958 155.7533 95.10719 156.08148 94.186199 156.24558 93.23596 156.24558 92.28573 156.24558 91.36473 156.08148 90.47296 155.7533 89.5812 155.42511 88.77355 154.95302 88.05 154.33704L7.1551039 85.4675C6.714024 85.09199 6.318397 84.67351 5.9682238 84.21206 5.6180498 83.7506 5.3214948 83.256938 5.078559 82.73106 4.8356235 82.205188 4.651971 81.65937 4.5276029 81.0936 4.4032347 80.527828 4.34105 79.95531 4.3410508 79.37603 4.34105 78.79675 4.4032347 78.224239 4.5276029 77.65847 4.651971 77.092708 4.835623 76.54688 5.0785586 76.02101 5.3214948 75.49514 5.6180498 75.00147 5.9682238 74.540019 6.318397 74.07856 6.714024 73.66008 7.1551039 73.28457L46.617975 39.688016Z" fill="#2c2e33"/>
<path transform="matrix(.71966597,0,0,.71955558,280.4,481.82795)" stroke-width="2" stroke-linecap="round" stroke-linejoin="round" fill="none" stroke="#1a1a1a" d="M46.617975 39.688016 88.05 4.4150326C88.773548 3.799049 89.5812 3.3269642 90.47296 2.9987777 91.364719 2.6705909 92.28571 2.5064975 93.235958 2.5064975 94.18619 2.5064975 95.10719 2.6705907 95.998958 2.9987775 96.89072 3.3269642 97.698368 3.799049 98.4219 4.4150326L179.31679 73.28457C179.75788 73.66008 180.15349 74.07856 180.50365 74.540019 180.85384 75.00147 181.15039 75.49514 181.39333 76.02101 181.63626 76.54688 181.8199 77.0927 181.94426 77.65847 182.06864 78.22423 182.13083 78.79675 182.13083 79.37603 182.13083 79.95531 182.06864 80.527828 181.94426 81.09359 181.81989 81.659358 181.63625 82.20518 181.39331 82.73105 181.15038 83.25692 180.85382 83.75059 180.50365 84.21204 180.15349 84.6735 179.75788 85.09199 179.31679 85.4675L98.4219 154.33704C97.698368 154.95302 96.89072 155.42511 95.998958 155.7533 95.10719 156.08148 94.186199 156.24558 93.23596 156.24558 92.28573 156.24558 91.36473 156.08148 90.47296 155.7533 89.5812 155.42511 88.77355 154.95302 88.05 154.33704L7.1551039 85.4675C6.714024 85.09199 6.318397 84.67351 5.9682238 84.21206 5.6180498 83.7506 5.3214948 83.256938 5.078559 82.73106 4.8356235 82.205188 4.651971 81.65937 4.5276029 81.0936 4.4032347 80.527828 4.34105 79.95531 4.3410508 79.37603 4.34105 78.79675 4.4032347 78.224239 4.5276029 77.65847 4.651971 77.092708 4.835623 76.54688 5.0785586 76.02101 5.3214948 75.49514 5.6180498 75.00147 5.9682238 74.540019 6.318397 74.07856 6.714024 73.66008 7.1551039 73.28457L46.617975 39.688016Z"/>
<path transform="matrix(.012952738,0,0,.012952,318.34608,536.7844)" d="M85 0H534V-77H171V-323H458V-400H171V-623H523V-700H85V0Z" fill="#ffffff"/>
<path transform="matrix(.012952738,0,0,.012952,325.755,536.7844)" d="M93 0 235-203 377 0H462L279-265 446-504H357L235-328 113-504H24L191-265 8 0H93Z" fill="#ffffff"/>
<path transform="matrix(.012952738,0,0,.012952,331.59666,536.7844)" d="M290 8C415 8 504-59 521-162H440C424-99 372-63 290-63 195-63 126-137 120-241H514C515-248 516-265 516-276 516-410 428-512 281-512 133-512 41-403 41-255 41-111 141 8 290 8ZM124-305C139-394 196-444 281-444 371-444 428-390 434-305H124Z" fill="#ffffff"/>
<path transform="matrix(.012952738,0,0,.012952,338.86308,536.7844)" d="M286 8C414 8 497-60 514-163H436C418-102 363-64 287-64 178-64 124-149 124-252 124-355 177-440 287-440 363-440 426-395 436-334H515C500-446 399-512 286-512 127-512 41-387 41-252 41-117 127 8 286 8Z" fill="#ffffff"/>
<path transform="matrix(.012952738,0,0,.012952,346,536.7844)" d="M504-504H424V-232C424-134 362-65 276-65 200-65 150-123 150-209V-504H70V-196C70-73 144 8 258 8 335 8 397-27 424-97V0H504V-504Z" fill="#ffffff"/>
<path transform="matrix(.012952738,0,0,.012952,353.51255,536.7844)" d="M275 0H352V-71H278C229-71 197-104 197-160V-433H352V-504H197V-665H117V-531C117-512 108-504 90-504H12V-433H117V-158C117-60 178 0 275 0Z" fill="#ffffff"/>
<path transform="matrix(.012952738,0,0,.012952,358.3957,536.7844)" d="M76 0H156V-504H76V0ZM70-711V-599H162V-711H70Z" fill="#ffffff"/>
<path transform="matrix(.012952738,0,0,.012952,361.41368,536.7844)" d="M297 8C447 8 554-101 554-252 554-404 447-512 297-512 148-512 41-404 41-252 41-101 148 8 297 8ZM297-64C194-64 123-142 123-252 123-362 194-440 297-440 401-440 472-362 472-252 472-142 401-64 297-64Z" fill="#ffffff"/>
<path transform="matrix(.012952738,0,0,.012952,369.12049,536.7844)" d="M76 0H156V-272C156-370 218-439 305-439 381-439 431-381 431-295V0H511V-308C511-431 437-512 323-512 245-512 183-477 156-407V-504H76V0Z" fill="#ffffff"/>
<use data-text=" " xlink:href="#font_4_2" transform="matrix(12.952738,0,0,-12.952,376.63304,536.7844)" fill="#ffffff"/>
<path transform="matrix(.012952421,0,0,.012952,327.65678,551.8951)" d="M85 0H168V-558L390 0H464L686-558V0H769V-700H658L427-115 197-700H85V0Z" fill="#ffffff"/>
<path transform="matrix(.012952421,0,0,.012952,338.6274,551.8951)" d="M297 8C447 8 554-101 554-252 554-404 447-512 297-512 148-512 41-404 41-252 41-101 148 8 297 8ZM297-64C194-64 123-142 123-252 123-362 194-440 297-440 401-440 472-362 472-252 472-142 401-64 297-64Z" fill="#ffffff"/>
<path transform="matrix(.012952421,0,0,.012952,346.33406,551.8951)" d="M285 8C356 8 422-28 452-83V0H532V-711H452V-422C422-476 356-512 285-512 128-512 42-399 42-252 42-105 128 8 285 8ZM292-64C191-64 125-138 125-252 125-366 191-440 292-440 393-440 459-366 459-252 459-138 393-64 292-64Z" fill="#ffffff"/>
<path transform="matrix(.012952421,0,0,.012952,354.20909,551.8951)" d="M290 8C415 8 504-59 521-162H440C424-99 372-63 290-63 195-63 126-137 120-241H514C515-248 516-265 516-276 516-410 428-512 281-512 133-512 41-403 41-255 41-111 141 8 290 8ZM124-305C139-394 196-444 281-444 371-444 428-390 434-305H124Z" fill="#ffffff"/>
<path transform="matrix(.012952421,0,0,.012952,360.91838,551.8951)" d="M184-217V-158H265V-215C265-353 468-334 468-523 468-636 385-709 253-708 128-707 26-628 17-499H103C110-587 175-633 253-633 332-633 382-589 382-520 382-372 184-403 184-217ZM183-93V0H274V-93H183Z" fill="#ffffff"/>
<path transform="matrix(.71966597,0,0,.71955558,347.49485,429.13737)" stroke-width="2" stroke-linecap="butt" stroke-miterlimit="4" stroke-linejoin="miter" fill="none" stroke="#333333" d="M0 0V63.040609"/>
<path transform="matrix(0,.71955558,-.71966597,0,347.49485,481.82499)" d="M-12.727273-7.5454547 0 0-12.727273 7.5454547V-7.5454547Z" fill="#333333"/>
<path transform="matrix(.71966597,0,0,.71955558,18.562939,497.0087)" d="M8 0H155.16292C155.6882 0 156.20845 .051239246 156.72364 .15371774 157.23883 .25619624 157.73908 .40794487 158.22438 .60896369 158.70969 .8099825 159.17072 1.0564089 159.60747 1.348243 160.04424 1.6400771 160.44834 1.9717112 160.81977 2.3431457 161.1912 2.7145799 161.52283 3.1186772 161.81467 3.5554376 162.10649 3.9921983 162.35292 4.4532296 162.55394 4.938532 162.75496 5.4238345 162.90671 5.9240829 163.00919 6.439277 163.11168 6.954471 163.16292 7.474712 163.16292 8V108.54494C163.16292 109.07023 163.11168 109.59046 163.0092 110.10565 162.90671 110.62084 162.75496 111.12109 162.55394 111.60639 162.35292 112.09169 162.10649 112.55272 161.81467 112.98948 161.52283 113.42624 161.1912 113.830348 160.81977 114.20178 160.44834 114.57322 160.04424 114.904857 159.60747 115.196689 159.17072 115.48852 158.70969 115.73494 158.22438 115.93596 157.73908 116.13698 157.23883 116.28873 156.72364 116.391208 156.20845 116.49369 155.6882 116.54494 155.16292 116.54494H8C7.474712 116.54494 6.954471 116.49369 6.4392769 116.391208 5.9240825 116.28873 5.4238345 116.13698 4.938532 115.93596 4.4532296 115.73494 3.9921983 115.48852 3.5554376 115.196689 3.1186772 114.904857 2.7145799 114.57322 2.3431457 114.20178 1.9717112 113.830348 1.640077 113.42624 1.3482429 112.98948 1.0564089 112.55272 .8099825 112.09168 .60896369 111.606388 .40794487 111.121089 .25619624 110.620838 .15371774 110.105648 .051239246 109.59046 0 109.07023 0 108.54494V8C0 7.474712 .051239246 6.954471 .15371774 6.4392769 .25619624 5.9240825 .40794487 5.4238345 .60896369 4.938532 .8099825 4.4532296 1.0564089 3.9921983 1.348243 3.5554376 1.6400771 3.1186772 1.9717112 2.7145799 2.3431457 2.3431457 2.7145799 1.9717112 3.1186772 1.640077 3.5554376 1.3482429 3.9921983 1.0564089 4.4532296 .8099825 4.938532 .60896369 5.4238345 .40794487 5.9240829 .25619624 6.439277 .15371774 6.954471 .051239246 7.474712 0 8 0Z" fill="#f5921b"/>
<path transform="matrix(.012947979,0,0,.012952,65.5099,544.33078)" d="M172 0V-253L274-358 532 0H635L333-419 605-700H496L172-368V-700H85V0H172Z" fill="#333333"/>
<path transform="matrix(.012947979,0,0,.012952,73.52464,544.33078)" d="M297 8C432 8 546-66 546-199 546-284 490-352 416-377 472-404 518-454 518-524 518-632 428-708 297-708 166-708 76-632 76-524 76-454 122-404 178-377 105-352 48-284 48-199 48-66 162 8 297 8ZM297-69C199-69 135-118 135-199 135-282 199-332 297-332 395-332 459-282 459-199 459-118 395-69 297-69ZM297-410C214-410 161-453 161-523 161-592 214-633 297-633 380-633 433-592 433-523 433-453 380-410 297-410Z" fill="#333333"/>
<path transform="matrix(.012947979,0,0,.012952,81.2157,544.33078)" d="M303 8C450 8 559-64 559-191 559-454 147-343 147-522 147-589 204-631 298-631 392-631 453-580 461-501H545C535-627 438-708 298-708 158-708 61-633 61-522 61-272 471-371 471-191 471-106 400-69 303-69 194-69 130-132 121-229H37C46-86 146 8 303 8Z" fill="#333333"/>
</g>
<g clip-path="url(#clip_5)">
<g clip-path="url(#clip_6)">
<g clip-path="url(#clip_7)">
<g clip-path="url(#clip_8)">
<path transform="matrix(.71966597,0,0,.71955558,135.9883,538.9394)" stroke-width="2" stroke-linecap="butt" stroke-miterlimit="4" stroke-linejoin="miter" fill="none" stroke="#333333" d="M200.6634 0H10.181818"/>
</g>
</g>
</g>
</g>
<g clip-path="url(#clip_9)">
<path transform="matrix(-.71966597,0,0,-.71955558,135.9883,538.9394)" d="M-12.727273-7.5454547 0 0-12.727273 7.5454547V-7.5454547Z" fill="#333333"/>
<use data-text="D" xlink:href="#font_10_39" transform="matrix(12.952523,0,0,-12.952,189.59272,542.63998)" fill="#333333"/>
<use data-text="e" xlink:href="#font_10_72" transform="matrix(12.952523,0,0,-12.952,199.048,542.63998)" fill="#333333"/>
<use data-text="f" xlink:href="#font_10_73" transform="matrix(12.952523,0,0,-12.952,206.3532,542.63998)" fill="#333333"/>
<use data-text="a" xlink:href="#font_10_68" transform="matrix(12.952523,0,0,-12.952,210.80886,542.63998)" fill="#333333"/>
<use data-text="u" xlink:href="#font_10_88" transform="matrix(12.952523,0,0,-12.952,218.0752,542.63998)" fill="#333333"/>
<use data-text="l" xlink:href="#font_10_79" transform="matrix(12.952523,0,0,-12.952,226.07982,542.63998)" fill="#333333"/>
<use data-text="t" xlink:href="#font_10_87" transform="matrix(12.952523,0,0,-12.952,229.42156,542.63998)" fill="#333333"/>
<path transform="matrix(.71966597,0,0,.71955558,288.78593,690.06509)" d="M8 0H155.16292C155.6882 0 156.20845 .051239246 156.72364 .15371774 157.23883 .25619624 157.73908 .40794487 158.22438 .60896369 158.70969 .8099825 159.17072 1.0564089 159.60747 1.348243 160.04424 1.6400771 160.44834 1.9717112 160.81977 2.3431457 161.1912 2.7145799 161.52283 3.1186772 161.81467 3.5554376 162.10649 3.9921983 162.35292 4.4532296 162.55394 4.938532 162.75496 5.4238345 162.90671 5.9240829 163.00919 6.439277 163.11168 6.954471 163.16292 7.474712 163.16292 8V108.54494C163.16292 109.07023 163.11168 109.59046 163.0092 110.10565 162.90671 110.62084 162.75496 111.12109 162.55394 111.60639 162.35292 112.09169 162.10649 112.55272 161.81467 112.98948 161.52283 113.42624 161.1912 113.830348 160.81977 114.20178 160.44834 114.57322 160.04424 114.904857 159.60747 115.196689 159.17072 115.48852 158.70969 115.73494 158.22438 115.93596 157.73908 116.13698 157.23883 116.28873 156.72364 116.391208 156.20845 116.49369 155.6882 116.54494 155.16292 116.54494H8C7.474712 116.54494 6.954471 116.49369 6.4392769 116.391208 5.9240825 116.28873 5.4238345 116.13698 4.938532 115.93596 4.4532296 115.73494 3.9921983 115.48852 3.5554376 115.196689 3.1186772 114.904857 2.7145799 114.57322 2.3431457 114.20178 1.9717112 113.830348 1.640077 113.42624 1.3482429 112.98948 1.0564089 112.55272 .8099825 112.09168 .60896369 111.606388 .40794487 111.121089 .25619624 110.620838 .15371774 110.105648 .051239246 109.59046 0 109.07023 0 108.54494V8C0 7.474712 .051239246 6.954471 .15371774 6.4392769 .25619624 5.9240825 .40794487 5.4238345 .60896369 4.938532 .8099825 4.4532296 1.0564089 3.9921983 1.348243 3.5554376 1.6400771 3.1186772 1.9717112 2.7145799 2.3431457 2.3431457 2.7145799 1.9717112 3.1186772 1.640077 3.5554376 1.3482429 3.9921983 1.0564089 4.4532296 .8099825 4.938532 .60896369 5.4238345 .40794487 5.9240829 .25619624 6.439277 .15371774 6.954471 .051239246 7.474712 0 8 0Z" fill="#f5921b"/>
<path transform="matrix(.012952923,0,0,.012952,317.63999,737.38717)" d="M384 8C540 8 664-87 679-218H592C581-132 493-69 384-69 238-69 135-168 135-350 135-532 238-631 384-631 491-631 578-568 591-482H680C661-613 537-708 384-708 210-708 47-592 47-350 47-109 209 8 384 8Z" fill="#2c2e33"/>
<path transform="matrix(.012952923,0,0,.012952,326.9272,737.38717)" d="M297 8C447 8 554-101 554-252 554-404 447-512 297-512 148-512 41-404 41-252 41-101 148 8 297 8ZM297-64C194-64 123-142 123-252 123-362 194-440 297-440 401-440 472-362 472-252 472-142 401-64 297-64Z" fill="#2c2e33"/>
<path transform="matrix(.012952923,0,0,.012952,334.63414,737.38717)" d="M76 0H156V-272C156-370 218-439 305-439 381-439 431-381 431-295V0H511V-308C511-431 437-512 323-512 245-512 183-477 156-407V-504H76V0Z" fill="#2c2e33"/>
<path transform="matrix(.012952923,0,0,.012952,342.04316,737.38717)" d="M275 0H352V-71H278C229-71 197-104 197-160V-433H352V-504H197V-665H117V-531C117-512 108-504 90-504H12V-433H117V-158C117-60 178 0 275 0Z" fill="#2c2e33"/>
<path transform="matrix(.012952923,0,0,.012952,346.8616,737.38717)" d="M285 8C361 8 429-28 452-75V0H532V-504H452V-430C420-478 352-512 285-512 128-512 42-399 42-252 42-105 128 8 285 8ZM292-64C191-64 125-138 125-252 125-366 191-440 292-440 393-440 459-366 459-252 459-138 393-64 292-64Z" fill="#2c2e33"/>
<path transform="matrix(.012952923,0,0,.012952,354.73695,737.38717)" d="M76 0H156V-504H76V0ZM70-711V-599H162V-711H70Z" fill="#2c2e33"/>
<path transform="matrix(.012952923,0,0,.012952,357.75495,737.38717)" d="M76 0H156V-272C156-370 218-439 305-439 381-439 431-381 431-295V0H511V-308C511-431 437-512 323-512 245-512 183-477 156-407V-504H76V0Z" fill="#2c2e33"/>
<path transform="matrix(.012952923,0,0,.012952,365.2676,737.38717)" d="M290 8C415 8 504-59 521-162H440C424-99 372-63 290-63 195-63 126-137 120-241H514C515-248 516-265 516-276 516-410 428-512 281-512 133-512 41-403 41-255 41-111 141 8 290 8ZM124-305C139-394 196-444 281-444 371-444 428-390 434-305H124Z" fill="#2c2e33"/>
<path transform="matrix(.012952923,0,0,.012952,372.53416,737.38717)" d="M288-433H357V-504H293C219-504 178-471 156-402V-504H76V0H156V-222C156-341 186-433 288-433Z" fill="#2c2e33"/>
</g>
<g clip-path="url(#clip_11)">
<g clip-path="url(#clip_12)">
<g clip-path="url(#clip_13)">
<g clip-path="url(#clip_14)">
<path transform="matrix(.71966597,0,0,.71955558,347.49485,596.0583)" stroke-width="2" stroke-linecap="butt" stroke-miterlimit="4" stroke-linejoin="miter" fill="none" stroke="#333333" d="M0 0V120.46951"/>
</g>
</g>
</g>
</g>
<g clip-path="url(#clip_15)">
<path transform="matrix(0,.71955558,-.71966597,0,347.49485,690.0692)" d="M-12.727273-7.5454547 0 0-12.727273 7.5454547V-7.5454547Z" fill="#333333"/>
<use data-text="C" xlink:href="#font_10_38" transform="matrix(12.952597,0,0,-12.952,289.76576,634.5839)" fill="#333333"/>
<use data-text="o" xlink:href="#font_10_82" transform="matrix(12.952597,0,0,-12.952,297.95176,634.5839)" fill="#333333"/>
<use data-text="n" xlink:href="#font_10_81" transform="matrix(12.952597,0,0,-12.952,305.78807,634.5839)" fill="#333333"/>
<use data-text="t" xlink:href="#font_10_87" transform="matrix(12.952597,0,0,-12.952,313.79273,634.5839)" fill="#333333"/>
<use data-text="a" xlink:href="#font_10_68" transform="matrix(12.952597,0,0,-12.952,318.4686,634.5839)" fill="#333333"/>
<use data-text="i" xlink:href="#font_10_76" transform="matrix(12.952597,0,0,-12.952,325.735,634.5839)" fill="#333333"/>
<use data-text="n" xlink:href="#font_10_81" transform="matrix(12.952597,0,0,-12.952,329.07673,634.5839)" fill="#333333"/>
<use data-text="e" xlink:href="#font_10_72" transform="matrix(12.952597,0,0,-12.952,337.0814,634.5839)" fill="#333333"/>
<use data-text="r" xlink:href="#font_10_85" transform="matrix(12.952597,0,0,-12.952,344.38664,634.5839)" fill="#333333"/>
<use data-text=" " xlink:href="#font_10_3" transform="matrix(12.952597,0,0,-12.952,349.73606,634.5839)" fill="#333333"/>
<use data-text="B" xlink:href="#font_10_37" transform="matrix(12.952597,0,0,-12.952,353.1037,634.5839)" fill="#333333"/>
<use data-text="a" xlink:href="#font_10_68" transform="matrix(12.952597,0,0,-12.952,361.52287,634.5839)" fill="#333333"/>
<use data-text="c" xlink:href="#font_10_70" transform="matrix(12.952597,0,0,-12.952,368.78926,634.5839)" fill="#333333"/>
<use data-text="k" xlink:href="#font_10_78" transform="matrix(12.952597,0,0,-12.952,375.00648,634.5839)" fill="#333333"/>
<use data-text="e" xlink:href="#font_10_72" transform="matrix(12.952597,0,0,-12.952,381.9231,634.5839)" fill="#333333"/>
<use data-text="n" xlink:href="#font_10_81" transform="matrix(12.952597,0,0,-12.952,389.22834,634.5839)" fill="#333333"/>
<use data-text="d" xlink:href="#font_10_71" transform="matrix(12.952597,0,0,-12.952,397.23304,634.5839)" fill="#333333"/>
<path transform="matrix(.71966597,0,0,.71955558,280.4,45.6247)" d="M57.27247 0H129.19944C131.07518 0 132.9464 .09192753 134.81311 .2757826 136.67983 .45963765 138.53304 .73453488 140.37273 1.1004744 142.21244 1.466414 144.02977 1.9216335 145.82476 2.4661334 147.61974 3.010633 149.3837 3.6417909 151.11666 4.3596069 152.84961 5.077423 154.54323 5.8784415 156.1975 6.762661 157.85175 7.6468808 159.45868 8.610044 161.0183 9.652151 162.57791 10.694259 164.08272 11.810293 165.53272 13.000253 166.98268 14.190212 168.37084 15.448367 169.69718 16.774718 171.02353 18.10107 172.28168 19.489232 173.47162 20.9392 174.66159 22.38917 175.77764 23.893967 176.81974 25.453589 177.86183 27.013215 178.82501 28.620156 179.70925 30.274413 180.59345 31.928669 181.39446 33.62228 182.11228 35.35524 182.83011 37.088209 183.46128 38.852178 184.00576 40.64715 184.55027 42.44212 185.00548 44.259458 185.37142 46.09916 185.73737 47.938867 186.01226 49.792078 186.1961 51.658788 186.37998 53.525499 186.47191 55.396726 186.4719 57.27247V59.27247C186.47191 61.148214 186.37998 63.019445 186.19612 64.886157 186.01227 66.75286 185.73737 68.606067 185.37142 70.44576 185.00548 72.28547 184.55027 74.102809 184.00577 75.89778 183.46128 77.69276 182.83011 79.456729 182.11228 81.18968 181.39446 82.922649 180.59345 84.61626 179.70923 86.270519 178.825 87.924777 177.86183 89.531719 176.8197 91.09133 175.7776 92.65096 174.66158 94.15576 173.47162 95.605739 172.28168 97.05571 171.02353 98.44387 169.69718 99.77022 168.37084 101.09657 166.98267 102.35473 165.5327 103.544689 164.08272 104.73464 162.57791 105.85067 161.0183 106.89277 159.45868 107.93488 157.85173 108.89805 156.19748 109.782268 154.54323 110.66649 152.84961 111.46751 151.11666 112.18532 149.3837 112.90314 147.61974 113.5343 145.82474 114.078807 144.02977 114.62331 142.21242 115.07852 140.37271 115.44446 138.53302 115.8104 136.67983 116.0853 134.81311 116.26915 132.9464 116.45301 131.07518 116.54494 129.19944 116.54494H57.27247C55.396726 116.54494 53.525499 116.45301 51.658788 116.26916 49.792078 116.0853 47.938867 115.8104 46.09916 115.44446 44.259458 115.07852 42.44212 114.62331 40.64715 114.078807 38.852178 113.5343 37.088209 112.90314 35.355245 112.18532 33.622285 111.46751 31.928673 110.66649 30.274416 109.782268 28.620158 108.89805 27.013216 107.93488 25.45359 106.89277 23.893967 105.85067 22.38917 104.73464 20.939202 103.544689 19.489232 102.35473 18.10107 101.09657 16.774718 99.77022 15.448367 98.44387 14.190212 97.05571 13.000253 95.605739 11.810293 94.15577 10.694259 92.65097 9.652151 91.09135 8.610044 89.53172 7.64688 87.92478 6.7626607 86.270519 5.878441 84.61626 5.077423 82.922649 4.3596069 81.18968 3.6417909 79.456729 3.010633 77.69276 2.4661334 75.89778 1.9216335 74.102809 1.466414 72.28547 1.1004744 70.44576 .73453488 68.606067 .45963765 66.75286 .2757826 64.88615 .09192753 63.01944 0 61.148214 0 59.27247V57.27247C0 55.396726 .09192753 53.525499 .2757826 51.658788 .45963765 49.792078 .73453488 47.938867 1.1004744 46.09916 1.466414 44.259458 1.9216335 42.44212 2.4661334 40.64715 3.010633 38.852178 3.6417909 37.088209 4.3596069 35.355245 5.077423 33.622285 5.8784415 31.928673 6.762661 30.274416 7.6468808 28.620158 8.610044 27.013216 9.652151 25.45359 10.694259 23.893967 11.810293 22.38917 13.000253 20.939202 14.190212 19.489232 15.448367 18.10107 16.774718 16.774718 18.10107 15.448367 19.489232 14.190212 20.9392 13.000253 22.38917 11.810293 23.893967 10.694259 25.453589 9.652151 27.013215 8.610044 28.620156 7.64688 30.274413 6.7626607 31.928669 5.878441 33.62228 5.077423 35.35524 4.3596069 37.088209 3.6417909 38.852178 3.010633 40.64715 2.4661334 42.44212 1.9216335 44.259458 1.466414 46.09916 1.1004744 47.938867 .73453488 49.792078 .45963765 51.658788 .2757826 53.525499 .09192753 55.396726 0 57.27247 0Z" fill="#aba3ff"/>
<path transform="matrix(.0129506089,0,0,.012952,332.99183,92.94672)" d="M303 8C450 8 559-64 559-191 559-454 147-343 147-522 147-589 204-631 298-631 392-631 453-580 461-501H545C535-627 438-708 298-708 158-708 61-633 61-522 61-272 471-371 471-191 471-106 400-69 303-69 194-69 130-132 121-229H37C46-86 146 8 303 8Z" fill="#333333"/>
<path transform="matrix(.0129506089,0,0,.012952,340.7751,92.94672)" d="M275 0H352V-71H278C229-71 197-104 197-160V-433H352V-504H197V-665H117V-531C117-512 108-504 90-504H12V-433H117V-158C117-60 178 0 275 0Z" fill="#333333"/>
<path transform="matrix(.0129506089,0,0,.012952,345.59269,92.94672)" d="M285 8C361 8 429-28 452-75V0H532V-504H452V-430C420-478 352-512 285-512 128-512 42-399 42-252 42-105 128 8 285 8ZM292-64C191-64 125-138 125-252 125-366 191-440 292-440 393-440 459-366 459-252 459-138 393-64 292-64Z" fill="#333333"/>
<path transform="matrix(.0129506089,0,0,.012952,353.4666,92.94672)" d="M399-665V-158C399-60 460 0 557 0H633V-71H560C510-71 479-104 479-160V-433H633V-504H479V-665H399ZM288-433H352V-504H293C219-504 178-471 156-402V-504H76V0H156V-222C156-341 186-433 288-433Z" fill="#333333"/>
<path transform="matrix(.71966597,0,0,.71955558,347.49485,129.48603)" stroke-width="2" stroke-linecap="butt" stroke-miterlimit="4" stroke-linejoin="miter" fill="none" stroke="#333333" d="M0 0V77.95495"/>
<path transform="matrix(0,.71955558,-.71966597,0,347.49485,192.90532)" d="M-12.727273-7.5454547 0 0-12.727273 7.5454547V-7.5454547Z" fill="#333333"/>
<path transform="matrix(.71966597,0,0,.71955558,532.4647,497.0087)" d="M8 0H155.16292C155.6882 0 156.20845 .051239246 156.72364 .15371774 157.23883 .25619624 157.73908 .40794487 158.22438 .60896369 158.70969 .8099825 159.17072 1.0564089 159.60747 1.348243 160.04424 1.6400771 160.44834 1.9717112 160.81977 2.3431457 161.1912 2.7145799 161.52283 3.1186772 161.81467 3.5554376 162.10649 3.9921983 162.35292 4.4532296 162.55394 4.938532 162.75496 5.4238345 162.90671 5.9240829 163.00919 6.439277 163.11168 6.954471 163.16292 7.474712 163.16292 8V108.54494C163.16292 109.07023 163.11168 109.59046 163.0092 110.10565 162.90671 110.62084 162.75496 111.12109 162.55394 111.60639 162.35292 112.09169 162.10649 112.55272 161.81467 112.98948 161.52283 113.42624 161.1912 113.830348 160.81977 114.20178 160.44834 114.57322 160.04424 114.904857 159.60747 115.196689 159.17072 115.48852 158.70969 115.73494 158.22438 115.93596 157.73908 116.13698 157.23883 116.28873 156.72364 116.391208 156.20845 116.49369 155.6882 116.54494 155.16292 116.54494H8C7.474712 116.54494 6.954471 116.49369 6.4392769 116.391208 5.9240825 116.28873 5.4238345 116.13698 4.938532 115.93596 4.4532296 115.73494 3.9921983 115.48852 3.5554376 115.196689 3.1186772 114.904857 2.7145799 114.57322 2.3431457 114.20178 1.9717112 113.830348 1.640077 113.42624 1.3482429 112.98948 1.0564089 112.55272 .8099825 112.09168 .60896369 111.606388 .40794487 111.121089 .25619624 110.620838 .15371774 110.105648 .051239246 109.59046 0 109.07023 0 108.54494V8C0 7.474712 .051239246 6.954471 .15371774 6.4392769 .25619624 5.9240825 .40794487 5.4238345 .60896369 4.938532 .8099825 4.4532296 1.0564089 3.9921983 1.348243 3.5554376 1.6400771 3.1186772 1.9717112 2.7145799 2.3431457 2.3431457 2.7145799 1.9717112 3.1186772 1.640077 3.5554376 1.3482429 3.9921983 1.0564089 4.4532296 .8099825 4.938532 .60896369 5.4238345 .40794487 5.9240829 .25619624 6.439277 .15371774 6.954471 .051239246 7.474712 0 8 0Z" fill="#f5921b"/>
<path transform="matrix(.012952728,0,0,.012952,550.23147,544.33078)" d="M85 0H521V-77H171V-700H85V0Z" fill="#2c2e33"/>
<path transform="matrix(.012952728,0,0,.012952,556.8503,544.33078)" d="M297 8C447 8 554-101 554-252 554-404 447-512 297-512 148-512 41-404 41-252 41-101 148 8 297 8ZM297-64C194-64 123-142 123-252 123-362 194-440 297-440 401-440 472-362 472-252 472-142 401-64 297-64Z" fill="#2c2e33"/>
<path transform="matrix(.012952728,0,0,.012952,564.55709,544.33078)" d="M286 8C414 8 497-60 514-163H436C418-102 363-64 287-64 178-64 124-149 124-252 124-355 177-440 287-440 363-440 426-395 436-334H515C500-446 399-512 286-512 127-512 41-387 41-252 41-117 127 8 286 8Z" fill="#2c2e33"/>
<path transform="matrix(.012952728,0,0,.012952,571.694,544.33078)" d="M285 8C361 8 429-28 452-75V0H532V-504H452V-430C420-478 352-512 285-512 128-512 42-399 42-252 42-105 128 8 285 8ZM292-64C191-64 125-138 125-252 125-366 191-440 292-440 393-440 459-366 459-252 459-138 393-64 292-64Z" fill="#2c2e33"/>
<path transform="matrix(.012952728,0,0,.012952,579.5692,544.33078)" d="M76 0H156V-711H76V0Z" fill="#2c2e33"/>
<use data-text=" " xlink:href="#font_16_2" transform="matrix(12.952727,0,0,-12.952,582.58718,544.33078)" fill="#2c2e33"/>
<path transform="matrix(.012952728,0,0,.012952,585.6958,544.33078)" d="M85 0H171V-286H349C487-286 572-370 572-493 572-616 487-700 349-700H85V0ZM349-362H171V-624H349C447-624 484-562 484-493 484-424 447-362 349-362Z" fill="#2c2e33"/>
<path transform="matrix(.012952728,0,0,.012952,593.3638,544.33078)" d="M288-433H357V-504H293C219-504 178-471 156-402V-504H76V0H156V-222C156-341 186-433 288-433Z" fill="#2c2e33"/>
<path transform="matrix(.012952728,0,0,.012952,597.9231,544.33078)" d="M297 8C447 8 554-101 554-252 554-404 447-512 297-512 148-512 41-404 41-252 41-101 148 8 297 8ZM297-64C194-64 123-142 123-252 123-362 194-440 297-440 401-440 472-362 472-252 472-142 401-64 297-64Z" fill="#2c2e33"/>
<path transform="matrix(.012952728,0,0,.012952,605.62997,544.33078)" d="M286 8C414 8 497-60 514-163H436C418-102 363-64 287-64 178-64 124-149 124-252 124-355 177-440 287-440 363-440 426-395 436-334H515C500-446 399-512 286-512 127-512 41-387 41-252 41-117 127 8 286 8Z" fill="#2c2e33"/>
<path transform="matrix(.012952728,0,0,.012952,612.76687,544.33078)" d="M290 8C415 8 504-59 521-162H440C424-99 372-63 290-63 195-63 126-137 120-241H514C515-248 516-265 516-276 516-410 428-512 281-512 133-512 41-403 41-255 41-111 141 8 290 8ZM124-305C139-394 196-444 281-444 371-444 428-390 434-305H124Z" fill="#2c2e33"/>
<path transform="matrix(.012952728,0,0,.012952,620.03329,544.33078)" d="M238 8C349 8 424-50 424-140 424-371 129-236 129-372 129-416 168-444 227-444 272-444 335-422 343-358H420C414-451 339-512 229-512 122-512 50-456 50-371 50-153 344-288 344-138 344-97 302-62 238-62 165-62 121-97 114-162H37C45-57 122 8 238 8Z" fill="#2c2e33"/>
<path transform="matrix(.012952728,0,0,.012952,626.0692,544.33078)" d="M238 8C349 8 424-50 424-140 424-371 129-236 129-372 129-416 168-444 227-444 272-444 335-422 343-358H420C414-451 339-512 229-512 122-512 50-456 50-371 50-153 344-288 344-138 344-97 302-62 238-62 165-62 121-97 114-162H37C45-57 122 8 238 8Z" fill="#2c2e33"/>
<use data-text=" " xlink:href="#font_16_2" transform="matrix(12.952727,0,0,-12.952,632.10519,544.33078)" fill="#2c2e33"/>
</g>
<g clip-path="url(#clip_17)">
<g clip-path="url(#clip_18)">
<g clip-path="url(#clip_19)">
<g clip-path="url(#clip_20)">
<path transform="matrix(.71966597,0,0,.71955558,414.5972,538.9394)" stroke-width="2" stroke-linecap="butt" stroke-miterlimit="4" stroke-linejoin="miter" fill="none" stroke="#333333" d="M0 0H153.60544"/>
</g>
</g>
</g>
</g>
<g clip-path="url(#clip_21)">
<path transform="matrix(.71966597,0,0,.71955558,532.4693,538.9394)" d="M-12.727273-7.5454547 0 0-12.727273 7.5454547V-7.5454547Z" fill="#333333"/>
<use data-text="L" xlink:href="#font_10_47" transform="matrix(10.074467,0,0,-10.073778,433.6929,541.8176)" fill="#333333"/>
<use data-text="o" xlink:href="#font_10_82" transform="matrix(10.074467,0,0,-10.073778,438.9719,541.8176)" fill="#333333"/>
<use data-text="c" xlink:href="#font_10_70" transform="matrix(10.074467,0,0,-10.073778,445.06694,541.8176)" fill="#333333"/>
<use data-text="a" xlink:href="#font_10_68" transform="matrix(10.074467,0,0,-10.073778,449.90266,541.8176)" fill="#333333"/>
<use data-text="l" xlink:href="#font_10_79" transform="matrix(10.074467,0,0,-10.073778,455.5544,541.8176)" fill="#333333"/>
<use data-text=" " xlink:href="#font_10_3" transform="matrix(10.074467,0,0,-10.073778,458.15364,541.8176)" fill="#333333"/>
<use data-text="P" xlink:href="#font_10_51" transform="matrix(10.074467,0,0,-10.073778,460.77299,541.8176)" fill="#333333"/>
<use data-text="r" xlink:href="#font_10_85" transform="matrix(10.074467,0,0,-10.073778,466.868,541.8176)" fill="#333333"/>
<use data-text="o" xlink:href="#font_10_82" transform="matrix(10.074467,0,0,-10.073778,470.82728,541.8176)" fill="#333333"/>
<use data-text="c" xlink:href="#font_10_70" transform="matrix(10.074467,0,0,-10.073778,476.9223,541.8176)" fill="#333333"/>
<use data-text="e" xlink:href="#font_10_72" transform="matrix(10.074467,0,0,-10.073778,481.758,541.8176)" fill="#333333"/>
<use data-text="s" xlink:href="#font_10_86" transform="matrix(10.074467,0,0,-10.073778,487.43998,541.8176)" fill="#333333"/>
<use data-text="s" xlink:href="#font_10_86" transform="matrix(10.074467,0,0,-10.073778,492.26564,541.8176)" fill="#333333"/>
</g>
</svg>
